<svg xmlns="http://www.w3.org/2000/svg" width="23.75" height="23.781" viewBox="0 0 23.75 23.781">
  <metadata><?xpacket begin="﻿" id="W5M0MpCehiHzreSzNTczkc9d"?>
<x:xmpmeta xmlns:x="adobe:ns:meta/" x:xmptk="Adobe XMP Core 5.6-c138 79.159824, 2016/09/14-01:09:01        ">
   <rdf:RDF xmlns:rdf="http://www.w3.org/1999/02/22-rdf-syntax-ns#">
      <rdf:Description rdf:about=""/>
   </rdf:RDF>
</x:xmpmeta>
                                                                                                    
                                                                                                    
                                                                                                    
                                                                                                    
                                                                                                    
                                                                                                    
                                                                                                    
                                                                                                    
                                                                                                    
                                                                                                    
                                                                                                    
                                                                                                    
                                                                                                    
                                                                                                    
                                                                                                    
                                                                                                    
                                                                                                    
                                                                                                    
                                                                                                    
                                                                                                    
                           
<?xpacket end="w"?></metadata>
<defs>
    <style>
      .cls-1 {
        fill: #5c6bc0;
        fill-rule: evenodd;
      }
    </style>
  </defs>
  <path id="edit-1" class="cls-1" d="M486.844,599.022a0.991,0.991,0,0,1-.7-1.691l9.911-9.9a0.991,0.991,0,0,1,1.4,1.4l-9.911,9.9A0.985,0.985,0,0,1,486.844,599.022Zm2.973,2.971a0.991,0.991,0,0,1-.7-1.691l9.911-9.9a0.991,0.991,0,1,1,1.4,1.4l-9.911,9.9A0.987,0.987,0,0,1,489.817,601.993Zm9.912-9.9a1,1,0,0,1-.982-1.132,2.089,2.089,0,0,0-.36-1.492,2.024,2.024,0,0,0-1.5-.357,0.991,0.991,0,0,1-.275-1.962,3.929,3.929,0,0,1,3.221.966,4.037,4.037,0,0,1,.874,3.127A0.993,0.993,0,0,1,499.729,592.089Zm-13.876,10.9a0.991,0.991,0,0,1-.962-1.231l0.991-3.963a0.991,0.991,0,0,1,1.923.48l-0.59,2.361,2.361-.59a0.99,0.99,0,1,1,.481,1.921l-3.964.992A1.038,1.038,0,0,1,485.853,602.985Zm11.893,7.923H477.924A0.868,0.868,0,0,1,477,610V590a0.848,0.848,0,0,1,.924-0.882h10.9a0.991,0.991,0,0,1,.991.991A0.775,0.775,0,0,1,489,591H479v18h18V599a0.792,0.792,0,0,1,.746-0.969,0.991,0.991,0,0,1,.991.991v10.895A0.991,0.991,0,0,1,497.746,610.908Z" transform="translate(-477 -587.125)"/>
</svg>
