<svg xmlns="http://www.w3.org/2000/svg" width="24" height="18" viewBox="0 0 24 18">
  <metadata><?xpacket begin="﻿" id="W5M0MpCehiHzreSzNTczkc9d"?>
<x:xmpmeta xmlns:x="adobe:ns:meta/" x:xmptk="Adobe XMP Core 5.6-c138 79.159824, 2016/09/14-01:09:01        ">
   <rdf:RDF xmlns:rdf="http://www.w3.org/1999/02/22-rdf-syntax-ns#">
      <rdf:Description rdf:about=""/>
   </rdf:RDF>
</x:xmpmeta>
                                                                                                    
                                                                                                    
                                                                                                    
                                                                                                    
                                                                                                    
                                                                                                    
                                                                                                    
                                                                                                    
                                                                                                    
                                                                                                    
                                                                                                    
                                                                                                    
                                                                                                    
                                                                                                    
                                                                                                    
                                                                                                    
                                                                                                    
                                                                                                    
                                                                                                    
                                                                                                    
                           
<?xpacket end="w"?></metadata>
<defs>
    <style>
      .cls-1 {
        fill: #5c6bc0;
        fill-rule: evenodd;
      }
    </style>
  </defs>
  <path id="eye" class="cls-1" d="M2089,608c-7.8,0-12-6.388-12-9s4.2-9,12-9,12,6.388,12,9S2096.79,608,2089,608Zm0-16c-6.78,0-10,5.615-10,7s3.22,7,10,7,10-5.615,10-7S2095.78,592,2089,592Zm0,12a5,5,0,1,1,5-5A5,5,0,0,1,2089,604Zm0-8a3,3,0,1,0,3,3A3.006,3.006,0,0,0,2089,596Z" transform="translate(-2077 -590)"/>
</svg>
