<svg xmlns="http://www.w3.org/2000/svg" width="24" height="23.938" viewBox="0 0 24 23.938">
  <metadata><?xpacket begin="﻿" id="W5M0MpCehiHzreSzNTczkc9d"?>
<x:xmpmeta xmlns:x="adobe:ns:meta/" x:xmptk="Adobe XMP Core 5.6-c138 79.159824, 2016/09/14-01:09:01        ">
   <rdf:RDF xmlns:rdf="http://www.w3.org/1999/02/22-rdf-syntax-ns#">
      <rdf:Description rdf:about=""/>
   </rdf:RDF>
</x:xmpmeta>
                                                                                                    
                                                                                                    
                                                                                                    
                                                                                                    
                                                                                                    
                                                                                                    
                                                                                                    
                                                                                                    
                                                                                                    
                                                                                                    
                                                                                                    
                                                                                                    
                                                                                                    
                                                                                                    
                                                                                                    
                                                                                                    
                                                                                                    
                                                                                                    
                                                                                                    
                                                                                                    
                           
<?xpacket end="w"?></metadata>
<defs>
    <style>
      .cls-1 {
        fill: #5c6bc0;
        fill-rule: evenodd;
      }
    </style>
  </defs>
  <path id="file-copy" class="cls-1" d="M810.007,598.008h-6.015a1,1,0,0,1-1-1v-5.982a1,1,0,0,1,1.7-.705l5.887,5.874A1,1,0,0,1,810.007,598.008Zm-5.016-1.994h2.584l-2.584-2.578v2.578Zm13.01-1h-6.015a1,1,0,0,1-1-1v-5.982a1,1,0,0,1,1.705-.705l5.887,5.874A1,1,0,0,1,818,595.017Zm-5.016-1.994h2.584l-2.584-2.578v2.578Zm-4,17.946H797a2,2,0,0,1-2-1.994V592.026a2,2,0,0,1,2-1.994h6.994a1,1,0,1,1,0,1.994H797v16.949h11.99V597.011a1,1,0,0,1,2,0v11.964A2,2,0,0,1,808.988,610.969Zm7.994-2.991h-4a1,1,0,1,1,0-1.994h4V594.02a1,1,0,0,1,2,0v11.964A2,2,0,0,1,816.982,607.978ZM812,589h-8a0.975,0.975,0,0,1-1.007-.962,1,1,0,0,1,1-1h7.994a1,1,0,0,1,1,1A0.956,0.956,0,0,1,812,589Z" transform="translate(-795 -587.031)"/>
</svg>
