<svg xmlns="http://www.w3.org/2000/svg" width="35" height="45" viewBox="0 0 35 45">
  <metadata><?xpacket begin="﻿" id="W5M0MpCehiHzreSzNTczkc9d"?>
<x:xmpmeta xmlns:x="adobe:ns:meta/" x:xmptk="Adobe XMP Core 5.6-c138 79.159824, 2016/09/14-01:09:01        ">
   <rdf:RDF xmlns:rdf="http://www.w3.org/1999/02/22-rdf-syntax-ns#">
      <rdf:Description rdf:about=""/>
   </rdf:RDF>
</x:xmpmeta>
                                                                                                    
                                                                                                    
                                                                                                    
                                                                                                    
                                                                                                    
                                                                                                    
                                                                                                    
                                                                                                    
                                                                                                    
                                                                                                    
                                                                                                    
                                                                                                    
                                                                                                    
                                                                                                    
                                                                                                    
                                                                                                    
                                                                                                    
                                                                                                    
                                                                                                    
                                                                                                    
                           
<?xpacket end="w"?></metadata>
<defs>
    <style>
      .cls-1 {
        fill: #babdbf;
        fill-rule: evenodd;
      }
    </style>
  </defs>
  <path id="icon-doc-xls" class="cls-1" d="M394,1682H381a1.528,1.528,0,0,1-1-1v-12a1.794,1.794,0,0,0-1-1H360.974a0.988,0.988,0,0,0-.974.99v43.02a0.988,0.988,0,0,0,.974.99h33.052a0.988,0.988,0,0,0,.974-0.99V1683A1.687,1.687,0,0,0,394,1682Zm-11-2h12c0.006-.97-0.014-0.3,0-1l-12-11c-0.861.02-.406,0.01-1,0v11A1.243,1.243,0,0,0,383,1680Zm-15.046,12.11h-2.105l2.587,4.41-2.655,4.48h2.131l1.709-3.11,1.709,3.11h2.13l-2.655-4.48,2.588-4.41h-2.106l-1.666,3.07Zm8.883,0h-1.831V1701h5.719v-1.47h-3.888v-7.42Zm9.805,7.3a1.688,1.688,0,0,1-1.019.27c-1.172,0-1.758-.49-1.758-1.48h-1.837a2.65,2.65,0,0,0,.442,1.52,3,3,0,0,0,1.285,1.03,4.542,4.542,0,0,0,1.868.37,3.872,3.872,0,0,0,2.35-.65,2.143,2.143,0,0,0,.872-1.81,2.333,2.333,0,0,0-.714-1.74,5.559,5.559,0,0,0-2.276-1.16,5.08,5.08,0,0,1-1.285-.55,0.868,0.868,0,0,1-.437-0.73,0.9,0.9,0,0,1,.373-0.75,1.683,1.683,0,0,1,1.044-.28,1.562,1.562,0,0,1,1.08.34,1.189,1.189,0,0,1,.384.95h1.831a2.536,2.536,0,0,0-.412-1.43,2.686,2.686,0,0,0-1.156-.97,4,4,0,0,0-1.7-.35,4.418,4.418,0,0,0-1.706.32,2.613,2.613,0,0,0-1.166.88,2.174,2.174,0,0,0-.406,1.29,2.468,2.468,0,0,0,1.514,2.2,9.677,9.677,0,0,0,1.508.61,4.828,4.828,0,0,1,1.318.58,0.947,0.947,0,0,1,.366.8A0.862,0.862,0,0,1,386.642,1699.41Z" transform="translate(-360 -1668)"/>
</svg>
