<svg xmlns="http://www.w3.org/2000/svg" width="35" height="45" viewBox="0 0 35 45">
  <metadata><?xpacket begin="﻿" id="W5M0MpCehiHzreSzNTczkc9d"?>
<x:xmpmeta xmlns:x="adobe:ns:meta/" x:xmptk="Adobe XMP Core 5.6-c138 79.159824, 2016/09/14-01:09:01        ">
   <rdf:RDF xmlns:rdf="http://www.w3.org/1999/02/22-rdf-syntax-ns#">
      <rdf:Description rdf:about=""/>
   </rdf:RDF>
</x:xmpmeta>
                                                                                                    
                                                                                                    
                                                                                                    
                                                                                                    
                                                                                                    
                                                                                                    
                                                                                                    
                                                                                                    
                                                                                                    
                                                                                                    
                                                                                                    
                                                                                                    
                                                                                                    
                                                                                                    
                                                                                                    
                                                                                                    
                                                                                                    
                                                                                                    
                                                                                                    
                                                                                                    
                           
<?xpacket end="w"?></metadata>
<defs>
    <style>
      .cls-1 {
        fill: #babdbf;
        fill-rule: evenodd;
      }
    </style>
  </defs>
  <path id="icon-doc-txt" class="cls-1" d="M394,1531H381a1.528,1.528,0,0,1-1-1v-12a1.794,1.794,0,0,0-1-1H360.974a0.988,0.988,0,0,0-.974.99v43.02a0.988,0.988,0,0,0,.974.99h33.052a0.988,0.988,0,0,0,.974-0.99V1532A1.687,1.687,0,0,0,394,1531Zm-11-2h12c0.006-.97-0.014-0.3,0-1l-12-11c-0.861.02-.406,0.01-1,0v11A1.243,1.243,0,0,0,383,1529Zm-10.193,12.11h-7.239v1.49h2.685v7.4h1.831v-7.4h2.723v-1.49Zm3.182,0h-2.106l2.588,4.41-2.655,4.48h2.13l1.709-3.11,1.709,3.11h2.13l-2.655-4.48,2.588-4.41h-2.106l-1.666,3.07Zm13.741,0h-7.238v1.49h2.685v7.4h1.831v-7.4h2.722v-1.49Z" transform="translate(-360 -1517)"/>
</svg>
