<svg xmlns="http://www.w3.org/2000/svg" width="35" height="45" viewBox="0 0 35 45">
  <metadata><?xpacket begin="﻿" id="W5M0MpCehiHzreSzNTczkc9d"?>
<x:xmpmeta xmlns:x="adobe:ns:meta/" x:xmptk="Adobe XMP Core 5.6-c138 79.159824, 2016/09/14-01:09:01        ">
   <rdf:RDF xmlns:rdf="http://www.w3.org/1999/02/22-rdf-syntax-ns#">
      <rdf:Description rdf:about=""/>
   </rdf:RDF>
</x:xmpmeta>
                                                                                                    
                                                                                                    
                                                                                                    
                                                                                                    
                                                                                                    
                                                                                                    
                                                                                                    
                                                                                                    
                                                                                                    
                                                                                                    
                                                                                                    
                                                                                                    
                                                                                                    
                                                                                                    
                                                                                                    
                                                                                                    
                                                                                                    
                                                                                                    
                                                                                                    
                                                                                                    
                           
<?xpacket end="w"?></metadata>
<defs>
    <style>
      .cls-1 {
        fill: #babdbf;
        fill-rule: evenodd;
      }
    </style>
  </defs>
  <path id="icon-doc-doc" class="cls-1" d="M394,1606H381a1.528,1.528,0,0,1-1-1v-12a1.794,1.794,0,0,0-1-1H360.974a0.988,0.988,0,0,0-.974.99v43.02a0.988,0.988,0,0,0,.974.99h33.052a0.988,0.988,0,0,0,.974-0.99V1607A1.687,1.687,0,0,0,394,1606Zm-11-2h12c0.006-.97-0.014-0.3,0-1l-12-11c-0.861.02-.406,0.01-1,0v11A1.243,1.243,0,0,0,383,1604Zm-15.076,21a4.082,4.082,0,0,0,2.093-.54,3.63,3.63,0,0,0,1.438-1.49,4.689,4.689,0,0,0,.509-2.21v-0.4a4.662,4.662,0,0,0-.518-2.22,3.665,3.665,0,0,0-1.444-1.5,4.172,4.172,0,0,0-2.1-.53h-2.734V1625h2.753Zm-0.019-7.4a1.97,1.97,0,0,1,1.642.7,3.2,3.2,0,0,1,.562,2.05v0.47a3.185,3.185,0,0,1-.58,2.01,1.981,1.981,0,0,1-1.642.7H367v-5.93h0.9Zm13.315,2.76a5.294,5.294,0,0,0-.473-2.3,3.461,3.461,0,0,0-1.337-1.53,3.88,3.88,0,0,0-3.949,0,3.461,3.461,0,0,0-1.337,1.53,5.308,5.308,0,0,0-.473,2.31v0.44a5.174,5.174,0,0,0,.482,2.26,3.5,3.5,0,0,0,1.343,1.52,3.917,3.917,0,0,0,3.952-.01,3.427,3.427,0,0,0,1.328-1.52,5.381,5.381,0,0,0,.464-2.3v-0.4Zm-1.856.43a3.777,3.777,0,0,1-.5,2.11,1.756,1.756,0,0,1-2.857-.03,3.779,3.779,0,0,1-.5-2.11v-0.44a3.7,3.7,0,0,1,.506-2.1,1.764,1.764,0,0,1,2.851.01,3.762,3.762,0,0,1,.5,2.13v0.43Zm8.957,1.25a1.759,1.759,0,0,1-.48,1.2,1.8,1.8,0,0,1-1.266.39,1.536,1.536,0,0,1-1.376-.67,3.9,3.9,0,0,1-.437-2.1v-0.68a3.661,3.661,0,0,1,.467-2.03,1.552,1.552,0,0,1,1.37-.66,1.769,1.769,0,0,1,1.255.39,1.856,1.856,0,0,1,.479,1.25h1.831a3.358,3.358,0,0,0-1.087-2.31,3.62,3.62,0,0,0-2.478-.83,3.688,3.688,0,0,0-1.95.52,3.409,3.409,0,0,0-1.291,1.5,5.348,5.348,0,0,0-.451,2.26v0.54a4.725,4.725,0,0,0,.979,3.16,3.336,3.336,0,0,0,2.689,1.15,3.714,3.714,0,0,0,2.518-.82,3.149,3.149,0,0,0,1.059-2.26h-1.831Z" transform="translate(-360 -1592)"/>
</svg>
