<svg xmlns="http://www.w3.org/2000/svg" width="35" height="45" viewBox="0 0 35 45">
  <metadata><?xpacket begin="﻿" id="W5M0MpCehiHzreSzNTczkc9d"?>
<x:xmpmeta xmlns:x="adobe:ns:meta/" x:xmptk="Adobe XMP Core 5.6-c138 79.159824, 2016/09/14-01:09:01        ">
   <rdf:RDF xmlns:rdf="http://www.w3.org/1999/02/22-rdf-syntax-ns#">
      <rdf:Description rdf:about=""/>
   </rdf:RDF>
</x:xmpmeta>
                                                                                                    
                                                                                                    
                                                                                                    
                                                                                                    
                                                                                                    
                                                                                                    
                                                                                                    
                                                                                                    
                                                                                                    
                                                                                                    
                                                                                                    
                                                                                                    
                                                                                                    
                                                                                                    
                                                                                                    
                                                                                                    
                                                                                                    
                                                                                                    
                                                                                                    
                                                                                                    
                           
<?xpacket end="w"?></metadata>
<defs>
    <style>
      .cls-1 {
        fill: #babdbf;
        fill-rule: evenodd;
      }
    </style>
  </defs>
  <path id="icon-doc-pdf" class="cls-1" d="M394,1757H381a1.528,1.528,0,0,1-1-1v-12a1.794,1.794,0,0,0-1-1H360.974a0.988,0.988,0,0,0-.974.99v43.02a0.988,0.988,0,0,0,.974.99h33.052a0.988,0.988,0,0,0,.974-0.99V1758A1.687,1.687,0,0,0,394,1757Zm-11-2h12c0.006-.97-0.014-0.3,0-1l-12-11c-0.861.02-.406,0.01-1,0v11A1.243,1.243,0,0,0,383,1755Zm-13.444,17.87a3.737,3.737,0,0,0,2.475-.75,2.563,2.563,0,0,0,.894-2.06,2.91,2.91,0,0,0-.408-1.54,2.675,2.675,0,0,0-1.169-1.04,4.073,4.073,0,0,0-1.761-.37H366.12V1776h1.831v-3.13h1.6Zm-1.6-4.27h1.679a1.4,1.4,0,0,1,1.062.41,1.472,1.472,0,0,1,.384,1.06,1.223,1.223,0,0,1-.381.97,1.6,1.6,0,0,1-1.108.35h-1.636v-2.79Zm9.61,7.4a4.084,4.084,0,0,0,2.093-.54,3.627,3.627,0,0,0,1.437-1.49,4.677,4.677,0,0,0,.51-2.21v-0.4a4.651,4.651,0,0,0-.519-2.22,3.662,3.662,0,0,0-1.443-1.5,4.178,4.178,0,0,0-2.1-.53h-2.734V1776h2.753Zm-0.019-7.4a1.971,1.971,0,0,1,1.642.7,3.207,3.207,0,0,1,.562,2.05v0.47a3.191,3.191,0,0,1-.58,2.01,1.983,1.983,0,0,1-1.642.7h-0.885v-5.93h0.9Zm11.361,2.29h-3.515v-2.29h3.955v-1.49h-5.786V1776h1.831v-3.63H388.9v-1.48Z" transform="translate(-360 -1743)"/>
</svg>
