<svg xmlns="http://www.w3.org/2000/svg" width="13" height="14" viewBox="0 0 13 14">
  <metadata><?xpacket begin="﻿" id="W5M0MpCehiHzreSzNTczkc9d"?>
<x:xmpmeta xmlns:x="adobe:ns:meta/" x:xmptk="Adobe XMP Core 5.6-c138 79.159824, 2016/09/14-01:09:01        ">
   <rdf:RDF xmlns:rdf="http://www.w3.org/1999/02/22-rdf-syntax-ns#">
      <rdf:Description rdf:about=""/>
   </rdf:RDF>
</x:xmpmeta>
                                                                                                    
                                                                                                    
                                                                                                    
                                                                                                    
                                                                                                    
                                                                                                    
                                                                                                    
                                                                                                    
                                                                                                    
                                                                                                    
                                                                                                    
                                                                                                    
                                                                                                    
                                                                                                    
                                                                                                    
                                                                                                    
                                                                                                    
                                                                                                    
                                                                                                    
                                                                                                    
                           
<?xpacket end="w"?></metadata>
<defs>
    <style>
      .cls-1 {
        fill: #5c6bc0;
        fill-rule: evenodd;
      }
    </style>
  </defs>
  <path id="icon-calendar" class="cls-1" d="M771.406,373.342v-2.25h2.25v2.25h-2.25Zm2.75,0v-2.25h2.5v2.25h-2.5Zm-2.75-2.75v-2.5h2.25v2.5h-2.25Zm2.75,0v-2.5h2.5v2.5h-2.5Zm-2.75-3v-2.25h2.25v2.25h-2.25Zm5.75,5.75v-2.25h2.5v2.25h-2.5Zm-3-5.75v-2.25h2.5v2.25h-2.5Zm6,5.75v-2.25h2.25v2.25h-2.25Zm-3-2.75v-2.5h2.5v2.5h-2.5Zm-2.75-6.75a0.257,0.257,0,0,1-.25.25h-0.5a0.257,0.257,0,0,1-.25-0.25v-2.25a0.257,0.257,0,0,1,.25-0.25h0.5a0.257,0.257,0,0,1,.25.25v2.25Zm5.75,6.75v-2.5h2.25v2.5h-2.25Zm-3-3v-2.25h2.5v2.25h-2.5Zm3,0v-2.25h2.25v2.25h-2.25Zm0.25-3.75a0.257,0.257,0,0,1-.25.25h-0.5a0.257,0.257,0,0,1-.25-0.25v-2.25a0.257,0.257,0,0,1,.25-0.25h0.5a0.257,0.257,0,0,1,.25.25v2.25Zm3-.5a1.007,1.007,0,0,0-1-1h-1v-0.75a1.254,1.254,0,0,0-1.25-1.25h-0.5a1.254,1.254,0,0,0-1.25,1.25v0.75h-3v-0.75a1.254,1.254,0,0,0-1.25-1.25h-0.5a1.254,1.254,0,0,0-1.25,1.25v0.75h-1a1.007,1.007,0,0,0-1,1v10a1.007,1.007,0,0,0,1,1h11a1.007,1.007,0,0,0,1-1v-10Z" transform="translate(-770.406 -360.344)"/>
</svg>
