<svg xmlns="http://www.w3.org/2000/svg" width="26" height="20" viewBox="0 0 26 20">
  <metadata><?xpacket begin="﻿" id="W5M0MpCehiHzreSzNTczkc9d"?>
<x:xmpmeta xmlns:x="adobe:ns:meta/" x:xmptk="Adobe XMP Core 5.6-c138 79.159824, 2016/09/14-01:09:01        ">
   <rdf:RDF xmlns:rdf="http://www.w3.org/1999/02/22-rdf-syntax-ns#">
      <rdf:Description rdf:about=""/>
   </rdf:RDF>
</x:xmpmeta>
                                                                                                    
                                                                                                    
                                                                                                    
                                                                                                    
                                                                                                    
                                                                                                    
                                                                                                    
                                                                                                    
                                                                                                    
                                                                                                    
                                                                                                    
                                                                                                    
                                                                                                    
                                                                                                    
                                                                                                    
                                                                                                    
                                                                                                    
                                                                                                    
                                                                                                    
                                                                                                    
                           
<?xpacket end="w"?></metadata>
<defs>
    <style>
      .cls-1 {
        fill: #c6cacc;
        fill-rule: evenodd;
      }
    </style>
  </defs>
  <path id="icon-wallet" class="cls-1" d="M783.042,1352H761.463a1.435,1.435,0,0,0-1.142.57,1.585,1.585,0,0,0-.269.55,1.648,1.648,0,0,0-.052.4v16.96a1.491,1.491,0,0,0,1.46,1.52h21.579a1.491,1.491,0,0,0,1.46-1.52v-4.25h-8.663a2.538,2.538,0,0,1-2.481-2.59v-3.38a2.618,2.618,0,0,1,.7-1.8,2.4,2.4,0,0,1,1.481-.77,2.869,2.869,0,0,1,.295-0.01H784.5v-4.16A1.486,1.486,0,0,0,783.042,1352Zm2.482,7.13a1.454,1.454,0,0,0-.511-0.32,1.481,1.481,0,0,0-.473-0.08h-8.7a1.491,1.491,0,0,0-1.459,1.52v3.39a1.491,1.491,0,0,0,1.459,1.52h8.7a1.481,1.481,0,0,0,.473-0.08,1.454,1.454,0,0,0,.511-0.32,1.518,1.518,0,0,0,.476-1.12v-3.39A1.552,1.552,0,0,0,785.524,1359.13Zm-6.639,3.12a0.745,0.745,0,0,1-.73.76H777.67a0.745,0.745,0,0,1-.73-0.76v-0.5a0.759,0.759,0,0,1,.28-0.6,0.73,0.73,0,0,1,.45-0.17h0.485a0.754,0.754,0,0,1,.73.77v0.5h0Z" transform="translate(-760 -1352)"/>
</svg>
