<svg xmlns="http://www.w3.org/2000/svg" width="35" height="45" viewBox="0 0 35 45">
  <metadata><?xpacket begin="﻿" id="W5M0MpCehiHzreSzNTczkc9d"?>
<x:xmpmeta xmlns:x="adobe:ns:meta/" x:xmptk="Adobe XMP Core 5.6-c138 79.159824, 2016/09/14-01:09:01        ">
   <rdf:RDF xmlns:rdf="http://www.w3.org/1999/02/22-rdf-syntax-ns#">
      <rdf:Description rdf:about=""/>
   </rdf:RDF>
</x:xmpmeta>
                                                                                                    
                                                                                                    
                                                                                                    
                                                                                                    
                                                                                                    
                                                                                                    
                                                                                                    
                                                                                                    
                                                                                                    
                                                                                                    
                                                                                                    
                                                                                                    
                                                                                                    
                                                                                                    
                                                                                                    
                                                                                                    
                                                                                                    
                                                                                                    
                                                                                                    
                                                                                                    
                           
<?xpacket end="w"?></metadata>
<defs>
    <style>
      .cls-1 {
        fill: #babdbf;
        fill-rule: evenodd;
      }
    </style>
  </defs>
  <path id="icon-doc-link" class="cls-1" d="M394,1444H381a1.528,1.528,0,0,1-1-1v-12a1.794,1.794,0,0,0-1-1H360.974a0.988,0.988,0,0,0-.974.99v43.02a0.988,0.988,0,0,0,.974.99h33.052a0.988,0.988,0,0,0,.974-0.99V1445A1.687,1.687,0,0,0,394,1444Zm-11-2h12c0.006-.97-0.014-0.3,0-1l-12-11c-0.861.02-.406,0.01-1,0v11A1.243,1.243,0,0,0,383,1442Zm-11.993,20.5a0.931,0.931,0,0,0,.292.69l1.53,1.53a1.006,1.006,0,0,0,.71.27,0.942,0.942,0,0,0,.71-0.29l2.132-2.15a0.959,0.959,0,0,0,.291-0.71,1.041,1.041,0,0,0-.328-0.76c-0.024.02-.091,0.09-0.2,0.2s-0.182.18-.219,0.22a1.417,1.417,0,0,1-.2.16,1.389,1.389,0,0,1-.273.13,1.192,1.192,0,0,1-.274.03,0.943,0.943,0,0,1-.71-0.29,0.93,0.93,0,0,1-.291-0.69,1.086,1.086,0,0,1,.036-0.29,1.055,1.055,0,0,1,.128-0.27c0.072-.09.127-0.15,0.163-0.2s0.11-.11.219-0.22a1.2,1.2,0,0,1,.2-0.18,0.972,0.972,0,0,0-.746-0.35,0.984,0.984,0,0,0-.711.29l-2.167,2.17a0.959,0.959,0,0,0-.292.71h0Zm7.323-7.34a1.016,1.016,0,0,0,.346.76,1.773,1.773,0,0,1,.182-0.2c0.109-.11.182-0.18,0.218-0.22a2.421,2.421,0,0,0,.2-0.16,1.389,1.389,0,0,1,.273-0.13,1.276,1.276,0,0,1,.291-0.03,0.921,0.921,0,0,1,.692.29,0.956,0.956,0,0,1,.292.71,0.9,0.9,0,0,1-.037.27,1.068,1.068,0,0,1-.127.28,2.272,2.272,0,0,1-.164.2q-0.054.045-.219,0.21c-0.109.11-.175,0.18-0.2,0.2a1,1,0,0,0,.747.31,0.967,0.967,0,0,0,.71-0.27l2.168-2.17a0.987,0.987,0,0,0,0-1.4l-1.53-1.53a1.007,1.007,0,0,0-.711-0.27,0.943,0.943,0,0,0-.71.29l-2.131,2.15a0.959,0.959,0,0,0-.291.71h0ZM369,1462.5a2.889,2.889,0,0,1,.874-2.13l2.168-2.15a2.914,2.914,0,0,1,2.131-.88,2.957,2.957,0,0,1,2.167.92l0.911-.92a2.958,2.958,0,0,1-.911-2.18,2.894,2.894,0,0,1,.856-2.11l2.15-2.15a2.8,2.8,0,0,1,2.112-.9,2.855,2.855,0,0,1,2.113.88l1.53,1.51a2.848,2.848,0,0,1,.893,2.11,2.89,2.89,0,0,1-.875,2.13l-2.167,2.17a2.916,2.916,0,0,1-2.131.88,2.871,2.871,0,0,1-2.149-.93l-0.929.93a2.99,2.99,0,0,1,.054,4.28l-2.149,2.15a2.965,2.965,0,0,1-4.226.01l-1.53-1.51a2.8,2.8,0,0,1-.892-2.11h0Z" transform="translate(-360 -1430)"/>
</svg>
