<svg xmlns="http://www.w3.org/2000/svg" width="14" height="12" viewBox="0 0 14 12">
  <metadata><?xpacket begin="﻿" id="W5M0MpCehiHzreSzNTczkc9d"?>
<x:xmpmeta xmlns:x="adobe:ns:meta/" x:xmptk="Adobe XMP Core 5.6-c138 79.159824, 2016/09/14-01:09:01        ">
   <rdf:RDF xmlns:rdf="http://www.w3.org/1999/02/22-rdf-syntax-ns#">
      <rdf:Description rdf:about=""/>
   </rdf:RDF>
</x:xmpmeta>
                                                                                                    
                                                                                                    
                                                                                                    
                                                                                                    
                                                                                                    
                                                                                                    
                                                                                                    
                                                                                                    
                                                                                                    
                                                                                                    
                                                                                                    
                                                                                                    
                                                                                                    
                                                                                                    
                                                                                                    
                                                                                                    
                                                                                                    
                                                                                                    
                                                                                                    
                                                                                                    
                           
<?xpacket end="w"?></metadata>
<defs>
    <style>
      .cls-1 {
        fill: #3959bf;
        fill-rule: evenodd;
      }
    </style>
  </defs>
  <path id="icon-link" class="cls-1" d="M900.014,856.249a0.223,0.223,0,0,0-.082-0.178,0.244,0.244,0,0,0-.178-0.068h-0.492a0.242,0.242,0,0,0-.178.068,0.22,0.22,0,0,0-.082.178v2.5a1.24,1.24,0,0,1-.355.889,1.214,1.214,0,0,1-.889.369h-6.494a1.26,1.26,0,0,1-1.258-1.258v-6.5A1.26,1.26,0,0,1,891.264,851h5.5a0.235,0.235,0,0,0,.246-0.247v-0.506A0.233,0.233,0,0,0,896.76,850h-5.5a2.24,2.24,0,0,0-2.256,2.257v6.5a2.161,2.161,0,0,0,.656,1.586,2.184,2.184,0,0,0,1.6.671h6.494a2.29,2.29,0,0,0,2.256-2.257v-2.5h0Zm2.994-6.743A0.514,0.514,0,0,0,902.5,849H898.51a0.512,0.512,0,0,0-.506.506,0.474,0.474,0,0,0,.15.342l1.381,1.381-5.1,5.088a0.263,0.263,0,0,0-.082.192,0.246,0.246,0,0,0,.082.177l0.888,0.889a0.249,0.249,0,0,0,.178.083,0.26,0.26,0,0,0,.191-0.083l5.086-5.1,1.381,1.381a0.468,0.468,0,0,0,.342.151,0.516,0.516,0,0,0,.506-0.506v-3.994h0Z" transform="translate(-889 -849)"/>
</svg>
