<svg id="Слой_1" data-name="Слой 1" xmlns="http://www.w3.org/2000/svg" xmlns:xlink="http://www.w3.org/1999/xlink" viewBox="0 0 120 56.39"><defs><style>.cls-1{fill:url(#linear-gradient);}.cls-2{fill:#363f68;}.cls-2,.cls-3{fill-rule:evenodd;}.cls-3{fill:#102739;}.cls-4{fill:#5c6bc0;}.cls-5{fill:#b3b3b3;}</style><linearGradient id="linear-gradient" x1="101.32" y1="145.12" x2="127.55" y2="145.12" gradientUnits="userSpaceOnUse"><stop offset="0.03" stop-color="#6d70ff"/><stop offset="0.29" stop-color="#5b60ce"/><stop offset="0.62" stop-color="#474e97"/><stop offset="0.87" stop-color="#3b4375"/><stop offset="1" stop-color="#363f68"/></linearGradient></defs><title>logo</title><path class="cls-1" d="M101.32,150.45l7.15-5.26v-3.06h-7.15Zm7.15,6.3V148l-6.15,4.52Zm17.19-27.1H124v1.67h1.67Zm-2.52,1.14h-2.49v2.49h2.49Zm-8.84,21.85-.76-.76-3.2-3.18v9.36l3.58,2.52,3.58-2.52v-8.27l-2.38,2.13Zm9.2-18.23h-4.15v10.64l2.66-2.38-1.17-1.17,5.66.08v-4.8h-3Zm.78-2v3.28h3.28V132.4Zm-4.93,24.35,7.15-5v-10l-7.15,6.4Zm-9-11.28,4,4,3.1-2.78v-8.45h-7.15Z" transform="translate(-86.26 -115.69)"/><polygon class="cls-2" points="16.39 37.09 22.21 32.81 22.21 32.34 16.06 36.87 16.39 37.09"/><polygon class="cls-2" points="28.03 36.95 27.27 36.19 24.07 33.01 24.07 33.47 27.27 36.65 28.03 37.41 28.83 36.7 31.22 34.56 31.22 34.1 28.83 36.23 28.03 36.95"/><polygon class="cls-3" points="34.57 26.28 35.49 27.21 35.73 26.99 35.03 26.29 34.57 26.28"/><polygon class="cls-2" points="33.08 32.9 40.23 26.5 40.23 26.03 33.08 32.43 33.08 32.9"/><path class="cls-4" d="M114.46,172.08a28.2,28.2,0,1,1,19.94-48.13l-4.79,4.79a21.43,21.43,0,1,0,0,30.3l4.79,4.78A28,28,0,0,1,114.46,172.08Z" transform="translate(-86.26 -115.69)"/><path class="cls-5" d="M139.89,150h15.37v3.68h-19V128.79H153.8v3.68h-13.9V140a6.05,6.05,0,0,1,2.31-.81,19,19,0,0,1,2.41-.15h5.45v3.68H144.6a15.62,15.62,0,0,0-2.39.18,7.36,7.36,0,0,0-2.32.78Z" transform="translate(-86.26 -115.69)"/><path class="cls-5" d="M170.87,132.47v21.25h-3.54V132.47h-8.89v-3.68h21.22v3.68Z" transform="translate(-86.26 -115.69)"/><path class="cls-5" d="M203.35,134.74a10.35,10.35,0,0,0-3.27-2.21,10.08,10.08,0,0,0-4-.8,10.62,10.62,0,0,0-3.88.7,9.2,9.2,0,0,0-3.12,2,9.31,9.31,0,0,0-2.07,3,9.69,9.69,0,0,0-.75,3.85A8.68,8.68,0,0,0,187,145a9.1,9.1,0,0,0,2.17,3,10.29,10.29,0,0,0,3.14,1.94,10.06,10.06,0,0,0,3.74.7,9.67,9.67,0,0,0,4.48-1,10.3,10.3,0,0,0,3.44-2.83l2.24,3a13.8,13.8,0,0,1-4.53,3.31,13.95,13.95,0,0,1-10.94.17,13.1,13.1,0,0,1-7.09-7.1,13.41,13.41,0,0,1-1-5.26,12,12,0,0,1,1.09-5.1,12.85,12.85,0,0,1,2.94-4.08,13.86,13.86,0,0,1,9.41-3.66,13.31,13.31,0,0,1,5.3,1.05,13.55,13.55,0,0,1,4.29,2.89Z" transform="translate(-86.26 -115.69)"/><path class="cls-4" d="M138.8,161.35l.06.45a4,4,0,0,1-1.32.2,1.85,1.85,0,0,1-1.42-.46,2.35,2.35,0,0,1-.41-1.58,2.32,2.32,0,0,1,.42-1.57,1.85,1.85,0,0,1,1.42-.46,3.59,3.59,0,0,1,1.25.18l-.09.44q-.52,0-1,0a1.24,1.24,0,0,0-1,.31,1.77,1.77,0,0,0-.27,1.14,1.81,1.81,0,0,0,.27,1.15,1.24,1.24,0,0,0,1,.31A7.38,7.38,0,0,0,138.8,161.35Z" transform="translate(-86.26 -115.69)"/><path class="cls-4" d="M143.23,158l-1.54,4.08a2.51,2.51,0,0,1-.73,1.13,1.91,1.91,0,0,1-1.44.25l.06-.47a1.52,1.52,0,0,0,.93-.17,1.67,1.67,0,0,0,.54-.79l.07-.17H141a.24.24,0,0,1-.25-.17l-1.4-3.7h.72l1,2.88q.09.26.14.47h.11l.16-.47,1-2.88Z" transform="translate(-86.26 -115.69)"/><path class="cls-4" d="M147,158v3.87h-.67v-1.63a4.46,4.46,0,0,1-1.51.29q-1,0-1-.85V158h.67v1.45a.55.55,0,0,0,.12.4.57.57,0,0,0,.41.12,3.3,3.3,0,0,0,1.29-.27V158Z" transform="translate(-86.26 -115.69)"/><path class="cls-4" d="M148.28,158.62l-.06-.5a12,12,0,0,1,1.88-.18,1.48,1.48,0,0,1,1,.28,1.22,1.22,0,0,1,.32,1v2.73h-.53l-.08-.64a2.58,2.58,0,0,1-.7.5,2,2,0,0,1-.9.21,1.21,1.21,0,0,1-.84-.28,1,1,0,0,1-.31-.8v-.42a.89.89,0,0,1,.28-.7,1.15,1.15,0,0,1,.79-.25h1.61v-.34a.7.7,0,0,0-.17-.52.93.93,0,0,0-.61-.15Q149.38,158.51,148.28,158.62Zm.45,2v.25a.58.58,0,0,0,.15.44.64.64,0,0,0,.46.14,1.78,1.78,0,0,0,.69-.14,2.4,2.4,0,0,0,.71-.44V160h-1.49A.47.47,0,0,0,148.73,160.57Z" transform="translate(-86.26 -115.69)"/><path class="cls-4" d="M155.55,161.35l.06.45a4,4,0,0,1-1.32.2,1.85,1.85,0,0,1-1.42-.46,2.35,2.35,0,0,1-.41-1.58,2.32,2.32,0,0,1,.42-1.57,1.85,1.85,0,0,1,1.42-.46,3.59,3.59,0,0,1,1.25.18l-.09.44q-.52,0-1,0a1.25,1.25,0,0,0-1,.31,1.77,1.77,0,0,0-.27,1.14,1.81,1.81,0,0,0,.27,1.15,1.24,1.24,0,0,0,1,.31A7.39,7.39,0,0,0,155.55,161.35Z" transform="translate(-86.26 -115.69)"/><path class="cls-4" d="M159.92,158v3.87h-.67v-1.8h-2v1.8h-.67V158h.67v1.56h2V158Z" transform="translate(-86.26 -115.69)"/><path class="cls-4" d="M161.39,156.39h.32c.13,0,.2.07.2.21v.45c0,.14-.07.21-.2.21h-.32a.18.18,0,0,1-.21-.21v-.45A.18.18,0,0,1,161.39,156.39Zm.49,5.52h-.68V158h.68Z" transform="translate(-86.26 -115.69)"/><path class="cls-4" d="M167.28,160.3h-1.8a1.31,1.31,0,0,0,.33.9,1.37,1.37,0,0,0,.89.23,9.72,9.72,0,0,0,1.35-.1l.06.45a4.05,4.05,0,0,1-1.5.21,1.85,1.85,0,0,1-1.42-.47,3.18,3.18,0,0,1,0-3.15,1.77,1.77,0,0,1,1.36-.45,2,2,0,0,1,1.26.31,1.16,1.16,0,0,1,.4.95Q168.21,160.3,167.28,160.3Zm-1.81-.52h1.64q.43,0,.41-.57a.62.62,0,0,0-.21-.53,1.28,1.28,0,0,0-.74-.16,1.1,1.1,0,0,0-.85.27A1.56,1.56,0,0,0,165.47,159.78Z" transform="translate(-86.26 -115.69)"/><path class="cls-4" d="M172.44,158v3.87h-.68v-3.34h-.84a.49.49,0,0,0-.35.11.67.67,0,0,0-.15.38,11.09,11.09,0,0,1-.37,2,1.19,1.19,0,0,1-1.22.86l-.07-.52a1.06,1.06,0,0,0,.45-.19.86.86,0,0,0,.23-.35,8.87,8.87,0,0,0,.34-1.95,1.08,1.08,0,0,1,.29-.68,1,1,0,0,1,.72-.22Z" transform="translate(-86.26 -115.69)"/><path class="cls-4" d="M176,160.3h-1.8a1.31,1.31,0,0,0,.33.9,1.37,1.37,0,0,0,.89.23,9.72,9.72,0,0,0,1.35-.1l.06.45a4.05,4.05,0,0,1-1.5.21,1.85,1.85,0,0,1-1.42-.47,3.18,3.18,0,0,1,0-3.15,1.77,1.77,0,0,1,1.36-.45,2,2,0,0,1,1.26.31,1.16,1.16,0,0,1,.4.95Q177,160.3,176,160.3Zm-1.81-.52h1.64q.43,0,.41-.57a.62.62,0,0,0-.21-.53,1.28,1.28,0,0,0-.74-.16,1.1,1.1,0,0,0-.85.27A1.56,1.56,0,0,0,174.23,159.78Z" transform="translate(-86.26 -115.69)"/><path class="cls-4" d="M179.77,159.88v0a1.55,1.55,0,0,1,.38.07.83.83,0,0,1,.31.19,2.48,2.48,0,0,1,.24.25,2.06,2.06,0,0,1,.22.39c.08.18.15.34.2.47l.23.62h-.71l-.19-.49-.16-.39a2,2,0,0,0-.17-.33l-.17-.23a.58.58,0,0,0-.21-.18l-.23-.09a1,1,0,0,0-.3,0h-.57a3.44,3.44,0,0,1,0,.37v1.38H178V158h.68v1.15a2.71,2.71,0,0,1,0,.45h.54a1.1,1.1,0,0,0,.48-.1.94.94,0,0,0,.36-.34,3.19,3.19,0,0,0,.27-.47q.1-.23.27-.69h.7l-.14.37-.13.31a2.8,2.8,0,0,1-.13.29l-.13.23a.94.94,0,0,1-.14.21l-.16.15a.73.73,0,0,1-.19.13l-.21.08Z" transform="translate(-86.26 -115.69)"/><path class="cls-4" d="M185.32,158.59h-1.4v3.31h-.68v-3.31h-1.41V158h3.48Z" transform="translate(-86.26 -115.69)"/><path class="cls-4" d="M186.71,158l.06.62a2.31,2.31,0,0,1,.75-.52,2.11,2.11,0,0,1,.85-.19,1.11,1.11,0,0,1,1,.51,3,3,0,0,1,.32,1.54,2.62,2.62,0,0,1-.35,1.55,1.31,1.31,0,0,1-1.11.46,2.69,2.69,0,0,1-1.43-.4,6.12,6.12,0,0,1,0,.78v1.12h-.67V158Zm.12,1.09v2.05a4.82,4.82,0,0,0,1.24.24.83.83,0,0,0,.73-.29A2.13,2.13,0,0,0,189,160a2.37,2.37,0,0,0-.2-1.14.7.7,0,0,0-.66-.33A2.42,2.42,0,0,0,186.83,159.13Z" transform="translate(-86.26 -115.69)"/><path class="cls-4" d="M192.43,157.94a1.82,1.82,0,0,1,1.41.46,3.2,3.2,0,0,1,0,3.15,2.39,2.39,0,0,1-2.82,0,3.2,3.2,0,0,1,0-3.15A1.83,1.83,0,0,1,192.43,157.94Zm0,.57a1.06,1.06,0,0,0-.88.31,2.9,2.9,0,0,0,0,2.3,1.4,1.4,0,0,0,1.76,0,2.91,2.91,0,0,0,0-2.3A1,1,0,0,0,192.43,158.51Z" transform="translate(-86.26 -115.69)"/><path class="cls-4" d="M198.7,158v3.87H198v-1.8h-2v1.8h-.67V158H196v1.56h2V158Z" transform="translate(-86.26 -115.69)"/><path class="cls-4" d="M203.32,158v3.87h-.67v-1.8h-2v1.8H200V158h.67v1.56h2V158Z" transform="translate(-86.26 -115.69)"/><path class="cls-4" d="M204.79,156.39h.32c.13,0,.2.07.2.21v.45c0,.14-.07.21-.2.21h-.32a.18.18,0,0,1-.21-.21v-.45A.18.18,0,0,1,204.79,156.39Zm.49,5.52h-.68V158h.68Z" transform="translate(-86.26 -115.69)"/><path class="cls-4" d="M149.1,164.8h-1.4v3.31H147V164.8h-1.41v-.56h3.48Z" transform="translate(-86.26 -115.69)"/><path class="cls-4" d="M151.51,164.15a1.82,1.82,0,0,1,1.41.46,3.2,3.2,0,0,1,0,3.15,2.39,2.39,0,0,1-2.82,0,3.2,3.2,0,0,1,0-3.15A1.83,1.83,0,0,1,151.51,164.15Zm0,.57a1.06,1.06,0,0,0-.88.31,2.9,2.9,0,0,0,0,2.3,1.4,1.4,0,0,0,1.76,0,2.91,2.91,0,0,0,0-2.3A1,1,0,0,0,151.51,164.72Z" transform="translate(-86.26 -115.69)"/><path class="cls-4" d="M155,164.24l.06.62a2.31,2.31,0,0,1,.75-.52,2.11,2.11,0,0,1,.85-.19,1.11,1.11,0,0,1,1,.51,3,3,0,0,1,.32,1.54,2.62,2.62,0,0,1-.35,1.55,1.31,1.31,0,0,1-1.11.46,2.69,2.69,0,0,1-1.43-.4,6.13,6.13,0,0,1,0,.78v1.12h-.67v-5.47Zm.12,1.09v2.05a4.82,4.82,0,0,0,1.24.24.83.83,0,0,0,.73-.29,2.13,2.13,0,0,0,.21-1.13,2.37,2.37,0,0,0-.2-1.14.7.7,0,0,0-.66-.33A2.42,2.42,0,0,0,155.08,165.33Z" transform="translate(-86.26 -115.69)"/><path class="cls-4" d="M159,168.11v-3a.75.75,0,0,1,.86-.84q1.39,0,2,.06l0,.48h-1.72a.48.48,0,0,0-.36.12.5.5,0,0,0-.11.36v2.87Z" transform="translate(-86.26 -115.69)"/><path class="cls-4" d="M164.29,164.15a1.82,1.82,0,0,1,1.41.46,3.2,3.2,0,0,1,0,3.15,2.39,2.39,0,0,1-2.82,0,3.2,3.2,0,0,1,0-3.15A1.83,1.83,0,0,1,164.29,164.15Zm0,.57a1.06,1.06,0,0,0-.88.31,2.9,2.9,0,0,0,0,2.3,1.4,1.4,0,0,0,1.76,0,2.91,2.91,0,0,0,0-2.3A1,1,0,0,0,164.29,164.72Z" transform="translate(-86.26 -115.69)"/><path class="cls-4" d="M169.55,166.11v0a.9.9,0,0,1,1,1,.86.86,0,0,1-.35.79,2.43,2.43,0,0,1-1.2.21q-1.13,0-1.79,0v-3.87q.58,0,1.57,0a2.66,2.66,0,0,1,1.28.21.88.88,0,0,1,.35.82.89.89,0,0,1-.2.63A.93.93,0,0,1,169.55,166.11Zm-1.73-.23h1a1.44,1.44,0,0,0,.71-.12.5.5,0,0,0,.2-.47.45.45,0,0,0-.22-.44,1.88,1.88,0,0,0-.79-.12h-.91Zm0,.48v1.26h1.06a1.59,1.59,0,0,0,.76-.13.53.53,0,0,0,.21-.49.56.56,0,0,0-.22-.51,1.55,1.55,0,0,0-.79-.14Z" transform="translate(-86.26 -115.69)"/><path class="cls-4" d="M171.8,162.6h.32c.13,0,.2.07.2.21v.45c0,.14-.07.21-.2.21h-.32a.18.18,0,0,1-.21-.21v-.45A.18.18,0,0,1,171.8,162.6Zm.49,5.52h-.68v-3.87h.68Z" transform="translate(-86.26 -115.69)"/><path class="cls-4" d="M178.26,167.56l.06.45a4,4,0,0,1-1.32.2,1.85,1.85,0,0,1-1.42-.46,2.35,2.35,0,0,1-.41-1.58,2.32,2.32,0,0,1,.42-1.57,1.85,1.85,0,0,1,1.42-.46,3.59,3.59,0,0,1,1.25.18l-.09.44q-.52,0-1,0a1.25,1.25,0,0,0-1,.31,1.77,1.77,0,0,0-.27,1.14,1.81,1.81,0,0,0,.27,1.15,1.24,1.24,0,0,0,1,.31A7.39,7.39,0,0,0,178.26,167.56Z" transform="translate(-86.26 -115.69)"/><path class="cls-4" d="M182.66,168.11h-.61v-2.57c0-.06,0-.16,0-.28s0-.2,0-.23h0a2,2,0,0,1-.27.45l-2,2.63h-.56v-3.87h.61v2.57q0,.23,0,.52h0a2.19,2.19,0,0,1,.28-.45l2-2.64h.55Z" transform="translate(-86.26 -115.69)"/><path class="cls-4" d="M186.84,167.56l.06.45a4,4,0,0,1-1.32.2,1.85,1.85,0,0,1-1.42-.46,2.35,2.35,0,0,1-.41-1.58,2.32,2.32,0,0,1,.42-1.57,1.85,1.85,0,0,1,1.42-.46,3.59,3.59,0,0,1,1.25.18l-.09.44q-.52,0-1,0a1.25,1.25,0,0,0-1,.31,1.77,1.77,0,0,0-.27,1.14,1.81,1.81,0,0,0,.27,1.15,1.24,1.24,0,0,0,1,.31A7.39,7.39,0,0,0,186.84,167.56Z" transform="translate(-86.26 -115.69)"/><path class="cls-4" d="M190.9,164.8h-1.4v3.31h-.68V164.8h-1.41v-.56h3.48Z" transform="translate(-86.26 -115.69)"/><path class="cls-4" d="M194,166.51h-1.8a1.31,1.31,0,0,0,.33.9,1.37,1.37,0,0,0,.89.23,9.72,9.72,0,0,0,1.35-.1l.06.45a4.05,4.05,0,0,1-1.5.21,1.85,1.85,0,0,1-1.42-.47,3.18,3.18,0,0,1,0-3.15,1.77,1.77,0,0,1,1.36-.45,2,2,0,0,1,1.26.31,1.16,1.16,0,0,1,.4.95Q194.93,166.51,194,166.51Zm-1.81-.52h1.64q.43,0,.41-.57a.62.62,0,0,0-.21-.53,1.28,1.28,0,0,0-.74-.16,1.1,1.1,0,0,0-.85.27A1.56,1.56,0,0,0,192.19,166Z" transform="translate(-86.26 -115.69)"/><path class="cls-4" d="M199.6,164.24h.71a.22.22,0,0,1,.25.25l.17,3.62h-.63l-.15-3.35h-.13l-1,2.71a.27.27,0,0,1-.27.22H198a.27.27,0,0,1-.27-.22l-1-2.71h-.14l-.14,3.35h-.62l.16-3.62a.23.23,0,0,1,.26-.25h.7a.26.26,0,0,1,.26.22l.8,2.23q.08.22.17.56h.13q.11-.39.17-.56l.8-2.23A.27.27,0,0,1,199.6,164.24Z" transform="translate(-86.26 -115.69)"/><path class="cls-4" d="M205.31,168.11h-.61v-2.57c0-.06,0-.16,0-.28s0-.2,0-.23h0a2,2,0,0,1-.27.45l-2,2.63h-.56v-3.87h.61v2.57q0,.23,0,.52h0a2.19,2.19,0,0,1,.28-.45l2-2.64h.55Z" transform="translate(-86.26 -115.69)"/></svg>