<svg xmlns="http://www.w3.org/2000/svg" width="18.35" height="15.813" viewBox="0 0 18.35 15.813">
  <metadata><?xpacket begin="﻿" id="W5M0MpCehiHzreSzNTczkc9d"?>
<x:xmpmeta xmlns:x="adobe:ns:meta/" x:xmptk="Adobe XMP Core 5.6-c138 79.159824, 2016/09/14-01:09:01        ">
   <rdf:RDF xmlns:rdf="http://www.w3.org/1999/02/22-rdf-syntax-ns#">
      <rdf:Description rdf:about=""/>
   </rdf:RDF>
</x:xmpmeta>
                                                                                                    
                                                                                                    
                                                                                                    
                                                                                                    
                                                                                                    
                                                                                                    
                                                                                                    
                                                                                                    
                                                                                                    
                                                                                                    
                                                                                                    
                                                                                                    
                                                                                                    
                                                                                                    
                                                                                                    
                                                                                                    
                                                                                                    
                                                                                                    
                                                                                                    
                                                                                                    
                           
<?xpacket end="w"?></metadata>
<defs>
    <style>
      .cls-1 {
        fill: #bcbcbc;
        fill-rule: evenodd;
      }
    </style>
  </defs>
  <path id="password-off" class="cls-1" d="M2335.5,779.156V779a2.531,2.531,0,0,0-2.5-2.5h-0.12Zm-4.92-.7A2.5,2.5,0,0,0,2333,781.5a2.308,2.308,0,0,0,.55-0.078l1.29,1.289a4.123,4.123,0,0,1-1.84.469,4.2,4.2,0,0,1-4.18-4.18,4.123,4.123,0,0,1,.47-1.836Zm-4.94-4.922c0.56,0.573.99,1.016,1.31,1.328a10.019,10.019,0,0,0-3.13,4.141,9.8,9.8,0,0,0,9.18,6.25,9.3,9.3,0,0,0,3.63-.7c0.37,0.365.89,0.885,1.58,1.562s1.1,1.081,1.24,1.211l1.05-1.054L2325.73,771.5l-1.05,1.055Q2324.8,772.672,2325.64,773.531Zm10.31,2.52a4.023,4.023,0,0,1,1.23,2.949,3.853,3.853,0,0,1-.31,1.523l2.42,2.422a10.181,10.181,0,0,0,2.85-3.945,9.669,9.669,0,0,0-3.57-4.531,9.565,9.565,0,0,0-5.57-1.719,9.173,9.173,0,0,0-3.32.586l1.8,1.8a3.866,3.866,0,0,1,1.52-.313A4.015,4.015,0,0,1,2335.95,776.051Z" transform="translate(-2323.81 -771.5)"/>
</svg>
