<svg xmlns="http://www.w3.org/2000/svg" width="24" height="24" viewBox="0 0 24 24">
  <metadata><?xpacket begin="﻿" id="W5M0MpCehiHzreSzNTczkc9d"?>
<x:xmpmeta xmlns:x="adobe:ns:meta/" x:xmptk="Adobe XMP Core 5.6-c138 79.159824, 2016/09/14-01:09:01        ">
   <rdf:RDF xmlns:rdf="http://www.w3.org/1999/02/22-rdf-syntax-ns#">
      <rdf:Description rdf:about=""/>
   </rdf:RDF>
</x:xmpmeta>
                                                                                                    
                                                                                                    
                                                                                                    
                                                                                                    
                                                                                                    
                                                                                                    
                                                                                                    
                                                                                                    
                                                                                                    
                                                                                                    
                                                                                                    
                                                                                                    
                                                                                                    
                                                                                                    
                                                                                                    
                                                                                                    
                                                                                                    
                                                                                                    
                                                                                                    
                                                                                                    
                           
<?xpacket end="w"?></metadata>
<defs>
    <style>
      .cls-1 {
        fill: #5c6bc0;
        fill-rule: evenodd;
      }
    </style>
  </defs>
  <path id="play-circle" class="cls-1" d="M642,611a12,12,0,1,1,12-12A12.014,12.014,0,0,1,642,611Zm0-22a10,10,0,1,0,10,10A10.011,10.011,0,0,0,642,589Zm-3,15a1,1,0,0,1-1-1v-8a1,1,0,0,1,1.447-.894l8,4a1,1,0,0,1,0,1.789l-8,4A0.992,0.992,0,0,1,639,604Zm1-7.382v4.764L644.764,599Z" transform="translate(-630 -587)"/>
</svg>
