<svg xmlns="http://www.w3.org/2000/svg" width="24" height="24" viewBox="0 0 24 24">
  <metadata><?xpacket begin="﻿" id="W5M0MpCehiHzreSzNTczkc9d"?>
<x:xmpmeta xmlns:x="adobe:ns:meta/" x:xmptk="Adobe XMP Core 5.6-c138 79.159824, 2016/09/14-01:09:01        ">
   <rdf:RDF xmlns:rdf="http://www.w3.org/1999/02/22-rdf-syntax-ns#">
      <rdf:Description rdf:about=""/>
   </rdf:RDF>
</x:xmpmeta>
                                                                                                    
                                                                                                    
                                                                                                    
                                                                                                    
                                                                                                    
                                                                                                    
                                                                                                    
                                                                                                    
                                                                                                    
                                                                                                    
                                                                                                    
                                                                                                    
                                                                                                    
                                                                                                    
                                                                                                    
                                                                                                    
                                                                                                    
                                                                                                    
                                                                                                    
                                                                                                    
                           
<?xpacket end="w"?></metadata>
<defs>
    <style>
      .cls-1 {
        fill: #ccc;
        fill-rule: evenodd;
      }
    </style>
  </defs>
  <path id="question" class="cls-1" d="M2784,1741a12,12,0,1,1,12-12A12.01,12.01,0,0,1,2784,1741Zm0-22a10,10,0,1,0,10,10A10.016,10.016,0,0,0,2784,1719Zm0,13.93a0.992,0.992,0,0,1-1-.9,5.24,5.24,0,0,1,2.13-4.24,1.982,1.982,0,0,0,.87-1.74,2.064,2.064,0,0,0-2-2.11,1.956,1.956,0,0,0-2,2,1,1,0,1,1-2,0,3.961,3.961,0,0,1,4-4,4.062,4.062,0,0,1,4,4.11,3.928,3.928,0,0,1-1.61,3.29,3.246,3.246,0,0,0-1.39,2.53,1,1,0,0,1-.93,1.06H2784Zm-0.01,3.07c-0.05,0-.11-0.01-0.17-0.01a1.014,1.014,0,0,1,.34-2,0.975,0.975,0,0,1,.83,1.12l-0.01.06A1.006,1.006,0,0,1,2783.99,1736Z" transform="translate(-2772 -1717)"/>
</svg>
