<svg xmlns="http://www.w3.org/2000/svg" width="23.719" height="20" viewBox="0 0 23.719 20">
  <metadata><?xpacket begin="﻿" id="W5M0MpCehiHzreSzNTczkc9d"?>
<x:xmpmeta xmlns:x="adobe:ns:meta/" x:xmptk="Adobe XMP Core 5.6-c138 79.159824, 2016/09/14-01:09:01        ">
   <rdf:RDF xmlns:rdf="http://www.w3.org/1999/02/22-rdf-syntax-ns#">
      <rdf:Description rdf:about=""/>
   </rdf:RDF>
</x:xmpmeta>
                                                                                                    
                                                                                                    
                                                                                                    
                                                                                                    
                                                                                                    
                                                                                                    
                                                                                                    
                                                                                                    
                                                                                                    
                                                                                                    
                                                                                                    
                                                                                                    
                                                                                                    
                                                                                                    
                                                                                                    
                                                                                                    
                                                                                                    
                                                                                                    
                                                                                                    
                                                                                                    
                           
<?xpacket end="w"?></metadata>
<defs>
    <style>
      .cls-1 {
        fill: #bcbcbc;
        fill-rule: evenodd;
      }
    </style>
  </defs>
  <path id="refresh-2" class="cls-1" d="M736.772,1528a0.987,0.987,0,0,1-.886-0.55l-1.536-3.11-3.072,1.55a0.982,0.982,0,0,1-1.327-.44,1,1,0,0,1,.442-1.34l3.957-2a0.982,0.982,0,0,1,1.327.44l1.979,4a1,1,0,0,1-.443,1.34A0.883,0.883,0,0,1,736.772,1528Zm-10.882,4a10.282,10.282,0,0,1-9.85-7.19,1,1,0,0,1,.66-1.25,0.989,0.989,0,0,1,1.233.67,8.283,8.283,0,0,0,7.957,5.77,7.776,7.776,0,0,0,7.857-7.04,0.989,0.989,0,1,1,1.964.24A9.828,9.828,0,0,1,725.89,1532Zm-8.9-10a0.985,0.985,0,0,1-.885-0.55l-1.979-4a1,1,0,0,1,.443-1.34,0.982,0.982,0,0,1,1.327.44l1.536,3.11,3.072-1.55a0.982,0.982,0,0,1,1.327.44,1,1,0,0,1-.442,1.34l-3.957,2A0.886,0.886,0,0,1,716.987,1522Zm0.065-.08a0.507,0.507,0,0,1-.122-0.01,1,1,0,0,1-.862-1.11,9.826,9.826,0,0,1,9.822-8.8,10.284,10.284,0,0,1,9.849,7.19,1,1,0,0,1-.66,1.25,0.988,0.988,0,0,1-1.233-.67,8.283,8.283,0,0,0-7.956-5.77,7.766,7.766,0,0,0-7.858,7.04A0.991,0.991,0,0,1,717.052,1521.92Z" transform="translate(-714.031 -1512)"/>
</svg>
