<svg xmlns="http://www.w3.org/2000/svg" width="20" height="24" viewBox="0 0 20 24">
  <metadata><?xpacket begin="﻿" id="W5M0MpCehiHzreSzNTczkc9d"?>
<x:xmpmeta xmlns:x="adobe:ns:meta/" x:xmptk="Adobe XMP Core 5.6-c138 79.159824, 2016/09/14-01:09:01        ">
   <rdf:RDF xmlns:rdf="http://www.w3.org/1999/02/22-rdf-syntax-ns#">
      <rdf:Description rdf:about=""/>
   </rdf:RDF>
</x:xmpmeta>
                                                                                                    
                                                                                                    
                                                                                                    
                                                                                                    
                                                                                                    
                                                                                                    
                                                                                                    
                                                                                                    
                                                                                                    
                                                                                                    
                                                                                                    
                                                                                                    
                                                                                                    
                                                                                                    
                                                                                                    
                                                                                                    
                                                                                                    
                                                                                                    
                                                                                                    
                                                                                                    
                           
<?xpacket end="w"?></metadata>
<defs>
    <style>
      .cls-1 {
        fill: #5c6bc0;
        fill-rule: evenodd;
      }
    </style>
  </defs>
  <path id="trash" class="cls-1" d="M989,611h-8a2.14,2.14,0,0,1-2.1-1.885l-1.875-17.006a1,1,0,0,1,1.988-.219l1.876,17.006a0.159,0.159,0,0,0,.115.1h8a0.164,0.164,0,0,0,.117-0.106l1.905-17.006a1,1,0,0,1,1.987.223l-1.9,17.006A2.143,2.143,0,0,1,989,611Zm5-18H976a1,1,0,0,1,0-2h18A1,1,0,0,1,994,593Zm-6,0a1,1,0,0,1-1-1v-2a1,1,0,0,0-1-1h-2a1,1,0,0,0-1,1v2a1,1,0,0,1-2,0v-2a3,3,0,0,1,3-3h2a3,3,0,0,1,3,3v2A1,1,0,0,1,988,593Z" transform="translate(-975 -587)"/>
</svg>
