<svg xmlns="http://www.w3.org/2000/svg" width="20.94" height="11.94" viewBox="0 0 20.94 11.94">
  <metadata><?xpacket begin="﻿" id="W5M0MpCehiHzreSzNTczkc9d"?>
<x:xmpmeta xmlns:x="adobe:ns:meta/" x:xmptk="Adobe XMP Core 5.6-c138 79.159824, 2016/09/14-01:09:01        ">
   <rdf:RDF xmlns:rdf="http://www.w3.org/1999/02/22-rdf-syntax-ns#">
      <rdf:Description rdf:about=""/>
   </rdf:RDF>
</x:xmpmeta>
                                                                                                    
                                                                                                    
                                                                                                    
                                                                                                    
                                                                                                    
                                                                                                    
                                                                                                    
                                                                                                    
                                                                                                    
                                                                                                    
                                                                                                    
                                                                                                    
                                                                                                    
                                                                                                    
                                                                                                    
                                                                                                    
                                                                                                    
                                                                                                    
                                                                                                    
                                                                                                    
                           
<?xpacket end="w"?></metadata>
<defs>
    <style>
      .cls-1 {
        fill: #5c6bc0;
        fill-rule: evenodd;
      }
    </style>
  </defs>
  <path id="vk-2" class="cls-1" d="M1467.17,3703.44s-0.15-.44-1.1-0.32l-3.14.02a0.727,0.727,0,0,0-.41.07,0.677,0.677,0,0,0-.27.34,19.213,19.213,0,0,1-1.17,2.45c-1.39,2.38-1.96,2.51-2.19,2.35-0.53-.33-0.39-1.37-0.39-2.11,0-2.31.35-3.27-.69-3.52a5.542,5.542,0,0,0-1.47-.14,6.837,6.837,0,0,0-2.6.26c-0.36.17-.63,0.57-0.47,0.59a1.407,1.407,0,0,1,.92.47,3.068,3.068,0,0,1,.32,1.42c0.12,2.72-.44,3.06-0.44,3.06-0.42.22-1.16-.16-2.25-2.4a21.541,21.541,0,0,1-1.12-2.34,0.84,0.84,0,0,0-.26-0.34,1.093,1.093,0,0,0-.48-0.2l-2.99.02a0.772,0.772,0,0,0-.62.21,0.493,0.493,0,0,0-.01.53,28.753,28.753,0,0,0,4.99,8.23s2.43,2.54,5.19,2.37h1.25a0.939,0.939,0,0,0,.58-0.24,0.868,0.868,0,0,0,.16-0.56c-0.02-1.68.76-1.93,0.76-1.93,0.77-.24,1.75,1.63,2.79,2.35a2.35,2.35,0,0,0,1.4.42l2.79-.04a0.764,0.764,0,0,0,.77-1.23,9,9,0,0,0-2.08-2.41c-1.74-1.63-1.51-1.36.6-4.18C1466.83,3704.93,1467.34,3703.88,1467.17,3703.44Z" transform="translate(-1446.28 -3702.56)"/>
</svg>
