<svg xmlns="http://www.w3.org/2000/svg" width="20.94" height="11.937" viewBox="0 0 20.94 11.937">
  <metadata><?xpacket begin="﻿" id="W5M0MpCehiHzreSzNTczkc9d"?>
<x:xmpmeta xmlns:x="adobe:ns:meta/" x:xmptk="Adobe XMP Core 5.6-c138 79.159824, 2016/09/14-01:09:01        ">
   <rdf:RDF xmlns:rdf="http://www.w3.org/1999/02/22-rdf-syntax-ns#">
      <rdf:Description rdf:about=""/>
   </rdf:RDF>
</x:xmpmeta>
                                                                                                    
                                                                                                    
                                                                                                    
                                                                                                    
                                                                                                    
                                                                                                    
                                                                                                    
                                                                                                    
                                                                                                    
                                                                                                    
                                                                                                    
                                                                                                    
                                                                                                    
                                                                                                    
                                                                                                    
                                                                                                    
                                                                                                    
                                                                                                    
                                                                                                    
                                                                                                    
                           
<?xpacket end="w"?></metadata>
<defs>
    <style>
      .cls-1 {
        fill: #fff;
        fill-rule: evenodd;
      }
    </style>
  </defs>
  <path id="vk" class="cls-1" d="M1467.18,101.438s-0.15-.436-1.1-0.316l-3.14.021a0.7,0.7,0,0,0-.41.066,0.657,0.657,0,0,0-.28.338,20.208,20.208,0,0,1-1.16,2.452c-1.4,2.377-1.97,2.507-2.19,2.355-0.54-.338-0.4-1.373-0.4-2.115,0-2.311.35-3.27-.68-3.521a5.81,5.81,0,0,0-1.48-.141,6.773,6.773,0,0,0-2.6.261c-0.36.174-.63,0.567-0.47,0.589a1.444,1.444,0,0,1,.93.469,3.217,3.217,0,0,1,.31,1.427c0.12,2.715-.43,3.053-0.43,3.053-0.43.228-1.17-.153-2.26-2.4a21.972,21.972,0,0,1-1.12-2.332,0.83,0.83,0,0,0-.26-0.349,1.158,1.158,0,0,0-.48-0.2l-2.99.022a0.777,0.777,0,0,0-.62.207,0.5,0.5,0,0,0-.01.534,28.889,28.889,0,0,0,4.99,8.23s2.43,2.54,5.19,2.365h1.25a0.962,0.962,0,0,0,.58-0.239,0.853,0.853,0,0,0,.16-0.556c-0.02-1.679.77-1.93,0.77-1.93,0.76-.239,1.74,1.624,2.79,2.344a2.3,2.3,0,0,0,1.39.425l2.79-.044a0.769,0.769,0,0,0,.78-1.232,9.594,9.594,0,0,0-2.08-2.409c-1.75-1.624-1.52-1.362.59-4.175C1466.83,102.931,1467.34,101.885,1467.18,101.438Z" transform="translate(-1446.28 -100.563)"/>
</svg>
