<?xml version="1.0" encoding="UTF-8" standalone="no"?>
<!-- Created with Inkscape (http://www.inkscape.org/) -->

<svg
   xmlns:dc="http://purl.org/dc/elements/1.1/"
   xmlns:cc="http://creativecommons.org/ns#"
   xmlns:rdf="http://www.w3.org/1999/02/22-rdf-syntax-ns#"
   xmlns:svg="http://www.w3.org/2000/svg"
   xmlns="http://www.w3.org/2000/svg"
   xmlns:sodipodi="http://sodipodi.sourceforge.net/DTD/sodipodi-0.dtd"
   xmlns:inkscape="http://www.inkscape.org/namespaces/inkscape"
   id="svg2"
   version="1.1"
   inkscape:version="0.91 r"
   xml:space="preserve"
   width="6183.0664"
   height="2078.9558"
   viewBox="0 0 6183.0664 2078.9558"
   sodipodi:docname="logo.min.svg"><metadata
     id="metadata8"><rdf:RDF><cc:Work
         rdf:about=""><dc:format>image/svg+xml</dc:format><dc:type
           rdf:resource="http://purl.org/dc/dcmitype/StillImage" /><dc:title></dc:title></cc:Work></rdf:RDF></metadata><defs
     id="defs6" /><sodipodi:namedview
     pagecolor="#ffffff"
     bordercolor="#666666"
     borderopacity="1"
     objecttolerance="10"
     gridtolerance="10"
     guidetolerance="10"
     inkscape:pageopacity="0"
     inkscape:pageshadow="2"
     inkscape:window-width="1366"
     inkscape:window-height="721"
     id="namedview4"
     showgrid="false"
     fit-margin-top="0"
     fit-margin-left="0"
     fit-margin-right="0"
     fit-margin-bottom="0"
     inkscape:showpageshadow="false"
     inkscape:zoom="0.078495817"
     inkscape:cx="750.12083"
     inkscape:cy="631.86742"
     inkscape:window-x="0"
     inkscape:window-y="23"
     inkscape:window-maximized="1"
     inkscape:current-layer="g10" /><g
     id="g10"
     inkscape:groupmode="layer"
     inkscape:label="UUB stend3 UKR"
     transform="matrix(1.25,0,0,-1.25,-2578.9624,7411.111)"><g
       id="g4192"><path
         inkscape:connector-curvature="0"
         id="path12"
         style="fill:#f0f0f0;fill-opacity:1;stroke:none;stroke-width:26.90189934;stroke-linecap:round;stroke-linejoin:round;stroke-miterlimit:22.92560005;stroke-dasharray:none;stroke-opacity:1"
         d="m 3058.4595,5894.2735 468.5776,-799.2978 468.5713,-799.292 17.5625,-29.9595 -37.8555,0 -937.1484,0 -937.1416,0 -37.8555,0 17.563,29.9595 468.5708,799.292 468.5713,799.2978 20.292,34.6153 20.2925,-34.6153 0,0 m 427.9926,-818.2026 -448.2846,764.6831 -448.2788,-764.6831 -451.0078,-769.333 899.2861,0 899.293,0 -451.0079,769.333 z" /><path
         inkscape:connector-curvature="0"
         id="path14"
         style="fill:#f0f0f0;fill-opacity:1;fill-rule:evenodd;stroke:none"
         d="m 3058.4595,5894.2735 468.5776,-799.2978 468.5713,-799.292 17.5625,-29.9595 -37.8555,0 -937.145,0 0,41.0137 899.2896,0 -451.0079,769.333 -448.2817,764.6777 0,88.1343 20.2891,-34.6094 m -20.2891,-1628.5493 0,0 -937.1416,0 -37.8555,0 17.563,29.9595 468.5708,799.292 468.5713,799.2978 20.292,34.6153 0,-0.01 0,-88.1343 0,0.01 -448.2788,-764.6831 -451.0078,-769.333 899.2861,0 0,0 0,-41.0137 z" /><path
         inkscape:connector-curvature="0"
         id="path16"
         style="fill:#f0f0f0;fill-opacity:1;stroke:none;stroke-width:23.99729919;stroke-linecap:butt;stroke-linejoin:round;stroke-miterlimit:22.92560005;stroke-dasharray:none;stroke-opacity:1"
         d="m 2825.6419,5271.9723 429.4722,0 c 59.3462,0 89.8222,3.791 91.4218,11.3784 1.6128,7.5879 30.083,11.3852 85.4175,11.3852 12.0288,0 21.6524,-4.9096 28.8696,-14.7285 7.2178,-9.8188 10.8301,-22.3159 10.8301,-37.4917 0,-8.0351 -2.4062,-18.7485 -7.2177,-32.1347 -8.024,-23.2105 -13.6353,-39.4986 -16.8477,-48.8702 -3.2051,-9.3711 -6.8106,-22.3159 -10.8232,-38.8276 -4.0118,-16.5176 -7.2168,-37.4912 -9.6231,-62.9331 -2.4058,-25.436 -4.4121,-41.73 -6.0176,-48.8701 -4.8047,-18.7432 -14.8349,-28.1143 -30.0761,-28.1143 -14.4288,0 -24.4585,8.0293 -30.0704,24.0996 -1.6054,4.4619 -4.4111,15.1753 -8.4233,32.1348 -18.4468,74.977 -43.7119,125.4131 -75.7876,151.2964 -20.8525,16.959 -51.3286,25.4414 -91.4287,25.4414 l -27.6699,0 -45.711,0 0,-334.062 c 26.4639,-27.4492 65.9605,-51.772 118.4956,-73.1934 52.5289,-21.2036 100.0494,-31.9111 142.5542,-31.9111 l 49.3233,0 c 4.8115,0 12.0293,0 21.6523,0 18.4473,0 32.2793,-5.8042 41.5025,-17.4068 9.2236,-11.602 13.8388,-35.0366 13.8388,-70.7382 l 0,-260.1978 c 0,-35.708 -3.2124,-58.689 -9.6303,-69.4023 -9.6162,-16.0645 -31.6758,-24.0996 -66.1636,-24.0996 l -597.8877,0 0,56.2343 99.8452,0 0,824.7769 -99.8452,0 0,56.2344 0,0 m 286.3149,-881.0113 147.9688,0 c 20.0532,0 33.8784,5.8042 41.5024,17.4063 7.6177,11.6025 11.4331,35.7021 11.4331,72.2988 l 0,151.3023 c 0,20.5263 -2.4126,35.0366 -7.2246,43.5131 -4.8115,8.4825 -19.6465,20.3091 -44.5112,35.4844 -38.4937,23.2046 -66.564,41.5059 -84.2109,54.8921 -25.6578,19.6372 -47.3169,40.6172 -64.9576,62.9331 l 0,-437.8301 z" /><path
         inkscape:connector-curvature="0"
         id="path18"
         style="fill:#f0f0f0;fill-opacity:1;fill-rule:evenodd;stroke:none"
         d="m 3212.409,5271.9723 42.7051,0 c 59.3462,0 89.8222,3.791 91.4218,11.3784 1.6128,7.5879 30.083,11.3852 85.4175,11.3852 12.0288,0 21.6524,-4.9096 28.8696,-14.7285 7.2178,-9.8188 10.8301,-22.3159 10.8301,-37.4917 0,-8.0351 -2.4062,-18.7485 -7.2177,-32.1347 -8.024,-23.2105 -13.6353,-39.4986 -16.8477,-48.8702 -3.2051,-9.3711 -6.8106,-22.3159 -10.8232,-38.8276 -4.0118,-16.5176 -7.2168,-37.4912 -9.6231,-62.9331 -2.4058,-25.436 -4.4121,-41.73 -6.0176,-48.8701 -4.8047,-18.7432 -14.8349,-28.1143 -30.0761,-28.1143 -14.4288,0 -24.4585,8.0293 -30.0704,24.0996 -1.6054,4.4619 -4.4111,15.1753 -8.4233,32.1348 -18.4468,74.977 -43.7119,125.4131 -75.7876,151.2964 -15.8745,12.9106 -37.3281,20.9077 -64.3574,23.9902 l 0,57.6856 0,0 m 0,-455.7876 c 5.834,-2.6075 11.8467,-5.1753 18.0434,-7.7022 52.5289,-21.2036 100.0494,-31.9111 142.5542,-31.9111 l 49.3233,0 c 4.8115,0 12.0293,0 21.6523,0 18.4473,0 32.2793,-5.8042 41.5025,-17.4068 9.2236,-11.602 13.8388,-35.0366 13.8388,-70.7382 l 0,-260.1978 c 0,-35.708 -3.2124,-58.689 -9.6303,-69.4023 -9.6162,-16.0645 -31.6758,-24.0996 -66.1636,-24.0996 l -211.1206,0 0,56.2343 47.5166,0 c 20.0532,0 33.8784,5.8042 41.5024,17.4063 7.6177,11.6025 11.4331,35.7021 11.4331,72.2988 l 0,151.3023 c 0,20.5263 -2.4126,35.0366 -7.2246,43.5131 -4.8115,8.4825 -19.6465,20.3091 -44.5112,35.4844 -18.6987,11.272 -34.937,21.3862 -48.7163,30.3428 l 0,74.876 m -386.7671,455.7876 386.7671,0 0,-57.6856 c -8.4756,0.9668 -17.4981,1.4512 -27.0713,1.4512 l -27.6699,0 -45.711,0 0,-334.062 c 23.3428,-24.211 56.8267,-45.9898 100.4522,-65.4912 l 0,-74.876 c -14.5879,9.4819 -26.4199,17.6655 -35.4946,24.5493 -25.6578,19.6372 -47.3169,40.6172 -64.9576,62.9331 l 0,-437.8301 100.4522,0 0,-56.2343 -386.7671,0 0,56.2343 99.8452,0 0,824.7769 -99.8452,0 0,56.2344 z" /><path
         inkscape:connector-curvature="0"
         id="path20"
         style="fill:#f0f0f0;fill-opacity:1;stroke:none;stroke-width:23.99749947;stroke-linecap:butt;stroke-linejoin:round;stroke-miterlimit:22.92560005;stroke-dasharray:none;stroke-opacity:1"
         d="m 2811.5594,4490.7506 -55.1309,0 -5.3066,-47.6548 0,-27.8481 c 0,-12.7872 1.0635,-23.6158 3.1787,-32.4917 2.1279,-8.8692 5.3057,-19.2867 9.542,-31.252 1.416,-4.123 2.1211,-7.0132 2.1211,-8.6636 0,-1.2397 0,-3.5068 0,-6.8081 l -100.7198,-4.3291 c 0,16.917 1.4161,36.4097 4.2491,58.4839 2.8257,22.0679 6.3564,42.1831 10.5927,60.3394 l 8.4844,40.2241 -96.4844,0 -168.5776,407.2134 -43.4614,0 0,25.9917 285.1972,0 0,-25.9917 -73.1582,0 132.5313,-329.854 c 21.1982,58.1748 42.5937,112.9399 64.1445,164.3071 21.5576,51.3672 39.4014,89.9409 53.5449,115.7275 14.1368,25.7862 28.626,44.4561 43.4678,56.0103 24.0313,18.9785 55.4903,28.4648 94.3628,28.4648 14.1372,0 31.4453,-1.6504 51.9458,-4.9516 20.5005,-3.295 33.5801,-7.4243 39.2324,-12.376 -1.417,-4.1235 -2.4736,-6.9111 -3.1787,-8.356 -0.7119,-1.4389 -2.8261,-4.8427 -6.3701,-10.2055 -4.9409,-5.7798 -8.2954,-12.7935 -10.0644,-21.0464 -1.7754,-8.2466 -2.6563,-23.3076 -2.6563,-45.1758 l -15.8984,0 -19.0913,5.5684 c -11.3111,3.7119 -18.0201,5.7797 -20.1412,6.1909 -7.7734,2.062 -15.5468,3.0957 -23.3198,3.0957 -33.2275,0 -63.2632,-15.6773 -90.1206,-47.0381 -19.084,-22.2798 -37.4702,-55.6963 -55.1377,-100.2554 -0.7051,-0.8227 -11.3105,-30.5268 -31.7978,-89.1128 -5.6582,-14.8554 -11.1348,-29.5049 -16.441,-43.9428 -5.2993,-14.438 -11.4868,-30.5328 -18.5483,-48.2715 l 53.0098,0 0,-25.9922 z" /><path
         inkscape:connector-curvature="0"
         id="path22"
         style="fill:#f0f0f0;fill-opacity:1;fill-rule:evenodd;stroke:none"
         d="m 2811.5594,4490.7506 -55.1309,0 -5.3066,-47.6548 0,-27.8481 c 0,-12.7872 1.0635,-23.6158 3.1787,-32.4917 2.1279,-8.8692 5.3057,-19.2867 9.542,-31.252 1.416,-4.123 2.1211,-7.0132 2.1211,-8.6636 0,-1.2397 0,-3.5068 0,-6.8081 l -100.7198,-4.3291 c 0,16.917 1.4161,36.4097 4.2491,58.4839 2.8257,22.0679 6.3564,42.1831 10.5927,60.3394 l 8.4844,40.2241 -96.4844,0 -168.5776,407.2134 -43.4614,0 0,25.9917 285.1972,0 0,-25.9917 -73.1582,0 132.5313,-329.854 c 21.1982,58.1748 42.5937,112.9399 64.1445,164.3071 21.5576,51.3672 39.4014,89.9409 53.5449,115.7275 14.1368,25.7862 28.626,44.4561 43.4678,56.0103 24.0313,18.9785 55.4903,28.4648 94.3628,28.4648 14.1372,0 31.4453,-1.6504 51.9458,-4.9516 20.5005,-3.295 33.5801,-7.4243 39.2324,-12.376 -1.417,-4.1235 -2.4736,-6.9111 -3.1787,-8.356 -0.7119,-1.4389 -2.8261,-4.8427 -6.3701,-10.2055 -4.9409,-5.7798 -8.2954,-12.7935 -10.0644,-21.0464 -1.7754,-8.2466 -2.6563,-23.3076 -2.6563,-45.1758 l -15.8984,0 -19.0913,5.5684 c -11.3111,3.7119 -18.0201,5.7797 -20.1412,6.1909 -7.7734,2.062 -15.5468,3.0957 -23.3198,3.0957 -33.2275,0 -63.2632,-15.6773 -90.1206,-47.0381 -19.084,-22.2798 -37.4702,-55.6963 -55.1377,-100.2554 -0.7051,-0.8227 -11.3105,-30.5268 -31.7978,-89.1128 -5.6582,-14.8554 -11.1348,-29.5049 -16.441,-43.9428 -5.2993,-14.438 -11.4868,-30.5328 -18.5483,-48.2715 l 53.0098,0 0,-25.9922 z" /><path
         inkscape:connector-curvature="0"
         id="path24"
         style="fill:#f0f0f0;fill-opacity:1;stroke:none;stroke-width:23.99729919;stroke-linecap:butt;stroke-linejoin:round;stroke-miterlimit:22.92560005;stroke-dasharray:none;stroke-opacity:1"
         d="m 3546.0037,4483.0118 55.1309,0 5.3061,-47.6553 0,-27.8476 c 0,-12.7876 -1.0639,-23.6162 -3.1782,-32.4917 -2.1279,-8.8696 -5.3066,-19.2866 -9.542,-31.252 -1.4165,-4.1235 -2.1211,-7.0131 -2.1211,-8.664 0,-1.2393 0,-3.5069 0,-6.8076 l 100.7197,-4.3291 c 0,16.9169 -1.4165,36.4091 -4.249,58.4838 -2.8262,22.0679 -6.3569,42.1831 -10.5928,60.3394 l -8.4848,40.2241 96.4844,0 168.5776,407.2129 43.4609,0 0,25.9922 -285.1963,0 0,-25.9922 73.1578,0 -132.5313,-329.854 c -21.1987,58.1753 -42.5933,112.9404 -64.144,164.3076 -21.5577,51.3672 -39.4014,89.9409 -53.5454,115.7271 -14.1368,25.7866 -28.626,44.4565 -43.4673,56.0107 -24.0313,18.9785 -55.4903,28.4649 -94.3633,28.4649 -14.1372,0 -31.4453,-1.6504 -51.9458,-4.9517 -20.5005,-3.2949 -33.5801,-7.4248 -39.2319,-12.3765 1.416,-4.123 2.4736,-6.9106 3.1787,-8.3554 0.7109,-1.439 2.8252,-4.8428 6.3701,-10.2056 4.9404,-5.7803 8.2949,-12.7935 10.0635,-21.0464 1.7753,-8.2466 2.6567,-23.3076 2.6567,-45.1763 l 15.8989,0 19.0908,5.5684 c 11.3106,3.7124 18.0196,5.7803 20.1416,6.1914 7.773,2.0615 15.5459,3.0957 23.3194,3.0957 33.2275,0 63.2632,-15.6777 90.1206,-47.0381 19.084,-22.2798 37.4702,-55.6963 55.1377,-100.2558 0.7046,-0.8223 11.311,-30.5264 31.7973,-89.1128 5.6592,-14.855 11.1348,-29.5044 16.4414,-43.9424 5.2999,-14.438 11.4869,-30.5327 18.5484,-48.272 l -53.0093,0 0,-25.9917 z" /><path
         inkscape:connector-curvature="0"
         id="path26"
         style="fill:#f0f0f0;fill-opacity:1;fill-rule:evenodd;stroke:none"
         d="m 3546.0037,4483.0118 55.1309,0 5.3061,-47.6553 0,-27.8476 c 0,-12.7876 -1.0639,-23.6162 -3.1782,-32.4917 -2.1279,-8.8696 -5.3066,-19.2866 -9.542,-31.252 -1.4165,-4.1235 -2.1211,-7.0131 -2.1211,-8.664 0,-1.2393 0,-3.5069 0,-6.8076 l 100.7197,-4.3291 c 0,16.9169 -1.4165,36.4091 -4.249,58.4838 -2.8262,22.0679 -6.3569,42.1831 -10.5928,60.3394 l -8.4848,40.2241 96.4844,0 168.5776,407.2129 43.4609,0 0,25.9922 -285.1963,0 0,-25.9922 73.1578,0 -132.5313,-329.854 c -21.1987,58.1753 -42.5933,112.9404 -64.144,164.3076 -21.5577,51.3672 -39.4014,89.9409 -53.5454,115.7271 -14.1368,25.7866 -28.626,44.4565 -43.4673,56.0107 -24.0313,18.9785 -55.4903,28.4649 -94.3633,28.4649 -14.1372,0 -31.4453,-1.6504 -51.9458,-4.9517 -20.5005,-3.2949 -33.5801,-7.4248 -39.2319,-12.3765 1.416,-4.123 2.4736,-6.9106 3.1787,-8.3554 0.7109,-1.439 2.8252,-4.8428 6.3701,-10.2056 4.9404,-5.7803 8.2949,-12.7935 10.0635,-21.0464 1.7753,-8.2466 2.6567,-23.3076 2.6567,-45.1763 l 15.8989,0 19.0908,5.5684 c 11.3106,3.7124 18.0196,5.7803 20.1416,6.1914 7.773,2.0615 15.5459,3.0957 23.3194,3.0957 33.2275,0 63.2632,-15.6777 90.1206,-47.0381 19.084,-22.2798 37.4702,-55.6963 55.1377,-100.2558 0.7046,-0.8223 11.311,-30.5264 31.7973,-89.1128 5.6592,-14.855 11.1348,-29.5044 16.4414,-43.9424 5.2999,-14.438 11.4869,-30.5327 18.5484,-48.272 l -53.0093,0 0,-25.9917 z" /><path
         inkscape:connector-curvature="0"
         id="path28"
         style="fill:#f0f0f0;fill-opacity:1;stroke:none;stroke-width:29.99510002;stroke-linecap:round;stroke-linejoin:round;stroke-miterlimit:22.92560005;stroke-dasharray:none;stroke-opacity:1"
         d="m 5221.6895,4719.397 -16.0801,56.0615 c -7.8594,-10.5776 -14.7676,-20.6856 -20.7227,-30.3228 -5.0019,-7.9917 -9.5283,-15.6313 -13.5781,-22.9184 -6.6699,-11.5176 -11.5527,-21.0381 -14.6484,-28.5596 -5.9551,-13.8686 -9.5293,-26.4443 -10.7198,-37.727 l 0,-9.168 c 0.9532,-6.3462 3.2754,-10.8125 6.9678,-13.398 3.6914,-2.5859 8.1582,-3.8784 13.3984,-3.8784 13.1016,0 25.4873,11.5181 37.1592,34.5542 9.7666,19.2744 15.8408,37.7266 18.2237,55.3565 l 0,0 m -28.585,97.3144 -27.5127,0 0,14.8091 111.1211,0 0,-14.8091 -28.2266,0 65.7432,-222.1318 24.6533,0 0,-14.8086 -107.1894,0 0,14.8086 27.1543,0 -26.7969,91.3208 c -5.7168,-27.0313 -15.8408,-51.3604 -30.3711,-72.9858 -16.9121,-25.3868 -35.0156,-38.0796 -54.3096,-38.0796 -11.1963,0 -20.3662,3.1728 -27.5127,9.5195 -8.3369,7.522 -12.5058,18.4526 -12.5058,32.791 0,12.6934 2.9785,27.0317 8.9336,43.0161 5.2402,13.8682 12.7431,29.3823 22.5097,46.542 6.9082,11.7534 16.5547,27.0318 28.9414,45.8369 5.002,7.522 10.1231,15.0435 15.3633,22.5655 7.3848,11.2832 11.0762,21.7431 11.0762,31.3803 0,2.8208 -0.3574,6.2295 -1.0713,10.2251 l 0,0 m -323.7158,9.8726 94.6855,0 0,-14.8086 -19.6513,0 0,-92.3784 2.5009,0 22.8672,45.8364 c 11.1953,22.8008 19.294,37.3745 24.2969,43.7212 11.6719,15.0439 25.6055,22.5659 41.8037,22.5659 6.1934,0 11.4932,-0.4111 15.9004,-1.2339 4.4072,-0.8227 9.4678,-2.5268 15.1855,-5.1128 -0.4765,-2.1157 -1.6084,-5.3476 -3.3955,-9.6963 -1.7861,-4.3486 -2.917,-7.1108 -3.3935,-8.2856 -1.668,-4.4663 -2.501,-11.0479 -2.501,-19.7451 l -0.7148,-10.5777 -7.1465,0 -11.4336,4.5835 c -1.4287,0.7051 -3.2158,1.4102 -5.3594,2.1158 -4.0488,1.4101 -8.5752,2.1152 -13.5781,2.1152 -9.0508,0 -17.5069,-4.7012 -25.3672,-14.1035 -8.5762,-10.3428 -19.5332,-29.6172 -32.8721,-57.8247 15.4834,-2.3506 29.1797,-6.3467 41.0899,-11.9883 17.8642,-8.4619 31.7998,-20.2153 41.8037,-35.2588 12.625,-19.04 18.9375,-43.0161 18.9375,-71.9287 l 21.7949,0 0,-14.8086 -101.4736,0 0,14.8086 16.7939,0 c 0,37.6099 -5.9551,65.9346 -17.8652,84.9741 -9.5283,15.2793 -22.1524,23.624 -37.874,25.0342 l 0,-110.0083 18.2216,0 0,-14.8086 -91.8261,0 0,14.8086 18.2226,0 0,110.0083 c -15.7207,-1.4102 -28.3457,-9.7549 -37.874,-25.0342 -11.9102,-19.0395 -17.8652,-47.3642 -17.8652,-84.9741 l 16.7929,0 0,-14.8086 -101.4736,0 0,14.8086 21.7959,0 c 0,40.9004 12.7432,71.8115 38.2314,92.7314 16.9121,13.8682 38.1114,22.6836 63.5996,26.4444 -13.3398,28.4419 -24.1181,47.541 -32.3359,57.2959 -8.2187,9.7549 -16.8535,14.6323 -25.9043,14.6323 -4.5254,0 -7.8603,-0.2349 -10.0039,-0.7051 -2.1445,-0.4697 -5.1221,-1.6455 -8.9336,-3.5259 l -11.4336,-4.5835 -7.1455,0 -0.7148,10.5777 c 0,7.9922 -0.1192,12.5757 -0.3575,13.7505 -0.2382,1.1757 -2.1435,5.9946 -5.7168,14.4565 -1.6669,4.2315 -2.7392,7.4043 -3.2158,9.52 4.7637,2.1158 9.8262,3.7022 15.1856,4.7598 5.3594,1.0581 10.6601,1.5869 15.9004,1.5869 18.8173,0 35.0156,-10.9302 48.5927,-32.791 3.0967,-4.9365 8.9327,-16.1016 17.5079,-33.4961 l 22.8671,-45.8364 2.501,0 0,92.3784 -19.6523,0 0,14.8086 0,0 m -268.3321,-131.2217 22.8672,28.2656 c 5.002,-3.9961 9.4082,-5.9941 13.2198,-5.9941 5.7168,0 10.4814,2.3506 14.2919,7.0517 5.9551,7.522 8.9327,19.8628 8.9327,37.022 0,17.1597 -1.7862,29.9707 -5.3594,38.4326 -4.7637,11.0474 -12.9815,16.5713 -24.6543,16.5713 -15.7217,0 -25.0107,-11.9878 -27.8691,-35.9052 -0.9522,-8.1685 -1.4288,-20.8614 -1.4288,-37.962 l 0,-47.4819 0,0 m 0,-21.4502 0,-79.3325 29.6563,0 0,-14.8086 -114.6943,0 0,14.8086 29.6552,0 0,129.0483 c 0,9.4029 0.1192,18.5694 0.3584,27.502 0.2373,8.9326 0.4756,17.6294 0.7139,26.0918 6.9082,16.6889 18.2227,29.9111 33.9434,39.666 15.7216,9.7554 33.1103,14.6328 52.166,14.6328 28.3466,0 50.7383,-6.8169 67.1728,-20.4507 15.4834,-12.9277 23.2256,-29.6172 23.2256,-50.0674 0,-19.5097 -5.7773,-35.788 -17.3301,-48.8339 -11.5527,-13.0459 -25.9043,-19.5684 -43.0547,-19.5684 -6.1933,0 -11.5527,0.8223 -16.0781,2.4678 -1.1914,0.4702 -5.5976,2.7031 -13.2207,6.6992 l -7.8603,3.8789 -24.6534,-31.7339 0,0 m -200.8037,-79.3325 0,217.1958 -29.6552,0 0,14.8086 114.6933,0 0,-14.8086 -29.6562,0 0,-217.1958 29.6562,0 0,-14.8086 -114.6933,0 0,14.8086 29.6552,0 0,0 m -175.4345,0 43.9472,0 c 5.9551,0 10.0645,1.5278 12.3272,4.584 2.2627,3.0556 3.3955,9.4023 3.3955,19.0395 l 0,39.8428 c 0,5.4067 -0.7149,9.2266 -2.1445,11.4595 -1.4297,2.2329 -5.836,5.3471 -13.2208,9.3437 -11.4335,6.1113 -19.7705,10.9302 -25.0107,14.4561 -7.6226,5.1709 -14.0537,10.6948 -19.2939,16.5718 l 0,-115.2974 0,0 m -85.0381,232.0044 127.5566,0 c 17.627,0 26.6787,0.9995 27.1553,2.9971 0.4766,1.998 8.9316,2.9975 25.3682,2.9975 3.5732,0 6.4306,-1.2934 8.5751,-3.8789 2.1446,-2.5854 3.2159,-5.8765 3.2159,-9.8726 0,-2.1157 -0.7149,-4.9365 -2.1436,-8.4619 -2.3828,-6.1118 -4.0498,-10.4018 -5.0029,-12.8696 -0.9531,-2.4678 -2.0244,-5.8765 -3.2158,-10.2251 -1.1905,-4.3486 -2.1436,-9.8726 -2.8575,-16.5718 -0.7148,-6.6992 -1.3105,-10.9892 -1.7871,-12.8696 -1.4297,-4.9365 -4.4072,-7.4043 -8.9326,-7.4043 -4.2881,0 -7.2646,2.1157 -8.9326,6.3467 -0.4766,1.1753 -1.3105,3.9956 -2.501,8.4619 -5.4795,19.7451 -12.9814,33.0264 -22.5097,39.8428 -6.1934,4.4663 -15.2452,6.6992 -27.1553,6.6992 l -8.2178,0 -13.5771,0 0,-87.9712 c 7.8598,-7.228 19.5918,-13.6338 35.1933,-19.2754 15.6026,-5.5825 29.7168,-8.4033 42.3408,-8.4033 l 14.6495,0 c 1.4296,0 3.5732,0 6.4316,0 5.4785,0 9.5879,-1.5278 12.3262,-4.5835 2.7402,-3.0557 4.1093,-9.2256 4.1093,-18.6284 l 0,-68.5196 c 0,-9.4028 -0.9531,-15.456 -2.8584,-18.2768 -2.8584,-4.231 -9.4091,-6.3462 -19.6513,-6.3462 l -177.5791,0 0,14.8086 29.6562,0 0,217.1958 -29.6562,0 0,14.8086 z" /><path
         inkscape:connector-curvature="0"
         id="path30"
         style="fill:#f0f0f0;fill-opacity:1;fill-rule:evenodd;stroke:none"
         d="m 5221.6895,4719.397 -16.0801,56.0615 c -7.8594,-10.5776 -14.7676,-20.6856 -20.7227,-30.3228 -0.3603,-0.5747 -0.7168,-1.1474 -1.0722,-1.7187 l 0,32.7969 c 6.9082,10.8608 10.3613,20.9516 10.3613,30.2724 0,2.8208 -0.3574,6.2295 -1.0713,10.2251 l -9.29,0 0,14.8091 92.8984,0 0,-14.8091 -28.2266,0 65.7432,-222.1318 24.6533,0 0,-14.8086 -107.1894,0 0,14.8086 27.1543,0 -26.7969,91.3208 c -5.7168,-27.0313 -15.8408,-51.3604 -30.3711,-72.9858 -5.8145,-8.7276 -11.7695,-15.9551 -17.8652,-21.6822 l 0,45.4668 c 6.7617,5.7163 13.3125,14.8291 19.6513,27.3413 9.7666,19.2744 15.8408,37.7266 18.2237,55.3565 m -37.875,24.02 c -4.5782,-7.3701 -8.7481,-14.437 -12.5059,-21.1997 -6.6699,-11.5176 -11.5527,-21.0381 -14.6484,-28.5596 -5.9551,-13.8686 -9.5293,-26.4443 -10.7198,-37.727 l 0,-9.168 c 0.9532,-6.3462 3.2754,-10.8125 6.9678,-13.398 3.6914,-2.5859 8.1582,-3.8784 13.3984,-3.8784 5.9854,0 11.8213,2.4053 17.5079,7.2129 l 0,-45.4668 c -11.6348,-10.9316 -23.7832,-16.3974 -36.4444,-16.3974 -11.1963,0 -20.3662,3.1728 -27.5127,9.5195 -8.3369,7.522 -12.5058,18.4526 -12.5058,32.791 0,12.6934 2.9785,27.0317 8.9336,43.0161 5.2402,13.8682 12.7431,29.3823 22.5097,46.542 6.9082,11.7534 16.5547,27.0318 28.9414,45.8369 5.002,7.522 10.1231,15.0435 15.3633,22.5655 0.2422,0.3701 0.4805,0.7397 0.7149,1.1079 l 0,-32.7969 0,0 m 0,88.1035 0,-14.8091 -18.2227,0 0,14.8091 18.2227,0 0,0 m -553.1026,-251.7495 0,14.8086 0,0 0,-14.8086 0,0 0,0 m 0,123.4067 0,16.0786 c 2.3057,-1.0815 4.4492,-1.6225 6.4317,-1.6225 5.7168,0 10.4814,2.3506 14.2919,7.0517 5.9551,7.522 8.9327,19.8628 8.9327,37.022 0,17.1597 -1.7862,29.9707 -5.3594,38.4326 -4.7158,10.9341 -12.8135,16.4566 -24.2969,16.5689 l 0,14.79 c 0.7119,0.014 1.4268,0.021 2.1436,0.021 28.3466,0 50.7383,-6.8169 67.1728,-20.4507 15.4834,-12.9277 23.2256,-29.6172 23.2256,-50.0674 0,-19.5097 -5.7773,-35.788 -17.3301,-48.8339 -11.5527,-13.0459 -25.9043,-19.5684 -43.0547,-19.5684 -6.1933,0 -11.5527,0.8223 -16.0781,2.4678 -1.1914,0.4702 -5.5976,2.7031 -13.2207,6.6992 l -2.8584,1.4106 0,0 m 238.6768,123.4063 94.6855,0 0,-14.8086 -19.6513,0 0,-92.3784 2.5009,0 22.8672,45.8364 c 11.1953,22.8008 19.294,37.3745 24.2969,43.7212 11.6719,15.0439 25.6055,22.5659 41.8037,22.5659 6.1934,0 11.4932,-0.4111 15.9004,-1.2339 4.4072,-0.8227 9.4678,-2.5268 15.1855,-5.1128 -0.4765,-2.1157 -1.6084,-5.3476 -3.3955,-9.6963 -1.7861,-4.3486 -2.917,-7.1108 -3.3935,-8.2856 -1.668,-4.4663 -2.501,-11.0479 -2.501,-19.7451 l -0.7148,-10.5777 -7.1465,0 -11.4336,4.5835 c -1.4287,0.7051 -3.2158,1.4102 -5.3594,2.1158 -4.0488,1.4101 -8.5752,2.1152 -13.5781,2.1152 -9.0508,0 -17.5069,-4.7012 -25.3672,-14.1035 -8.5762,-10.3428 -19.5332,-29.6172 -32.8721,-57.8247 15.4834,-2.3506 29.1797,-6.3467 41.0899,-11.9883 17.8642,-8.4619 31.7998,-20.2153 41.8037,-35.2588 12.625,-19.04 18.9375,-43.0161 18.9375,-71.9287 l 21.7949,0 0,-14.8086 -101.4736,0 0,14.8086 16.7939,0 c 0,37.6099 -5.9551,65.9346 -17.8652,84.9741 -9.5283,15.2793 -22.1524,23.624 -37.874,25.0342 l 0,-110.0083 18.2216,0 0,-14.8086 -91.8261,0 0,14.8086 18.2226,0 0,110.0083 c -15.7207,-1.4102 -28.3457,-9.7549 -37.874,-25.0342 -11.9102,-19.0395 -17.8652,-47.3642 -17.8652,-84.9741 l 16.7929,0 0,-14.8086 -101.4736,0 0,14.8086 21.7959,0 c 0,40.9004 12.7432,71.8115 38.2314,92.7314 16.9121,13.8682 38.1114,22.6836 63.5996,26.4444 -13.3398,28.4419 -24.1181,47.541 -32.3359,57.2959 -8.2187,9.7549 -16.8535,14.6323 -25.9043,14.6323 -4.5254,0 -7.8603,-0.2349 -10.0039,-0.7051 -2.1445,-0.4697 -5.1221,-1.6455 -8.9336,-3.5259 l -11.4336,-4.5835 -7.1455,0 -0.7148,10.5777 c 0,7.9922 -0.1192,12.5757 -0.3575,13.7505 -0.2382,1.1757 -2.1435,5.9946 -5.7168,14.4565 -1.6669,4.2315 -2.7392,7.4043 -3.2158,9.52 4.7637,2.1158 9.8262,3.7022 15.1856,4.7598 5.3594,1.0581 10.6601,1.5869 15.9004,1.5869 18.8173,0 35.0156,-10.9302 48.5927,-32.791 3.0967,-4.9365 8.9327,-16.1016 17.5079,-33.4961 l 22.8671,-45.8364 2.501,0 0,92.3784 -19.6523,0 0,14.8086 m -238.6768,4.915 0,-14.79 c -0.1191,0 -0.2373,0 -0.3574,0 -15.7217,0 -25.0107,-11.9878 -27.8691,-35.9052 -0.9522,-8.1685 -1.4288,-20.8614 -1.4288,-37.962 l 0,-47.4819 22.8672,28.2656 c 2.3994,-1.917 4.6621,-3.374 6.7881,-4.3716 l 0,-16.0786 -5.0019,2.4683 -24.6534,-31.7339 0,-79.3325 29.6553,0 0,-14.8086 -114.6933,0 0,14.8086 29.6552,0 0,129.0483 c 0,9.4029 0.1192,18.5694 0.3584,27.502 0.2373,8.9326 0.4756,17.6294 0.7139,26.0918 6.9082,16.6889 18.2227,29.9111 33.9434,39.666 15.1308,9.3882 31.8046,14.2583 50.0224,14.6113 l 0,0 m -376.0596,-251.728 0,14.8086 14.1133,0 c 5.9551,0 10.0645,1.5278 12.3272,4.584 2.2627,3.0556 3.3955,9.4023 3.3955,19.0395 l 0,39.8428 c 0,5.4067 -0.7149,9.2266 -2.1445,11.4595 -1.4297,2.2329 -5.836,5.3471 -13.2208,9.3437 -5.5537,2.9688 -10.3769,5.6323 -14.4707,7.9917 l 0,19.7168 c 1.7334,-0.687 3.5196,-1.3628 5.3594,-2.0288 15.6026,-5.5825 29.7168,-8.4033 42.3408,-8.4033 l 14.6495,0 c 1.4296,0 3.5732,0 6.4316,0 5.4785,0 9.5879,-1.5278 12.3262,-4.5835 2.7402,-3.0557 4.1093,-9.2256 4.1093,-18.6284 l 0,-68.5196 c 0,-9.4028 -0.9531,-15.456 -2.8584,-18.2768 -2.8584,-4.231 -9.4091,-6.3462 -19.6513,-6.3462 l -62.7071,0 0,0 m 0,231.623 0,15.19 12.6846,0 c 17.627,0 26.6787,0.9995 27.1553,2.9971 0.4766,1.998 8.9316,2.9975 25.3682,2.9975 3.5732,0 6.4306,-1.2934 8.5751,-3.8789 2.1446,-2.5854 3.2159,-5.8765 3.2159,-9.8726 0,-2.1157 -0.7149,-4.9365 -2.1436,-8.4619 -2.3828,-6.1118 -4.0498,-10.4018 -5.0029,-12.8696 -0.9531,-2.4678 -2.0244,-5.8765 -3.2158,-10.2251 -1.1905,-4.3486 -2.1436,-9.8726 -2.8575,-16.5718 -0.7148,-6.6992 -1.3105,-10.9892 -1.7871,-12.8696 -1.4297,-4.9365 -4.4072,-7.4043 -8.9326,-7.4043 -4.2881,0 -7.2646,2.1157 -8.9326,6.3467 -0.4766,1.1753 -1.3105,3.9956 -2.501,8.4619 -5.4795,19.7451 -12.9814,33.0264 -22.5097,39.8428 -4.7159,3.3999 -11.087,5.5058 -19.1163,6.3178 l 0,0 m 145.6006,-216.8144 0,217.1958 -29.6552,0 0,14.8086 114.6933,0 0,-14.8086 -29.6562,0 0,-217.1958 29.6562,0 0,-14.8086 -114.6933,0 0,14.8086 29.6552,0 m -145.6006,232.0044 0,-15.19 c -2.5156,0.2539 -5.1953,0.3814 -8.039,0.3814 l -8.2178,0 -13.5771,0 0,-87.9712 c 6.9326,-6.3755 16.8784,-12.1108 29.8339,-17.2466 l 0,-19.7168 c -4.332,2.4961 -7.8457,4.6509 -10.54,6.4644 -7.6226,5.1709 -14.0537,10.6948 -19.2939,16.5718 l 0,-115.2974 29.8339,0 0,-14.8086 -114.872,0 0,14.8086 29.6562,0 0,217.1958 -29.6562,0 0,14.8086 114.872,0 z" /><path
         inkscape:connector-curvature="0"
         id="path32"
         style="fill:#f0f0f0;fill-opacity:1;stroke:none;stroke-width:29.99539948;stroke-linecap:round;stroke-linejoin:round;stroke-miterlimit:22.92560005;stroke-dasharray:none;stroke-opacity:1"
         d="m 6892.4287,5133.6909 -16.0791,56.0615 c -7.8603,-10.5776 -14.7676,-20.6855 -20.7226,-30.3227 -5.002,-7.9922 -9.5284,-15.6318 -13.5782,-22.918 -6.6689,-11.5185 -11.5527,-21.0386 -14.6484,-28.5605 -5.9551,-13.8682 -9.5293,-26.4439 -10.7197,-37.7266 l 0,-9.1675 c 0.9531,-6.3467 3.2754,-10.813 6.9677,-13.3984 3.6914,-2.5859 8.1582,-3.8789 13.3985,-3.8789 13.1015,0 25.4883,11.5181 37.1601,34.5542 9.7657,19.2744 15.8399,37.727 18.2217,55.3569 l 0,0 m -28.584,97.3145 -27.5127,0 0,14.8091 111.1211,0 0,-14.8091 -28.2265,0 65.7431,-222.1319 24.6533,0 0,-14.8086 -107.1894,0 0,14.8086 27.1543,0 -26.7969,91.3213 c -5.7168,-27.0322 -15.8418,-51.3613 -30.3711,-72.9868 -16.9121,-25.3862 -35.0156,-38.0796 -54.3105,-38.0796 -11.1953,0 -20.3653,3.1734 -27.5117,9.52 -8.337,7.522 -12.5059,18.4522 -12.5059,32.7906 0,12.6933 2.9785,27.0322 8.9336,43.0166 5.2402,13.8681 12.7432,29.3823 22.5098,46.542 6.9072,11.7529 16.5546,27.0317 28.9414,45.8364 5.0019,7.522 10.123,15.0439 15.3632,22.5659 7.3848,11.2827 11.0762,21.7432 11.0762,31.3804 0,2.8208 -0.3574,6.229 -1.0713,10.2251 l 0,0 m -276.5517,-65.7583 0,-156.3736 24.6543,0 0,-14.8086 -109.6914,0 0,14.8086 29.6562,0 0,217.1958 -29.6562,0 0,14.8086 109.6914,0 0,-14.8086 -24.6543,0 0,-37.375 78.9648,-95.5517 0,132.9267 -24.6543,0 0,14.8086 109.6914,0 0,-14.8086 -29.6562,0 0,-217.1958 29.6562,0 0,-14.8086 -109.6914,0 0,14.8086 24.6543,0 0,60.8218 -78.9648,95.5518 0,0 m -227.2432,-156.3736 32.1572,0 c 7.8614,0 13.5782,0.8228 17.1504,2.4683 6.4317,2.8203 9.6465,8.5796 9.6465,17.2764 l 0,41.9585 0,8.4624 c 0,6.1113 -0.832,10.166 -2.5,12.164 -1.668,1.9986 -6.6699,4.2901 -14.9473,6.8755 -8.2773,2.586 -15.2451,5.2891 -21.0214,8.1099 -7.2051,3.5259 -13.9942,7.9917 -20.4854,13.3984 l 0,-110.7134 0,0 m 29.6572,232.0044 0,-14.8086 -29.6572,0 0,-87.0898 c 9.5283,-8.6973 22.9863,-15.9844 40.376,-21.8608 14.7676,-4.9366 27.1543,-7.4043 37.1582,-7.4043 l 14.6504,0.705 c 1.4287,0.2354 3.4531,0.3526 6.0732,0.3526 5.2412,0 9.2305,-1.5274 11.9697,-4.5835 2.7393,-3.0557 4.1094,-9.2852 4.1094,-18.687 l 0,-68.7559 c 0,-10.8125 -1.7871,-17.8643 -5.3594,-21.1548 -2.621,-2.3511 -8.0996,-3.5259 -16.4365,-3.5259 l -177.5791,0 0,14.8086 29.6563,0 0,217.1958 -29.6563,0 0,14.8086 114.6953,0 0,0 m -238.6777,-232.0044 23.2246,0 c -8.3379,25.1514 -16.1973,53.8291 -23.582,86.0318 -3.8115,17.1601 -8.0996,38.3149 -12.8633,63.4663 l -6.0742,29.2651 c -4.5254,-5.1709 -7.9199,-9.6372 -10.1826,-13.3984 -2.2627,-3.7608 -5.6573,-9.8726 -10.1836,-18.3345 -7.1455,-13.3984 -12.9815,-25.9155 -17.5078,-37.6684 -6.669,-17.8643 -10.0049,-33.6138 -10.0049,-47.2471 0,-15.5142 0.9531,-25.7393 2.8593,-30.6758 1.1915,-3.2905 3.335,-4.877 6.4317,-4.877 3.5723,0 5.9551,-1.1757 7.1455,-3.5263 2.1435,-4.7012 3.2158,-15.6314 3.2158,-32.7905 0,-3.5259 -1.3691,-5.8765 -4.1094,-7.0518 -2.7382,-1.1753 -5.6562,-1.7632 -8.7539,-1.8218 -1.9043,0.059 -4.1084,0.1763 -6.6093,0.5288 -2.501,0.3526 -5.1211,0.7056 -7.8614,0.999 -2.7383,0.3526 -5.1806,0.5289 -7.3242,0.5289 -2.3818,0 -4.5254,-0.059 -6.4316,-0.1763 -1.9053,-0.1177 -3.5137,-0.294 -4.8233,-0.5293 -1.3095,-0.2344 -3.5136,-0.3521 -6.6103,-0.3521 -4.5254,0 -7.7412,1.0577 -9.6465,3.1729 -1.9063,2.1162 -3.0967,5.2891 -3.5733,9.5205 l 0,12.3403 c 0,13.1636 2.1436,26.0918 6.4307,38.7847 4.2881,12.6934 13.3399,32.3213 27.1563,58.8833 l 23.581,45.1313 c 8.0987,14.5738 14.3506,26.8555 18.7588,36.8458 4.4063,9.9902 6.6094,17.1005 6.6094,21.3315 0,3.7612 -1.0117,6.1699 -3.0371,7.228 -2.0244,1.0581 -5.0616,1.5869 -9.1114,1.5869 l -24.6523,0 0,14.8086 117.9082,0 0,-14.8086 -21.7949,0 c 3.8115,-28.6777 10.0039,-61.5859 18.5801,-98.7255 7.622,-33.8487 15.9589,-65.2291 25.0097,-94.1412 l 6.7891,-24.3291 26.083,0 0,-14.8086 -105.0459,0 0,14.8086 0,0 m -246.8955,124.8174 -16.0791,56.0615 c -7.8594,-10.5776 -14.7676,-20.6855 -20.7227,-30.3227 -5.0019,-7.9922 -9.5283,-15.6318 -13.5771,-22.918 -6.6699,-11.5185 -11.5537,-21.0386 -14.6504,-28.5605 -5.9541,-13.8682 -9.5283,-26.4439 -10.7178,-37.7266 l 0,-9.1675 c 0.9522,-6.3467 3.2744,-10.813 6.9668,-13.3984 3.6914,-2.5859 8.1582,-3.8789 13.3985,-3.8789 13.1015,0 25.4882,11.5181 37.1601,34.5542 9.7656,19.2744 15.8399,37.727 18.2217,55.3569 l 0,0 m -28.584,97.3145 -27.5127,0 0,14.8091 111.1211,0 0,-14.8091 -28.2266,0 65.7432,-222.1319 24.6533,0 0,-14.8086 -107.1894,0 0,14.8086 27.1543,0 -26.7969,91.3213 c -5.7168,-27.0322 -15.8408,-51.3613 -30.3711,-72.9868 -16.9121,-25.3862 -35.0156,-38.0796 -54.3096,-38.0796 -11.1963,0 -20.3662,3.1734 -27.5127,9.52 -8.3359,7.522 -12.5058,18.4522 -12.5058,32.7906 0,12.6933 2.9785,27.0322 8.9336,43.0166 5.2402,13.8681 12.7431,29.3823 22.5097,46.542 6.9082,11.7529 16.5547,27.0317 28.9414,45.8364 5.002,7.522 10.1231,15.0439 15.3633,22.5659 7.3848,11.2827 11.0762,21.7432 11.0762,31.3804 0,2.8208 -0.3574,6.229 -1.0713,10.2251 l 0,0 m -108.6201,-77.5699 -93.6133,0 0,14.8091 15.7227,0 c 0,23.2705 -4.17,40.1949 -12.5655,50.773 -6.4316,7.9917 -15.1855,11.9878 -26.2021,11.9878 -11.9707,0 -21.6172,-5.0537 -29.0606,-15.1612 -9.3496,-12.6933 -13.9941,-32.9087 -13.9941,-60.6455 0,-14.5737 1.0713,-28.6772 3.2148,-42.311 1.4297,-8.9326 4.7051,-23.7412 9.8262,-44.4263 5.1211,-20.685 7.6817,-37.7275 7.6817,-51.126 0,-2.8208 -0.4161,-5.7587 -1.25,-8.8144 -0.834,-3.0557 -1.3702,-5.0537 -1.6075,-5.9941 l -1.4297,-4.9361 c 2.1436,-1.4106 5.002,-2.1157 8.5752,-2.1157 13.3389,0 26.1426,9.0498 38.4092,27.1494 12.2676,18.0996 18.4024,37.8452 18.4024,59.2354 0,3.9956 0,6.934 0,8.8144 l -15.7227,0 0,14.8091 93.6133,0 0,-14.8091 -14.6484,0 c 0,-28.6772 -13.459,-53.5937 -40.375,-74.749 -25.0118,-19.7451 -51.9278,-29.6177 -80.751,-29.6177 -7.1455,0 -12.2071,0.294 -15.1846,0.8819 -2.9785,0.5874 -6.6103,1.7036 -10.8984,3.3496 l 0,4.936 c 0,9.6372 -0.9522,17.1592 -2.8575,22.5659 -3.3359,9.4024 -11.3144,22.0957 -23.9394,38.0796 -14.5303,18.335 -24.1777,34.084 -28.9414,47.2471 -3.336,9.1675 -5.002,20.2153 -5.002,33.144 0,33.3784 10.8379,60.1748 32.5137,80.3902 20.4854,19.2749 46.0918,28.9126 76.8203,28.9126 33.586,0 59.0733,-9.7549 76.4629,-29.2652 11.4326,-12.6933 18.8164,-28.7949 22.1524,-48.3047 l 14.6484,0 0,-14.8091 0,0 m -375.5234,-43.7797 22.8671,28.2661 c 5.002,-3.9966 9.4092,-5.9942 13.2207,-5.9942 5.7168,0 10.4805,2.3501 14.292,7.0518 5.9551,7.5215 8.9327,19.8623 8.9327,37.0215 0,17.1596 -1.7872,29.9707 -5.3594,38.4331 -4.7647,11.0473 -12.9824,16.5713 -24.6543,16.5713 -15.7207,0 -25.0108,-11.9878 -27.8692,-35.9053 -0.9531,-8.1685 -1.4296,-20.8618 -1.4296,-37.9624 l 0,-47.4819 0,0 m 0,-21.4493 0,-79.333 29.6562,0 0,-14.8086 -114.6934,0 0,14.8086 29.6563,0 0,129.0484 c 0,9.4023 0.1191,18.5698 0.3574,27.5019 0.2383,8.9322 0.4766,17.6289 0.7139,26.0913 6.9082,16.6895 18.2226,29.9117 33.9443,39.6665 15.7207,9.7549 33.1094,14.6329 52.1651,14.6329 28.3466,0 50.7373,-6.8174 67.1728,-20.4507 15.4824,-12.9283 23.2246,-29.6177 23.2246,-50.0674 0,-19.5103 -5.7764,-35.7881 -17.3281,-48.834 -11.5537,-13.0454 -25.9053,-19.5688 -43.0557,-19.5688 -6.1933,0 -11.5537,0.8227 -16.0791,2.4677 -1.1904,0.4707 -5.5976,2.7041 -13.2187,6.6997 l -7.8614,3.8785 -24.6542,-31.733 0,0 m -227.9581,29.2647 13.2198,0 c -2.1436,6.8169 -5.418,12.0469 -9.8252,15.6904 -4.4073,3.6436 -8.6348,5.4649 -12.6846,5.4649 -7.6211,0 -15.0664,-1.3516 -22.3311,-4.0547 -7.2646,-2.7031 -13.2792,-6.7578 -18.0439,-12.1641 1.4297,-9.1675 2.6797,-16.2783 3.752,-21.332 1.0722,-5.0537 2.7988,-11.3418 5.1806,-18.8638 4.0498,-13.3979 6.5508,-22.3301 7.503,-26.7964 1.9062,-8.9326 2.8593,-19.04 2.8593,-30.3227 0,-4.7012 -0.1797,-7.9922 -0.5361,-9.8726 -0.3574,-1.8804 -1.3701,-4.8188 -3.0371,-8.8149 3.3349,-1.6455 7.7412,-2.4678 13.2197,-2.4678 20.4863,0 36.6836,6.1113 48.5938,18.3345 8.8125,9.167 14.7675,20.6855 17.8652,34.5537 l -17.8652,0 0,14.8091 93.6123,0 0,-14.4561 -13.1612,-0.353 c -11.1347,-19.6275 -25.6054,-35.5528 -43.4111,-47.8345 -19.4736,-13.2222 -39.6006,-19.8628 -60.5029,-19.8628 -9.9453,0 -20.3662,0.5288 -31.1455,1.5869 -10.7784,1.0576 -19.8301,2.7618 -27.2139,5.1123 0,1.6455 0,3.3496 0,5.1123 0,1.7637 0,3.1153 0,4.0552 0,8.2271 -2.1445,16.4546 -6.4316,24.6812 -3.335,6.3466 -8.4561,13.6333 -15.3633,21.8608 -16.1983,19.7451 -26.6797,34.7305 -31.4434,44.9551 -4.7637,10.2251 -7.1465,22.1543 -7.1465,35.7881 0,39.9604 13.8164,69.9301 41.4473,89.9101 21.9141,15.7495 48.832,23.6241 80.75,23.6241 20.0098,0 37.7559,-3.2911 53.2383,-9.8726 22.1523,-9.4028 37.3974,-24.564 45.7344,-45.4844 l 17.1503,0 0,-14.8091 -88.6103,0 0,14.8091 11.0771,0 c -1.9062,10.5777 -5.956,19.2749 -12.1484,26.0918 -8.5762,9.6377 -20.248,14.4561 -35.0156,14.4561 -17.3887,0 -30.6094,-8.4624 -39.6602,-25.3867 -7.623,-14.3384 -11.4346,-31.733 -11.4346,-52.1832 0,-6.1113 0.3565,-11.8706 1.0723,-17.2768 9.0518,7.7568 18.6397,13.3984 28.7627,16.9243 10.1231,3.5259 20.4258,5.2886 30.9063,5.2886 14.0546,0 27.2744,-3.6431 39.6601,-10.9302 12.3867,-7.2866 20.8428,-17.2768 25.3692,-29.9702 l 14.6484,0 0,-14.8086 -88.6104,0 0,14.8086 0,0 m -266.5468,19.0405 20.7236,27.854 c 3.0967,-1.645 6.2529,-3.0556 9.4688,-4.2309 3.2158,-1.1753 5.538,-1.7632 6.9667,-1.7632 5.003,0 9.5284,2.2334 13.5782,6.6997 5.9551,6.5815 8.9316,16.4541 8.9316,29.6172 0,12.4585 -2.6797,21.626 -7.9785,27.5019 -5.3594,5.877 -12.0293,8.815 -20.0684,8.815 -13.042,0 -21.915,-8.1094 -26.6191,-24.3286 -3.3359,-11.0479 -5.0029,-27.502 -5.0029,-49.3628 0,-3.7608 0,-7.3457 0,-10.7539 0,-3.4087 0,-6.7579 0,-10.0484 l 0,0 m 0,-127.6382 43.9482,0 c 5.9551,0 10.0645,1.5279 12.3272,4.5835 2.2627,3.0562 3.3935,9.4029 3.3935,19.0401 l 0,39.8427 c 0,5.4063 -0.7148,9.2261 -2.1426,11.459 -1.4297,2.2334 -5.8359,5.3477 -13.2207,9.3438 -11.4336,6.1118 -19.7705,10.9302 -25.0117,14.456 -7.6211,5.1714 -14.0537,10.6953 -19.2939,16.5718 l 0,-115.2969 0,0 m -55.3819,0 0,111.771 c 0,42.5459 6.0743,73.104 18.2227,91.6734 14.5303,22.331 40.4941,33.4966 77.8926,33.4966 22.8672,0 41.208,-5.7593 55.0234,-17.2769 12.8633,-10.813 19.2949,-23.9761 19.2949,-39.4902 0,-17.6299 -6.0742,-30.7935 -18.2226,-39.4903 -9.7666,-7.0517 -22.2715,-10.5776 -37.5166,-10.5776 -5.7168,0 -11.1358,0.9399 -16.2569,2.8208 -5.1211,1.8804 -10.541,4.7007 -16.2578,8.4619 l -15.7207,-19.3921 c 12.3858,-9.8725 24.4746,-16.9243 36.2656,-21.1557 11.7911,-4.231 24.8321,-6.3467 39.125,-6.3467 l 3.2149,0 c 10.7187,0 17.8652,-1.7627 21.4385,-5.2891 2.6201,-2.5854 3.9306,-7.0517 3.9306,-13.3979 l 0,-5.9942 0,-56.062 0,-9.52 c 0,-7.2866 -0.9531,-11.8701 -2.8593,-13.751 -3.5723,-3.5259 -11.7911,-5.2886 -24.7129,-5.2886 l -172.5166,0 0,14.8086 29.6552,0 0,0 m -141.4912,0 0,217.1958 -29.6553,0 0,14.8086 114.6934,0 0,-14.8086 -29.6562,0 0,-217.1958 29.6562,0 0,-14.8086 -114.6934,0 0,14.8086 29.6553,0 0,0 m -224.3838,156.3736 0,-156.3736 24.6524,0 0,-14.8086 -109.6914,0 0,14.8086 29.6562,0 0,217.1958 -29.6562,0 0,14.8086 109.6914,0 0,-14.8086 -24.6524,0 0,-37.375 78.9629,-95.5517 0,132.9267 -24.6543,0 0,14.8086 109.6914,0 0,-14.8086 -29.6552,0 0,-217.1958 29.6552,0 0,-14.8086 -109.6914,0 0,14.8086 24.6543,0 0,60.8218 -78.9629,95.5518 0,0 m -190.4414,-171.1822 -18.5801,0 -1.7871,-27.0317 0,-15.8081 c 0,-7.2871 0.3575,-13.3984 1.0723,-18.4522 0.7148,-5.0541 1.7861,-10.9301 3.2148,-17.7475 0.4766,-2.3501 0.7149,-3.937 0.7149,-4.877 0,-0.7055 0,-1.9985 0,-3.8789 l -33.9434,-2.4682 c 0,9.5791 0.4766,20.6855 1.4292,33.2026 0.9532,12.5171 2.1441,23.9175 3.5733,34.2012 l 2.8584,22.8598 -32.5142,0 -56.8115,232.0044 -14.6494,0 0,14.8086 96.1142,0 0,-14.8086 -24.6533,0 44.6621,-187.9306 c 7.1465,33.1435 14.3526,64.3476 21.6162,93.6123 7.2657,29.2651 13.2813,51.2436 18.045,65.9345 4.7636,14.6915 9.6464,25.3277 14.6484,31.9097 8.0996,10.8125 18.6992,16.2193 31.7998,16.2193 4.7646,0 10.6006,-0.9405 17.5088,-2.8208 6.9072,-1.8809 11.3144,-4.231 13.2197,-7.0518 -0.4766,-2.3506 -0.834,-3.9375 -1.0723,-4.7603 -0.2382,-0.8222 -0.9521,-2.7617 -2.1435,-5.8178 -1.668,-3.2906 -2.7988,-7.2867 -3.3945,-11.9878 -0.5957,-4.7012 -0.8926,-13.2813 -0.8926,-25.7393 l -5.3594,0 -6.4316,3.1734 c -3.8116,2.1152 -6.0743,3.291 -6.7891,3.5258 -2.6201,1.1753 -5.2402,1.7632 -7.8613,1.7632 -11.1953,0 -21.3184,-8.9321 -30.3692,-26.7969 -6.4326,-12.6933 -12.625,-31.7334 -18.58,-57.1201 -0.2383,-0.4697 -3.8116,-17.3945 -10.7198,-50.7724 -1.9052,-8.4624 -3.7509,-16.8072 -5.5381,-25.0342 -1.7861,-8.2271 -3.871,-17.3945 -6.2529,-27.502 l 17.8662,0 0,-14.8086 z" /><path
         inkscape:connector-curvature="0"
         id="path34"
         style="fill:#f0f0f0;fill-opacity:1;fill-rule:evenodd;stroke:none"
         d="m 6892.4287,5133.6909 -16.0791,56.0615 c -7.8603,-10.5776 -14.7676,-20.6855 -20.7226,-30.3227 -0.3604,-0.5752 -0.7178,-1.148 -1.0723,-1.7193 l 0,32.7964 c 6.9082,10.8609 10.3613,20.9522 10.3613,30.2735 0,2.8208 -0.3574,6.229 -1.0713,10.2251 l -9.29,0 0,14.8091 92.8984,0 0,-14.8091 -28.2265,0 65.7431,-222.1319 24.6533,0 0,-14.8086 -107.1894,0 0,14.8086 27.1543,0 -26.7969,91.3213 c -5.7168,-27.0322 -15.8418,-51.3613 -30.3711,-72.9868 -5.8144,-8.7275 -11.7695,-15.9546 -17.8652,-21.6816 l 0,45.4668 c 6.7617,5.7163 13.3125,14.8286 19.6523,27.3408 9.7657,19.2744 15.8399,37.727 18.2217,55.3569 m -37.874,24.0195 c -4.5781,-7.3696 -8.7471,-14.4365 -12.5059,-21.1987 -6.6689,-11.5185 -11.5527,-21.0386 -14.6484,-28.5605 -5.9551,-13.8682 -9.5293,-26.4439 -10.7197,-37.7266 l 0,-9.1675 c 0.9531,-6.3467 3.2754,-10.813 6.9677,-13.3984 3.6914,-2.5859 8.1582,-3.8789 13.3985,-3.8789 5.9853,0 11.8203,2.4057 17.5078,7.2134 l 0,-45.4668 c -11.6348,-10.9322 -23.7832,-16.398 -36.4453,-16.398 -11.1953,0 -20.3653,3.1734 -27.5117,9.52 -8.337,7.522 -12.5059,18.4522 -12.5059,32.7906 0,12.6933 2.9785,27.0322 8.9336,43.0166 5.2402,13.8681 12.7432,29.3823 22.5098,46.542 6.9072,11.7529 16.5546,27.0317 28.9414,45.8364 5.0019,7.522 10.123,15.0439 15.3632,22.5659 0.2422,0.3696 0.4805,0.7388 0.7149,1.1069 l 0,-32.7964 0,0 m 0,88.1041 0,-14.8091 -18.2227,0 0,14.8091 18.2227,0 0,0 m -465.0274,-251.7496 0,14.8086 2.6797,0 c 7.8614,0 13.5782,0.8228 17.1504,2.4683 6.4317,2.8203 9.6465,8.5796 9.6465,17.2764 l 0,41.9585 0,8.4624 c 0,6.1113 -0.832,10.166 -2.5,12.164 -1.668,1.9986 -6.6699,4.2901 -14.9473,6.8755 -4.3691,1.3652 -8.373,2.7627 -12.0293,4.1929 l 0,18.9277 c 3.4424,-1.4282 7.0752,-2.7886 10.8985,-4.0805 14.7676,-4.9366 27.1543,-7.4043 37.1582,-7.4043 l 14.6504,0.705 c 1.4287,0.2354 3.4531,0.3526 6.0732,0.3526 5.2412,0 9.2305,-1.5274 11.9697,-4.5835 2.7393,-3.0557 4.1094,-9.2852 4.1094,-18.687 l 0,-68.7559 c 0,-10.8125 -1.7871,-17.8643 -5.3594,-21.1548 -2.621,-2.3511 -8.0996,-3.5259 -16.4365,-3.5259 l -63.0635,0 0,0 m 0,232.0044 0,14.8086 0.1797,0 0,-14.8086 -0.1797,0 0,0 m 197.7657,-60.8222 0,-156.3736 24.6543,0 0,-14.8086 -109.6914,0 0,14.8086 29.6562,0 0,217.1958 -29.6562,0 0,14.8086 109.6914,0 0,-14.8086 -24.6543,0 0,-37.375 78.9648,-95.5517 0,132.9267 -24.6543,0 0,14.8086 109.6914,0 0,-14.8086 -29.6562,0 0,-217.1958 29.6562,0 0,-14.8086 -109.6914,0 0,14.8086 24.6543,0 0,60.8218 -78.9648,95.5518 m -197.7657,75.6308 0,-14.8086 -29.4775,0 0,-87.0898 c 7.4336,-6.7857 17.2588,-12.7124 29.4775,-17.7803 l 0,-18.9277 c -3.2714,1.2798 -6.2646,2.5849 -8.9921,3.917 -7.2051,3.5259 -13.9942,7.9917 -20.4854,13.3984 l 0,-110.7134 29.4775,0 0,-14.8086 -114.5156,0 0,14.8086 29.6563,0 0,217.1958 -29.6563,0 0,14.8086 114.5156,0 0,0 m -523.2675,-235.3515 0,45.4668 c 6.7617,5.7163 13.3125,14.8286 19.6523,27.3408 9.7656,19.2744 15.8399,37.727 18.2217,55.3569 l -16.0791,56.0615 c -7.8594,-10.5776 -14.7676,-20.6855 -20.7227,-30.3227 -0.3593,-0.5752 -0.7168,-1.148 -1.0722,-1.7193 l 0,32.7979 c 6.9082,10.8599 10.3613,20.9507 10.3613,30.272 0,2.8208 -0.3574,6.229 -1.0713,10.2251 l -9.29,0 0,14.8091 92.8984,0 0,-14.8091 -28.2266,0 65.7432,-222.1319 24.6533,0 0,-14.8086 -107.1894,0 0,14.8086 27.1543,0 -26.7969,91.3213 c -5.7168,-27.0322 -15.8408,-51.3613 -30.3711,-72.9868 -5.8145,-8.7275 -11.7695,-15.9546 -17.8652,-21.6816 l 0,0 m 284.7695,3.3471 23.2246,0 c -8.3379,25.1514 -16.1973,53.8291 -23.582,86.0318 -3.8115,17.1601 -8.0996,38.3149 -12.8633,63.4663 l -6.0742,29.2651 c -4.5254,-5.1709 -7.9199,-9.6372 -10.1826,-13.3984 -2.2627,-3.7608 -5.6573,-9.8726 -10.1836,-18.3345 -7.1455,-13.3984 -12.9815,-25.9155 -17.5078,-37.6684 -6.669,-17.8643 -10.0049,-33.6138 -10.0049,-47.2471 0,-15.5142 0.9531,-25.7393 2.8593,-30.6758 1.1915,-3.2905 3.335,-4.877 6.4317,-4.877 3.5723,0 5.9551,-1.1757 7.1455,-3.5263 2.1435,-4.7012 3.2158,-15.6314 3.2158,-32.7905 0,-3.5259 -1.3691,-5.8765 -4.1094,-7.0518 -2.7382,-1.1753 -5.6562,-1.7632 -8.7539,-1.8218 -1.9043,0.059 -4.1084,0.1763 -6.6093,0.5288 -2.501,0.3526 -5.1211,0.7056 -7.8614,0.999 -2.7383,0.3526 -5.1806,0.5289 -7.3242,0.5289 -2.3818,0 -4.5254,-0.059 -6.4316,-0.1763 -1.9053,-0.1177 -3.5137,-0.294 -4.8233,-0.5293 -1.3095,-0.2344 -3.5136,-0.3521 -6.6103,-0.3521 -4.5254,0 -7.7412,1.0577 -9.6465,3.1729 -1.9063,2.1162 -3.0967,5.2891 -3.5733,9.5205 l 0,12.3403 c 0,13.1636 2.1436,26.0918 6.4307,38.7847 4.2881,12.6934 13.3399,32.3213 27.1563,58.8833 l 23.581,45.1313 c 8.0987,14.5738 14.3506,26.8555 18.7588,36.8458 4.4063,9.9902 6.6094,17.1005 6.6094,21.3315 0,3.7612 -1.0117,6.1699 -3.0371,7.228 -2.0244,1.0581 -5.0616,1.5869 -9.1114,1.5869 l -24.6523,0 0,14.8086 117.9082,0 0,-14.8086 -21.7949,0 c 3.8115,-28.6777 10.0039,-61.5859 18.5801,-98.7255 7.622,-33.8487 15.9589,-65.2291 25.0097,-94.1412 l 6.7891,-24.3291 26.083,0 0,-14.8086 -105.0459,0 0,14.8086 m -284.7695,236.941 0,-14.8091 -18.2227,0 0,14.8091 18.2227,0 0,0 m 0,-55.3062 0,-32.7979 c -4.5782,-7.3696 -8.7471,-14.4365 -12.5049,-21.1987 -6.6699,-11.5185 -11.5537,-21.0386 -14.6504,-28.5605 -5.9541,-13.8682 -9.5283,-26.4439 -10.7178,-37.7266 l 0,-9.1675 c 0.9522,-6.3467 3.2744,-10.813 6.9668,-13.3984 3.6914,-2.5859 8.1582,-3.8789 13.3985,-3.8789 5.9853,0 11.8212,2.4057 17.5078,7.2134 l 0,-45.4668 c -11.6348,-10.9322 -23.7832,-16.398 -36.4444,-16.398 -11.1963,0 -20.3662,3.1734 -27.5127,9.52 -8.3359,7.522 -12.5058,18.4522 -12.5058,32.7906 0,12.6933 2.9785,27.0322 8.9336,43.0166 5.2402,13.8681 12.7431,29.3823 22.5097,46.542 6.9082,11.7529 16.5547,27.0317 28.9414,45.8364 5.002,7.522 10.1231,15.0439 15.3633,22.5659 0.2422,0.3701 0.4805,0.7397 0.7149,1.1084 l 0,0 m -445.1973,-196.4434 0,14.8086 0,0 0,-14.8086 0,0 0,0 m 0,123.4063 0,16.0786 c 2.3047,-1.0815 4.4492,-1.6221 6.4316,-1.6221 5.7168,0 10.4805,2.3501 14.292,7.0518 5.9551,7.5215 8.9327,19.8623 8.9327,37.0215 0,17.1596 -1.7872,29.9707 -5.3594,38.4331 -4.7158,10.9341 -12.8145,16.4565 -24.2969,16.5688 l 0,14.7896 c 0.7129,0.014 1.4268,0.022 2.1436,0.022 28.3466,0 50.7373,-6.8174 67.1728,-20.4507 15.4824,-12.9283 23.2246,-29.6177 23.2246,-50.0674 0,-19.5103 -5.7764,-35.7881 -17.3281,-48.834 -11.5537,-13.0454 -25.9053,-19.5688 -43.0557,-19.5688 -6.1933,0 -11.5537,0.8227 -16.0791,2.4677 -1.1904,0.4707 -5.5976,2.7041 -13.2187,6.6997 l -2.8594,1.4102 0,0 m 345.8672,35.9643 -93.6133,0 0,14.8091 15.7227,0 c 0,23.2705 -4.17,40.1949 -12.5655,50.773 -6.4316,7.9917 -15.1855,11.9878 -26.2021,11.9878 -11.9707,0 -21.6172,-5.0537 -29.0606,-15.1612 -9.3496,-12.6933 -13.9941,-32.9087 -13.9941,-60.6455 0,-14.5737 1.0713,-28.6772 3.2148,-42.311 1.4297,-8.9326 4.7051,-23.7412 9.8262,-44.4263 5.1211,-20.685 7.6817,-37.7275 7.6817,-51.126 0,-2.8208 -0.4161,-5.7587 -1.25,-8.8144 -0.834,-3.0557 -1.3702,-5.0537 -1.6075,-5.9941 l -1.4297,-4.9361 c 2.1436,-1.4106 5.002,-2.1157 8.5752,-2.1157 13.3389,0 26.1426,9.0498 38.4092,27.1494 12.2676,18.0996 18.4024,37.8452 18.4024,59.2354 0,3.9956 0,6.934 0,8.8144 l -15.7227,0 0,14.8091 93.6133,0 0,-14.8091 -14.6484,0 c 0,-28.6772 -13.459,-53.5937 -40.375,-74.749 -25.0118,-19.7451 -51.9278,-29.6177 -80.751,-29.6177 -7.1455,0 -12.2071,0.294 -15.1846,0.8819 -2.9785,0.5874 -6.6103,1.7036 -10.8984,3.3496 l 0,4.936 c 0,9.6372 -0.9522,17.1592 -2.8575,22.5659 -3.3359,9.4024 -11.3144,22.0957 -23.9394,38.0796 -14.5303,18.335 -24.1777,34.084 -28.9414,47.2471 -3.336,9.1675 -5.002,20.2153 -5.002,33.144 0,33.3784 10.8379,60.1748 32.5137,80.3902 20.4854,19.2749 46.0918,28.9126 76.8203,28.9126 33.586,0 59.0733,-9.7549 76.4629,-29.2652 11.4326,-12.6933 18.8164,-28.7949 22.1524,-48.3047 l 14.6484,0 0,-14.8091 m -345.8672,92.357 0,-14.7896 c -0.1191,10e-4 -0.2383,0 -0.3574,0 -15.7207,0 -25.0108,-11.9878 -27.8692,-35.9053 -0.9531,-8.1685 -1.4296,-20.8618 -1.4296,-37.9624 l 0,-47.4819 22.8671,28.2661 c 2.4004,-1.9175 4.6641,-3.3745 6.7891,-4.3721 l 0,-16.0786 -5.002,2.4683 -24.6542,-31.733 0,-79.333 29.6562,0 0,-14.8086 -114.6934,0 0,14.8086 29.6563,0 0,129.0484 c 0,9.4023 0.1191,18.5698 0.3574,27.5019 0.2383,8.9322 0.4766,17.6289 0.7139,26.0913 6.9082,16.6895 18.2226,29.9117 33.9443,39.6665 15.1289,9.3882 31.8028,14.2579 50.0215,14.6109 l 0,0 m -494.3262,-251.7276 0,14.8086 14.1133,0 c 5.9551,0 10.0645,1.5279 12.3272,4.5835 2.2627,3.0562 3.3935,9.4029 3.3935,19.0401 l 0,39.8427 c 0,5.4063 -0.7148,9.2261 -2.1426,11.459 -1.4297,2.2334 -5.8359,5.3477 -13.2207,9.3438 -5.5547,2.9687 -10.3779,5.6328 -14.4707,7.9917 l 0,16.8095 c 5.9073,-3.4174 11.7432,-6.1606 17.5078,-8.2294 11.7911,-4.231 24.8321,-6.3467 39.125,-6.3467 l 3.2149,0 c 10.7187,0 17.8652,-1.7627 21.4385,-5.2891 2.6201,-2.5854 3.9306,-7.0517 3.9306,-13.3979 l 0,-5.9942 0,-56.062 0,-9.52 c 0,-7.2866 -0.9531,-11.8701 -2.8593,-13.751 -3.5723,-3.5259 -11.7911,-5.2886 -24.7129,-5.2886 l -57.6446,0 0,0 m 0,154.271 0,11.9307 0.3575,-0.1318 c 3.2158,-1.1753 5.538,-1.7632 6.9667,-1.7632 5.003,0 9.5284,2.2334 13.5782,6.6997 5.9551,6.5815 8.9316,16.4541 8.9316,29.6172 0,12.4585 -2.6797,21.626 -7.9785,27.5019 -5.3594,5.877 -12.0293,8.815 -20.0684,8.815 -0.6054,0 -1.2011,-0.018 -1.7871,-0.053 l 0,14.523 c 3.5176,0.2246 7.1494,0.3389 10.8985,0.3389 22.8672,0 41.208,-5.7593 55.0234,-17.2769 12.8633,-10.813 19.2949,-23.9761 19.2949,-39.4902 0,-17.6299 -6.0742,-30.7935 -18.2226,-39.4903 -9.7666,-7.0517 -22.2715,-10.5776 -37.5166,-10.5776 -5.7168,0 -11.1358,0.9399 -16.2569,2.8208 -4.207,1.5439 -8.6132,3.7226 -13.2207,6.5356 l 0,0 m 236.7119,-30.8647 13.2198,0 c -2.1436,6.8169 -5.418,12.0469 -9.8252,15.6904 -4.4073,3.6436 -8.6348,5.4649 -12.6846,5.4649 -7.6211,0 -15.0664,-1.3516 -22.3311,-4.0547 -7.2646,-2.7031 -13.2792,-6.7578 -18.0439,-12.1641 1.4297,-9.1675 2.6797,-16.2783 3.752,-21.332 1.0722,-5.0537 2.7988,-11.3418 5.1806,-18.8638 4.0498,-13.3979 6.5508,-22.3301 7.503,-26.7964 1.9062,-8.9326 2.8593,-19.04 2.8593,-30.3227 0,-4.7012 -0.1797,-7.9922 -0.5361,-9.8726 -0.3574,-1.8804 -1.3701,-4.8188 -3.0371,-8.8149 3.3349,-1.6455 7.7412,-2.4678 13.2197,-2.4678 20.4863,0 36.6836,6.1113 48.5938,18.3345 8.8125,9.167 14.7675,20.6855 17.8652,34.5537 l -17.8652,0 0,14.8091 93.6123,0 0,-14.4561 -13.1612,-0.353 c -11.1347,-19.6275 -25.6054,-35.5528 -43.4111,-47.8345 -19.4736,-13.2222 -39.6006,-19.8628 -60.5029,-19.8628 -9.9453,0 -20.3662,0.5288 -31.1455,1.5869 -10.7784,1.0576 -19.8301,2.7618 -27.2139,5.1123 0,1.6455 0,3.3496 0,5.1123 0,1.7637 0,3.1153 0,4.0552 0,8.2271 -2.1445,16.4546 -6.4316,24.6812 -3.335,6.3466 -8.4561,13.6333 -15.3633,21.8608 -16.1983,19.7451 -26.6797,34.7305 -31.4434,44.9551 -4.7637,10.2251 -7.1465,22.1543 -7.1465,35.7881 0,39.9604 13.8164,69.9301 41.4473,89.9101 21.9141,15.7495 48.832,23.6241 80.75,23.6241 20.0098,0 37.7559,-3.2911 53.2383,-9.8726 22.1523,-9.4028 37.3974,-24.564 45.7344,-45.4844 l 17.1503,0 0,-14.8091 -88.6103,0 0,14.8091 11.0771,0 c -1.9062,10.5777 -5.956,19.2749 -12.1484,26.0918 -8.5762,9.6377 -20.248,14.4561 -35.0156,14.4561 -17.3887,0 -30.6094,-8.4624 -39.6602,-25.3867 -7.623,-14.3384 -11.4346,-31.733 -11.4346,-52.1832 0,-6.1113 0.3565,-11.8706 1.0723,-17.2768 9.0518,7.7568 18.6397,13.3984 28.7627,16.9243 10.1231,3.5259 20.4258,5.2886 30.9063,5.2886 14.0546,0 27.2744,-3.6431 39.6601,-10.9302 12.3867,-7.2866 20.8428,-17.2768 25.3692,-29.9702 l 14.6484,0 0,-14.8086 -88.6104,0 0,14.8086 m -236.7119,128.0044 0,-14.523 c -12.0683,-0.7172 -20.3457,-8.8086 -24.832,-24.2758 -3.3359,-11.0479 -5.0029,-27.502 -5.0029,-49.3628 0,-3.7608 0,-7.3457 0,-10.7539 0,-3.4087 0,-6.7579 0,-10.0484 l 20.7236,27.854 c 2.9824,-1.584 6.0195,-2.9507 9.1113,-4.0991 l 0,-11.9307 c -1.0029,0.6119 -2.0156,1.2539 -3.0371,1.9263 l -15.7207,-19.3921 c 6.3301,-5.0459 12.583,-9.3545 18.7578,-12.9263 l 0,-16.8095 c -4.332,2.4966 -7.8457,4.6513 -10.541,6.4643 -7.6211,5.1714 -14.0537,10.6953 -19.2939,16.5718 l 0,-115.2969 29.8349,0 0,-14.8086 -114.872,0 0,14.8086 29.6552,0 0,111.771 c 0,42.5459 6.0743,73.104 18.2227,91.6734 13.0742,20.0927 35.4062,31.144 66.9941,33.1577 l 0,0 m -226.708,-236.6021 0,217.1958 -29.6553,0 0,14.8086 114.6934,0 0,-14.8086 -29.6562,0 0,-217.1958 29.6562,0 0,-14.8086 -114.6934,0 0,14.8086 29.6553,0 0,0 m -224.3838,156.3736 0,-156.3736 24.6524,0 0,-14.8086 -109.6914,0 0,14.8086 29.6562,0 0,217.1958 -29.6562,0 0,14.8086 109.6914,0 0,-14.8086 -24.6524,0 0,-37.375 78.9629,-95.5517 0,132.9267 -24.6543,0 0,14.8086 109.6914,0 0,-14.8086 -29.6552,0 0,-217.1958 29.6552,0 0,-14.8086 -109.6914,0 0,14.8086 24.6543,0 0,60.8218 -78.9629,95.5518 0,0 m -190.4414,-171.1822 -18.5801,0 -1.7871,-27.0317 0,-15.8081 c 0,-7.2871 0.3575,-13.3984 1.0723,-18.4522 0.7148,-5.0541 1.7861,-10.9301 3.2148,-17.7475 0.4766,-2.3501 0.7149,-3.937 0.7149,-4.877 0,-0.7055 0,-1.9985 0,-3.8789 l -33.9434,-2.4682 c 0,9.5791 0.4766,20.6855 1.4292,33.2026 0.9532,12.5171 2.1441,23.9175 3.5733,34.2012 l 2.8584,22.8598 -32.5142,0 -56.8115,232.0044 -14.6494,0 0,14.8086 96.1142,0 0,-14.8086 -24.6533,0 44.6621,-187.9306 c 7.1465,33.1435 14.3526,64.3476 21.6162,93.6123 7.2657,29.2651 13.2813,51.2436 18.045,65.9345 4.7636,14.6915 9.6464,25.3277 14.6484,31.9097 8.0996,10.8125 18.6992,16.2193 31.7998,16.2193 4.7646,0 10.6006,-0.9405 17.5088,-2.8208 6.9072,-1.8809 11.3144,-4.231 13.2197,-7.0518 -0.4766,-2.3506 -0.834,-3.9375 -1.0723,-4.7603 -0.2382,-0.8222 -0.9521,-2.7617 -2.1435,-5.8178 -1.668,-3.2906 -2.7988,-7.2867 -3.3945,-11.9878 -0.5957,-4.7012 -0.8926,-13.2813 -0.8926,-25.7393 l -5.3594,0 -6.4316,3.1734 c -3.8116,2.1152 -6.0743,3.291 -6.7891,3.5258 -2.6201,1.1753 -5.2402,1.7632 -7.8613,1.7632 -11.1953,0 -21.3184,-8.9321 -30.3692,-26.7969 -6.4326,-12.6933 -12.625,-31.7334 -18.58,-57.1201 -0.2383,-0.4697 -3.8116,-17.3945 -10.7198,-50.7724 -1.9052,-8.4624 -3.7509,-16.8072 -5.5381,-25.0342 -1.7861,-8.2271 -3.871,-17.3945 -6.2529,-27.502 l 17.8662,0 0,-14.8086 z" /><path
         inkscape:connector-curvature="0"
         id="path36"
         style="fill:#f0f0f0;fill-opacity:1;stroke:none;stroke-width:29.99510002;stroke-linecap:round;stroke-linejoin:round;stroke-miterlimit:22.92560005;stroke-dasharray:none;stroke-opacity:1"
         d="m 6401.4971,5547.9844 -16.0791,56.0615 c -7.8604,-10.5776 -14.7676,-20.6851 -20.7227,-30.3223 -5.0019,-7.9926 -9.5283,-15.6318 -13.5781,-22.9184 -6.669,-11.5186 -11.5527,-21.0381 -14.6484,-28.5601 -5.9551,-13.8686 -9.5293,-26.4443 -10.7188,-37.727 l 0,-9.1675 c 0.9521,-6.3467 3.2744,-10.813 6.9668,-13.3985 3.6914,-2.5854 8.1582,-3.8784 13.3984,-3.8784 13.1016,0 25.4873,11.5181 37.1602,34.5542 9.7656,19.2744 15.8398,37.7266 18.2217,55.3565 l 0,0 m -28.584,97.3144 -27.5127,0 0,14.8091 111.1211,0 0,-14.8091 -28.2266,0 65.7432,-222.1318 24.6533,0 0,-14.8086 -107.1894,0 0,14.8086 27.1543,0 -26.7969,91.3213 c -5.7168,-27.0318 -15.8408,-51.3609 -30.3711,-72.9863 -16.9121,-25.3868 -35.0156,-38.0796 -54.3096,-38.0796 -11.1963,0 -20.3662,3.1733 -27.5127,9.5195 -8.3369,7.522 -12.5058,18.4526 -12.5058,32.791 0,12.6934 2.9785,27.0322 8.9326,43.0161 5.2412,13.8687 12.7441,29.3828 22.5107,46.542 6.9072,11.7529 16.5547,27.0318 28.9414,45.8364 5.002,7.522 10.1231,15.0445 15.3633,22.566 7.3848,11.2832 11.0762,21.7436 11.0762,31.3808 0,2.8208 -0.3574,6.229 -1.0713,10.2246 l 0,0 m -256.542,-99.0776 13.2197,0 5.003,9.8726 5.7167,12.6933 7.502,15.1611 c 14.293,28.4424 23.582,45.4844 27.8701,51.126 12.3867,16.6895 26.7979,25.0337 43.2334,25.0337 5.4785,0 10.957,-0.5874 16.4356,-1.7627 5.4785,-1.1758 10.4814,-2.7036 15.0068,-4.584 -4.5254,-11.2827 -7.0264,-17.747 -7.5029,-19.3921 -0.4766,-1.646 -0.9532,-5.6416 -1.4297,-11.9882 -0.7149,-5.1714 -1.0723,-8.8736 -1.0723,-11.1065 0,-2.2334 0,-4.1723 0,-5.8179 l -7.1455,0 -11.4336,4.5835 c -3.3349,1.6455 -6.4306,2.7622 -9.29,3.3496 -2.8574,0.5879 -6.1934,0.8814 -10.0039,0.8814 -14.293,0 -33.7051,-23.9761 -58.2403,-71.9282 30.4893,-6.8169 53.1192,-17.1597 67.8868,-31.0279 21.2001,-19.7451 31.8007,-49.1279 31.8007,-88.1479 l 21.4375,0 0,-14.8086 -97.1855,0 0,14.8086 13.9346,0 c 0,34.5542 -3.5733,59.1177 -10.7198,73.6919 -9.5273,19.5098 -27.8691,31.8506 -55.0234,37.022 l 0,-110.7139 22.1523,0 0,-14.8086 -107.1904,0 0,14.8086 29.6553,0 0,217.1958 -29.6553,0 0,14.8091 109.6914,0 0,-14.8091 -24.6533,0 0,-94.1416 0,0 m -227.2441,-123.0542 32.1572,0 c 7.8603,0 13.5771,0.8232 17.1504,2.4683 6.4326,2.8208 9.6474,8.5795 9.6474,17.2768 l 0,41.9585 0,8.4619 c 0,6.1118 -0.834,10.1665 -2.5019,12.1646 -1.666,1.998 -6.669,4.29 -14.9463,6.8755 -8.2774,2.5854 -15.2451,5.2885 -21.0215,8.1093 -7.2051,3.5264 -13.9941,7.9922 -20.4853,13.399 l 0,-110.7139 0,0 m 29.6562,232.0049 0,-14.8091 -29.6562,0 0,-87.0899 c 9.5283,-8.6967 22.9863,-15.9838 40.375,-21.8603 14.7695,-4.9365 27.1552,-7.4043 37.1601,-7.4043 l 14.6484,0.7046 c 1.4297,0.2353 3.4551,0.353 6.0743,0.353 5.2402,0 9.2304,-1.5278 11.9697,-4.584 2.7393,-3.0551 4.1094,-9.2846 4.1094,-18.687 l 0,-68.7549 c 0,-10.8134 -1.7871,-17.8652 -5.3604,-21.1557 -2.6191,-2.3506 -8.0976,-3.5259 -16.4355,-3.5259 l -177.5782,0 0,14.8086 29.6553,0 0,217.1958 -29.6553,0 0,14.8091 114.6934,0 0,0 m -138.6328,-87.4424 -93.6133,0 0,14.8086 15.7207,0 c 0,23.271 -4.168,40.1948 -12.5644,50.7729 -6.4317,7.9922 -15.1856,11.9878 -26.2022,11.9878 -11.9697,0 -21.6162,-5.0537 -29.0596,-15.1611 -9.3496,-12.6934 -13.9951,-32.9082 -13.9951,-60.6455 0,-14.5737 1.0713,-28.6773 3.2158,-42.3106 1.4297,-8.9326 4.7051,-23.7412 9.8262,-44.4262 5.1211,-20.6856 7.6817,-37.7276 7.6817,-51.126 0,-2.8208 -0.417,-5.7588 -1.251,-8.8149 -0.833,-3.0557 -1.3701,-5.0538 -1.6074,-5.9937 l -1.4297,-4.9365 c 2.1435,-1.4107 5.0029,-2.1153 8.5752,-2.1153 13.3398,0 26.1425,9.0494 38.4101,27.149 12.2676,18.1001 18.4004,37.8452 18.4004,59.2353 0,3.9961 0,6.9341 0,8.815 l -15.7207,0 0,14.809 93.6133,0 0,-14.809 -14.6504,0 c 0,-28.6773 -13.457,-53.5938 -40.374,-74.7491 -25.0108,-19.7456 -51.9287,-29.6176 -80.75,-29.6176 -7.1465,0 -12.208,0.2939 -15.1846,0.8813 -2.9785,0.5874 -6.6113,1.7046 -10.8984,3.3501 l 0,4.936 c 0,9.6373 -0.9532,17.1592 -2.8584,22.5655 -3.335,9.4023 -11.3145,22.0957 -23.9395,38.0796 -14.5303,18.3349 -24.1767,34.0839 -28.9404,47.247 -3.3359,9.168 -5.0039,20.2154 -5.0039,33.1441 0,33.3784 10.8388,60.1748 32.5156,80.3901 20.4844,19.2749 46.0918,28.9126 76.8193,28.9126 33.586,0 59.0733,-9.7549 76.462,-29.2651 11.4336,-12.6934 18.8183,-28.7949 22.1523,-48.3047 l 14.6504,0 0,-14.8086 0,0 m -415.541,11.8115 0,-156.374 24.6533,0 0,-14.8086 -109.6914,0 0,14.8086 29.6553,0 0,217.1958 -29.6553,0 0,14.8091 109.6914,0 0,-14.8091 -24.6533,0 0,-37.3745 78.9629,-95.5518 0,132.9263 -24.6543,0 0,14.8091 109.6914,0 0,-14.8091 -29.6543,0 0,-217.1958 29.6543,0 0,-14.8086 -109.6914,0 0,14.8086 24.6543,0 0,60.8223 -78.9629,95.5517 0,0 m -200.8037,-156.374 0,217.1958 -29.6553,0 0,14.8091 114.6934,0 0,-14.8091 -29.6563,0 0,-217.1958 29.6563,0 0,-14.8086 -114.6934,0 0,14.8086 29.6553,0 0,0 m -166.1455,124.8174 -16.0782,56.0615 c -7.8603,-10.5776 -14.7685,-20.6851 -20.7226,-30.3223 -5.002,-7.9926 -9.5293,-15.6318 -13.5781,-22.9184 -6.67,-11.5186 -11.5528,-21.0381 -14.6495,-28.5601 -5.955,-13.8686 -9.5283,-26.4443 -10.7187,-37.727 l 0,-9.1675 c 0.9521,-6.3467 3.2744,-10.813 6.9678,-13.3985 3.6914,-2.5854 8.1582,-3.8784 13.3984,-3.8784 13.1016,0 25.4873,11.5181 37.1592,34.5542 9.7666,19.2744 15.8408,37.7266 18.2217,55.3565 l 0,0 m -28.584,97.3144 -27.5117,0 0,14.8091 111.121,0 0,-14.8091 -28.2265,0 65.7422,-222.1318 24.6543,0 0,-14.8086 -107.1895,0 0,14.8086 27.1543,0 -26.7978,91.3213 c -5.7168,-27.0318 -15.8409,-51.3609 -30.3702,-72.9863 -16.9121,-25.3868 -35.0156,-38.0796 -54.3105,-38.0796 -11.1953,0 -20.3652,3.1733 -27.5117,9.5195 -8.3379,7.522 -12.5059,18.4526 -12.5059,32.791 0,12.6934 2.9776,27.0322 8.9336,43.0161 5.2402,13.8687 12.7422,29.3828 22.5088,46.542 6.9082,11.7529 16.5557,27.0318 28.9424,45.8364 5.0019,7.522 10.123,15.0445 15.3633,22.566 7.3847,11.2832 11.0761,21.7436 11.0761,31.3808 0,2.8208 -0.3574,6.229 -1.0722,10.2246 l 0,0 m -236.5332,-121.3496 22.8672,28.2661 c 5.0019,-3.9961 9.4101,-5.9941 13.2207,-5.9941 5.7168,0 10.4804,2.3506 14.292,7.0517 5.955,7.522 8.9326,19.8628 8.9326,37.022 0,17.1597 -1.7871,29.9702 -5.3594,38.4326 -4.7637,11.0479 -12.9824,16.5713 -24.6543,16.5713 -15.7207,0 -25.0107,-11.9878 -27.8691,-35.9048 -0.9532,-8.1689 -1.4297,-20.8618 -1.4297,-37.9624 l 0,-47.4824 0,0 m 0,-21.4492 0,-79.333 29.6562,0 0,-14.8086 -114.6933,0 0,14.8086 29.6562,0 0,129.0483 c 0,9.4024 0.1192,18.5699 0.3574,27.502 0.2383,8.9321 0.4766,17.6294 0.7149,26.0918 6.9072,16.6894 18.2217,29.9116 33.9433,39.6665 15.7207,9.7549 33.1094,14.6323 52.1661,14.6323 28.3457,0 50.7363,-6.8169 67.1718,-20.4502 15.4824,-12.9282 23.2246,-29.6177 23.2246,-50.0679 0,-19.5097 -5.7763,-35.788 -17.3281,-48.8339 -11.5537,-13.0455 -25.9043,-19.5684 -43.0557,-19.5684 -6.1933,0 -11.5527,0.8228 -16.0791,2.4678 -1.1904,0.4702 -5.5976,2.7036 -13.2187,6.6992 l -7.8613,3.8789 -24.6543,-31.7334 0,0 m -256.8985,43.7212 13.2188,0 5.0029,9.8726 5.7168,12.6933 7.5029,15.1611 c 14.293,28.4424 23.5821,45.4844 27.8692,51.126 12.3867,16.6895 26.7988,25.0337 43.2344,25.0337 5.4785,0 10.957,-0.5874 16.4355,-1.7627 5.4785,-1.1758 10.4805,-2.7036 15.0068,-4.584 -4.5263,-11.2827 -7.0263,-17.747 -7.5029,-19.3921 -0.4766,-1.646 -0.9531,-5.6416 -1.4297,-11.9882 -0.7148,-5.1714 -1.0722,-8.8736 -1.0722,-11.1065 0,-2.2334 0,-4.1723 0,-5.8179 l -7.1465,0 -11.4336,4.5835 c -3.334,1.6455 -6.4307,2.7622 -9.2891,3.3496 -2.8574,0.5879 -6.1933,0.8814 -10.0039,0.8814 -14.293,0 -33.706,-23.9761 -58.2402,-71.9282 30.4892,-6.8169 53.1191,-17.1597 67.8867,-31.0279 21.2002,-19.7451 31.7998,-49.1279 31.7998,-88.1479 l 21.4385,0 0,-14.8086 -97.1866,0 0,14.8086 13.9356,0 c 0,34.5542 -3.5732,59.1177 -10.7197,73.6919 -9.5274,19.5098 -27.8692,31.8506 -55.0235,37.022 l 0,-110.7139 22.1524,0 0,-14.8086 -107.1914,0 0,14.8086 29.6562,0 0,217.1958 -29.6562,0 0,14.8091 109.6914,0 0,-14.8091 -24.6524,0 0,-94.1416 0,0 m -190.4414,-137.8628 -18.5801,0 -1.7871,-27.0317 0,-15.8077 c 0,-7.2871 0.3575,-13.3989 1.0723,-18.4521 0.7148,-5.0542 1.7861,-10.9307 3.2148,-17.7476 0.4766,-2.3505 0.7149,-3.937 0.7149,-4.8774 0,-0.7051 0,-1.9976 0,-3.8784 l -33.9434,-2.4683 c 0,9.5786 0.4766,20.6856 1.4297,33.2027 0.9527,12.5166 2.1436,23.9174 3.5728,34.2011 l 2.8584,22.8594 -32.5142,0 -56.811,232.0044 -14.6499,0 0,14.8091 96.1142,0 0,-14.8091 -24.6533,0 44.6621,-187.9307 c 7.1465,33.1441 14.3526,64.3477 21.6172,93.6133 7.2647,29.2642 13.2803,51.2427 18.044,65.9341 4.7636,14.6914 9.6464,25.3276 14.6484,31.9092 8.0996,10.8125 18.6992,16.2192 31.8008,16.2192 4.7636,0 10.5996,-0.9404 17.5078,-2.8208 6.9072,-1.8804 11.3144,-4.2309 13.2197,-7.0517 -0.4756,-2.3506 -0.834,-3.9371 -1.0723,-4.7598 -0.2373,-0.8228 -0.9521,-2.7622 -2.1435,-5.8179 -1.668,-3.291 -2.7988,-7.2866 -3.3945,-11.9878 -0.5957,-4.7016 -0.8926,-13.2812 -0.8926,-25.7392 l -5.3594,0 -6.4316,3.1733 c -3.8116,2.1152 -6.0743,3.2905 -6.7891,3.5254 -2.6201,1.1758 -5.2402,1.7632 -7.8613,1.7632 -11.1953,0 -21.3184,-8.9322 -30.3692,-26.7964 -6.4326,-12.6934 -12.625,-31.7334 -18.58,-57.1201 -0.2383,-0.4702 -3.8116,-17.3946 -10.7198,-50.7725 -1.9052,-8.4624 -3.7509,-16.8071 -5.5381,-25.0342 -1.7861,-8.2275 -3.871,-17.3945 -6.2519,-27.5024 l 17.8652,0 0,-14.8086 0,0 m 878.4375,303.7603 c 10.5205,0 19.0489,-8.939 19.0489,-19.9664 0,-11.0268 -8.5284,-19.9658 -19.0489,-19.9658 -10.5195,0 -19.0478,8.939 -19.0478,19.9658 0,11.0274 8.5283,19.9664 19.0478,19.9664 l 0,0 m 55.294,0 c 10.5195,0 19.0478,-8.939 19.0478,-19.9664 0,-11.0268 -8.5283,-19.9658 -19.0478,-19.9658 -10.5205,0 -19.0479,8.939 -19.0479,19.9658 0,11.0274 8.5274,19.9664 19.0479,19.9664 z" /><path
         inkscape:connector-curvature="0"
         id="path38"
         style="fill:#f0f0f0;fill-opacity:1;fill-rule:evenodd;stroke:none"
         d="m 6401.4971,5547.9844 -16.0791,56.0615 c -7.8604,-10.5776 -14.7676,-20.6851 -20.7227,-30.3223 -0.3594,-0.5747 -0.7168,-1.1479 -1.0723,-1.7192 l 0,32.7969 c 6.9083,10.8603 10.3614,20.9516 10.3614,30.2729 0,2.8208 -0.3574,6.229 -1.0713,10.2246 l -9.2901,0 0,14.8091 92.8985,0 0,-14.8091 -28.2266,0 65.7432,-222.1318 24.6533,0 0,-14.8086 -107.1894,0 0,14.8086 27.1543,0 -26.7969,91.3213 c -5.7168,-27.0318 -15.8408,-51.3609 -30.3711,-72.9863 -5.8145,-8.7276 -11.7695,-15.9551 -17.8653,-21.6822 l 0,45.4673 c 6.7618,5.7163 13.3125,14.8286 19.6524,27.3408 9.7656,19.2744 15.8398,37.7266 18.2217,55.3565 m -37.8741,24.02 c -4.5781,-7.3701 -8.747,-14.4365 -12.5058,-21.1992 -6.669,-11.5186 -11.5527,-21.0381 -14.6484,-28.5601 -5.9551,-13.8686 -9.5293,-26.4443 -10.7188,-37.727 l 0,-9.1675 c 0.9521,-6.3467 3.2744,-10.813 6.9668,-13.3985 3.6914,-2.5854 8.1582,-3.8784 13.3984,-3.8784 5.9854,0 11.8213,2.4053 17.5078,7.2134 l 0,-45.4673 c -11.6347,-10.9316 -23.7832,-16.3974 -36.4443,-16.3974 -11.1963,0 -20.3662,3.1733 -27.5127,9.5195 -8.3369,7.522 -12.5058,18.4526 -12.5058,32.791 0,12.6934 2.9785,27.0322 8.9326,43.0161 5.2412,13.8687 12.7441,29.3828 22.5107,46.542 6.9072,11.7529 16.5547,27.0318 28.9414,45.8364 5.002,7.522 10.1231,15.0445 15.3633,22.566 0.2422,0.3701 0.4805,0.7397 0.7148,1.1079 l 0,-32.7969 0,0 m 0,88.1035 0,-14.8091 -18.2226,0 0,14.8091 18.2226,0 0,0 m -445.0185,-251.7495 0,14.8086 2.6797,0 c 7.8603,0 13.5771,0.8232 17.1504,2.4683 6.4326,2.8208 9.6474,8.5795 9.6474,17.2768 l 0,41.9585 0,8.4619 c 0,6.1118 -0.834,10.1665 -2.5019,12.1646 -1.666,1.998 -6.669,4.29 -14.9463,6.8755 -4.3692,1.3647 -8.3721,2.7627 -12.0293,4.1928 l 0,18.9273 c 3.4424,-1.4282 7.0752,-2.7886 10.8975,-4.0801 14.7695,-4.9365 27.1552,-7.4043 37.1601,-7.4043 l 14.6484,0.7046 c 1.4297,0.2353 3.4551,0.353 6.0743,0.353 5.2402,0 9.2304,-1.5278 11.9697,-4.584 2.7393,-3.0551 4.1094,-9.2846 4.1094,-18.687 l 0,-68.7549 c 0,-10.8134 -1.7871,-17.8652 -5.3604,-21.1557 -2.6191,-2.3506 -8.0976,-3.5259 -16.4355,-3.5259 l -63.0635,0 0,0 m 0,232.0044 0,14.8091 0.1787,0 0,-14.8091 -0.1787,0 0,0 m 197.7666,-94.1416 13.2197,0 5.003,9.8726 5.7167,12.6933 7.502,15.1611 c 14.293,28.4424 23.582,45.4844 27.8701,51.126 12.3867,16.6895 26.7979,25.0337 43.2334,25.0337 5.4785,0 10.957,-0.5874 16.4356,-1.7627 5.4785,-1.1758 10.4814,-2.7036 15.0068,-4.584 -4.5254,-11.2827 -7.0264,-17.747 -7.5029,-19.3921 -0.4766,-1.646 -0.9532,-5.6416 -1.4297,-11.9882 -0.7149,-5.1714 -1.0723,-8.8736 -1.0723,-11.1065 0,-2.2334 0,-4.1723 0,-5.8179 l -7.1455,0 -11.4336,4.5835 c -3.3349,1.6455 -6.4306,2.7622 -9.29,3.3496 -2.8574,0.5879 -6.1934,0.8814 -10.0039,0.8814 -14.293,0 -33.7051,-23.9761 -58.2403,-71.9282 30.4893,-6.8169 53.1192,-17.1597 67.8868,-31.0279 21.2001,-19.7451 31.8007,-49.1279 31.8007,-88.1479 l 21.4375,0 0,-14.8086 -97.1855,0 0,14.8086 13.9346,0 c 0,34.5542 -3.5733,59.1177 -10.7198,73.6919 -9.5273,19.5098 -27.8691,31.8506 -55.0234,37.022 l 0,-110.7139 22.1523,0 0,-14.8086 -107.1904,0 0,14.8086 29.6553,0 0,217.1958 -29.6553,0 0,14.8091 109.6914,0 0,-14.8091 -24.6533,0 0,-94.1416 m -197.7666,108.9507 0,-14.8091 -29.4775,0 0,-87.0899 c 7.4335,-6.7851 17.2597,-12.7119 29.4775,-17.7802 l 0,-18.9273 c -3.2705,1.2793 -6.2647,2.5845 -8.9922,3.9165 -7.2051,3.5264 -13.9941,7.9922 -20.4853,13.399 l 0,-110.7139 29.4775,0 0,-14.8086 -114.5147,0 0,14.8086 29.6553,0 0,217.1958 -29.6553,0 0,14.8091 114.5147,0 0,0 m -958.8174,-235.3521 0,45.4668 c 6.7608,5.7163 13.3115,14.8291 19.6514,27.3413 9.7666,19.2744 15.8408,37.7266 18.2217,55.3565 l -16.0782,56.0615 c -7.8603,-10.5776 -14.7685,-20.6851 -20.7226,-30.3223 -0.3604,-0.5747 -0.7178,-1.1479 -1.0723,-1.7192 l 0,32.7969 c 6.9082,10.8603 10.3613,20.9516 10.3613,30.2729 0,2.8208 -0.3574,6.229 -1.0722,10.2246 l -9.2891,0 0,14.8091 92.8984,0 0,-14.8091 -28.2265,0 65.7422,-222.1318 24.6543,0 0,-14.8086 -107.1895,0 0,14.8086 27.1543,0 -26.7978,91.3213 c -5.7168,-27.0318 -15.8409,-51.3609 -30.3702,-72.9863 -5.8144,-8.7276 -11.7695,-15.9551 -17.8652,-21.6822 l 0,0 m 820.3633,147.9097 -93.6133,0 0,14.8086 15.7207,0 c 0,23.271 -4.168,40.1948 -12.5644,50.7729 -6.4317,7.9922 -15.1856,11.9878 -26.2022,11.9878 -11.9697,0 -21.6162,-5.0537 -29.0596,-15.1611 -9.3496,-12.6934 -13.9951,-32.9082 -13.9951,-60.6455 0,-14.5737 1.0713,-28.6773 3.2158,-42.3106 1.4297,-8.9326 4.7051,-23.7412 9.8262,-44.4262 5.1211,-20.6856 7.6817,-37.7276 7.6817,-51.126 0,-2.8208 -0.417,-5.7588 -1.251,-8.8149 -0.833,-3.0557 -1.3701,-5.0538 -1.6074,-5.9937 l -1.4297,-4.9365 c 2.1435,-1.4107 5.0029,-2.1153 8.5752,-2.1153 13.3398,0 26.1425,9.0494 38.4101,27.149 12.2676,18.1001 18.4004,37.8452 18.4004,59.2353 0,3.9961 0,6.9341 0,8.815 l -15.7207,0 0,14.809 93.6133,0 0,-14.809 -14.6504,0 c 0,-28.6773 -13.457,-53.5938 -40.374,-74.7491 -25.0108,-19.7456 -51.9287,-29.6176 -80.75,-29.6176 -7.1465,0 -12.208,0.2939 -15.1846,0.8813 -2.9785,0.5874 -6.6113,1.7046 -10.8984,3.3501 l 0,4.936 c 0,9.6373 -0.9532,17.1592 -2.8584,22.5655 -3.335,9.4023 -11.3145,22.0957 -23.9395,38.0796 -14.5303,18.3349 -24.1767,34.0839 -28.9404,47.247 -3.3359,9.168 -5.0039,20.2154 -5.0039,33.1441 0,33.3784 10.8388,60.1748 32.5156,80.3901 20.4844,19.2749 46.0918,28.9126 76.8193,28.9126 33.586,0 59.0733,-9.7549 76.462,-29.2651 11.4336,-12.6934 18.8183,-28.7949 22.1523,-48.3047 l 14.6504,0 0,-14.8086 0,0 m -415.541,11.8115 0,-156.374 24.6533,0 0,-14.8086 -109.6914,0 0,14.8086 29.6553,0 0,217.1958 -29.6553,0 0,14.8091 109.6914,0 0,-14.8091 -24.6533,0 0,-37.3745 78.9629,-95.5518 0,132.9263 -24.6543,0 0,14.8091 109.6914,0 0,-14.8091 -29.6543,0 0,-217.1958 29.6543,0 0,-14.8086 -109.6914,0 0,14.8086 24.6543,0 0,60.8223 -78.9629,95.5517 0,0 m -200.8037,-156.374 0,217.1958 -29.6553,0 0,14.8091 114.6934,0 0,-14.8091 -29.6563,0 0,-217.1958 29.6563,0 0,-14.8086 -114.6934,0 0,14.8086 29.6553,0 0,0 m -0.1651,288.9517 c 10.5205,0 19.0489,-8.939 19.0489,-19.9664 0,-11.0268 -8.5284,-19.9658 -19.0489,-19.9658 -10.5195,0 -19.0478,8.939 -19.0478,19.9658 0,11.0274 8.5283,19.9664 19.0478,19.9664 l 0,0 m 55.294,0 c 10.5195,0 19.0478,-8.939 19.0478,-19.9664 0,-11.0268 -8.5283,-19.9658 -19.0478,-19.9658 -10.5205,0 -19.0479,8.939 -19.0479,19.9658 0,11.0274 8.5274,19.9664 19.0479,19.9664 m -259.1475,-52.0108 0,-14.8091 -18.2226,0 0,14.8091 18.2226,0 0,0 m 0,-55.3066 0,-32.7969 c -4.5791,-7.3701 -8.748,-14.4365 -12.5058,-21.1992 -6.67,-11.5186 -11.5528,-21.0381 -14.6495,-28.5601 -5.955,-13.8686 -9.5283,-26.4443 -10.7187,-37.727 l 0,-9.1675 c 0.9521,-6.3467 3.2744,-10.813 6.9678,-13.3985 3.6914,-2.5854 8.1582,-3.8784 13.3984,-3.8784 5.9844,0 11.8203,2.4053 17.5078,7.2129 l 0,-45.4668 c -11.6357,-10.9316 -23.7832,-16.3974 -36.4453,-16.3974 -11.1953,0 -20.3652,3.1733 -27.5117,9.5195 -8.3379,7.522 -12.5059,18.4526 -12.5059,32.791 0,12.6934 2.9776,27.0322 8.9336,43.0161 5.2402,13.8687 12.7422,29.3828 22.5088,46.542 6.9082,11.7529 16.5557,27.0318 28.9424,45.8364 5.0019,7.522 10.123,15.0445 15.3633,22.566 0.2422,0.3701 0.4804,0.7397 0.7148,1.1079 l 0,0 m -197.5879,-73.0362 0,16.0782 c 2.3047,-1.0811 4.4492,-1.6221 6.4317,-1.6221 5.7168,0 10.4804,2.3506 14.292,7.0517 5.955,7.522 8.9326,19.8628 8.9326,37.022 0,17.1597 -1.7871,29.9702 -5.3594,38.4326 -4.7158,10.9346 -12.8145,16.4566 -24.2969,16.5689 l 0,14.79 c 0.7129,0.014 1.4268,0.021 2.1446,0.021 28.3457,0 50.7363,-6.8169 67.1718,-20.4502 15.4824,-12.9282 23.2246,-29.6177 23.2246,-50.0679 0,-19.5097 -5.7763,-35.788 -17.3281,-48.8339 -11.5537,-13.0455 -25.9043,-19.5684 -43.0557,-19.5684 -6.1933,0 -11.5527,0.8228 -16.0791,2.4678 -1.1904,0.4702 -5.5976,2.7036 -13.2187,6.6992 l -2.8594,1.4106 m 0,128.3213 0,-14.79 c -0.1191,0 -0.2383,0 -0.3574,0 -15.7207,0 -25.0107,-11.9878 -27.8691,-35.9048 -0.9532,-8.1689 -1.4297,-20.8618 -1.4297,-37.9624 l 0,-47.4824 22.8672,28.2661 c 2.4003,-1.9174 4.664,-3.3745 6.789,-4.372 l 0,-16.0782 -5.0019,2.4683 -24.6543,-31.7334 0,-79.333 29.6562,0 0,-14.8086 -114.6933,0 0,14.8086 29.6562,0 0,129.0483 c 0,9.4024 0.1192,18.5699 0.3574,27.502 0.2383,8.9321 0.4766,17.6294 0.7149,26.0918 6.9072,16.6894 18.2217,29.9116 33.9433,39.6665 15.1289,9.3877 31.8028,14.2578 50.0215,14.6108 l 0,0 m -286.5547,-113.8652 13.2188,0 5.0029,9.8726 5.7168,12.6933 7.5029,15.1611 c 14.293,28.4424 23.5821,45.4844 27.8692,51.126 12.3867,16.6895 26.7988,25.0337 43.2344,25.0337 5.4785,0 10.957,-0.5874 16.4355,-1.7627 5.4785,-1.1758 10.4805,-2.7036 15.0068,-4.584 -4.5263,-11.2827 -7.0263,-17.747 -7.5029,-19.3921 -0.4766,-1.646 -0.9531,-5.6416 -1.4297,-11.9882 -0.7148,-5.1714 -1.0722,-8.8736 -1.0722,-11.1065 0,-2.2334 0,-4.1723 0,-5.8179 l -7.1465,0 -11.4336,4.5835 c -3.334,1.6455 -6.4307,2.7622 -9.2891,3.3496 -2.8574,0.5879 -6.1933,0.8814 -10.0039,0.8814 -14.293,0 -33.706,-23.9761 -58.2402,-71.9282 30.4892,-6.8169 53.1191,-17.1597 67.8867,-31.0279 21.2002,-19.7451 31.7998,-49.1279 31.7998,-88.1479 l 21.4385,0 0,-14.8086 -97.1866,0 0,14.8086 13.9356,0 c 0,34.5542 -3.5732,59.1177 -10.7197,73.6919 -9.5274,19.5098 -27.8692,31.8506 -55.0235,37.022 l 0,-110.7139 22.1524,0 0,-14.8086 -107.1914,0 0,14.8086 29.6562,0 0,217.1958 -29.6562,0 0,14.8091 109.6914,0 0,-14.8091 -24.6524,0 0,-94.1416 0,0 m -190.4414,-137.8628 -18.5801,0 -1.7871,-27.0317 0,-15.8077 c 0,-7.2871 0.3575,-13.3989 1.0723,-18.4521 0.7148,-5.0542 1.7861,-10.9307 3.2148,-17.7476 0.4766,-2.3505 0.7149,-3.937 0.7149,-4.8774 0,-0.7051 0,-1.9976 0,-3.8784 l -33.9434,-2.4683 c 0,9.5786 0.4766,20.6856 1.4297,33.2027 0.9527,12.5166 2.1436,23.9174 3.5728,34.2011 l 2.8584,22.8594 -32.5142,0 -56.811,232.0044 -14.6499,0 0,14.8091 96.1142,0 0,-14.8091 -24.6533,0 44.6621,-187.9307 c 7.1465,33.1441 14.3526,64.3477 21.6172,93.6133 7.2647,29.2642 13.2803,51.2427 18.044,65.9341 4.7636,14.6914 9.6464,25.3276 14.6484,31.9092 8.0996,10.8125 18.6992,16.2192 31.8008,16.2192 4.7636,0 10.5996,-0.9404 17.5078,-2.8208 6.9072,-1.8804 11.3144,-4.2309 13.2197,-7.0517 -0.4756,-2.3506 -0.834,-3.9371 -1.0723,-4.7598 -0.2373,-0.8228 -0.9521,-2.7622 -2.1435,-5.8179 -1.668,-3.291 -2.7988,-7.2866 -3.3945,-11.9878 -0.5957,-4.7016 -0.8926,-13.2812 -0.8926,-25.7392 l -5.3594,0 -6.4316,3.1733 c -3.8116,2.1152 -6.0743,3.2905 -6.7891,3.5254 -2.6201,1.1758 -5.2402,1.7632 -7.8613,1.7632 -11.1953,0 -21.3184,-8.9322 -30.3692,-26.7964 -6.4326,-12.6934 -12.625,-31.7334 -18.58,-57.1201 -0.2383,-0.4702 -3.8116,-17.3946 -10.7198,-50.7725 -1.9052,-8.4624 -3.7509,-16.8071 -5.5381,-25.0342 -1.7861,-8.2275 -3.871,-17.3945 -6.2519,-27.5024 l 17.8652,0 0,-14.8086 z" /></g></g></svg>