<svg xmlns="http://www.w3.org/2000/svg" width="3389.703" height="781.797" viewBox="0 0 3389.7029 781.797"><g fill="#fff"><path d="M389.21-25.44L158.062 453.963c-.422-.573-.84-1.126-1.22-1.567-2.7-3.288-5.93-5.08-9.706-5.35-2.7-.55-7.96-.826-15.785-.826-6.47 0-11.597.405-15.372 1.23-3.507.55-5.267 1.79-5.267 3.713 0 1.646.144 3.565.412 5.755.535 1.926 1.758 5.635 3.64 11.126 5.04 13.89 9.642 29.6 13.837 47.028L0 781.797h772.607L651.235 526.244c5.01-21.97 10.635-41.4 16.908-58.2 1.948-5.488 3.197-9.19 3.754-11.115.278-2.195.418-4.11.418-5.756 0-1.924-1.812-3.162-5.425-3.707-3.894-.826-9.176-1.237-15.85-1.237-8.062 0-13.48.27-16.26.82-3.89.27-7.228 2.057-10.006 5.354-1.38 1.555-3.14 4.233-5.078 7.444L389.214-25.436zm-.44 84.68l110.35 232.35c-12.366.3-23.84.83-34.188 1.643-16.423.86-25.806 1.294-28.15 1.294h-79.186c-28.107-.305-54.897-.61-81.835-.912L388.77 59.243zM263.5 319.043H287.8v124.4c-2.33-.33-4.947-.514-7.936-.514-18.347 0-33.05 9.87-44.11 29.63-5.937 10.702-11.197 25.932-15.786 45.69-3.238 13.17-6.066 27.02-8.493 41.568-2.425 14.538-4.59 33.206-6.48 55.98h-15.376l-.81-6.59c0-12.348-2.558-35.942-7.683-70.795-2.062-13.82-4.086-25.71-6.08-35.92L263.5 319.04zm110.514 0h34.014c18.382 0 32.46 3.874 42.236 11.614 14.858 12.05 26.59 35.07 35.193 69.06 2.737 10.753 4.5 16.99 5.283 18.713 2.336 5.157 6.447 7.74 12.315 7.74 7.04 0 11.726-4.522 14.07-13.554.78-3.44 1.958-12.907 3.52-28.395 1.214-12.002 3.374-23.22 6.466-33.67l76.955 162.01c-1.428 7.782-2.873 16.35-4.327 25.827-5.277 34.83-7.916 58.418-7.916 70.76l-.836 6.577h-15.843c-1.95-22.76-4.176-41.412-6.682-55.947-2.496-14.538-5.417-28.39-8.75-41.556-4.727-19.747-10.154-34.97-16.27-45.668-11.396-19.747-26.54-29.622-45.445-29.622-5.562 0-10.008.55-13.34 1.654-3.335.82-5.002 2.867-5.002 6.16 0 2.47.836 5.22 2.506 8.232 1.39 3.02 2.916 6.038 4.586 9.055 1.39 4.118 2.08 8.36 2.08 12.748v13.168c0 3.294.275 5.76.835 7.41l9.17.404c1.67-6.58 6.672-9.865 15.012-9.865 11.117 0 20.15 7.814 27.097 23.45 10.29 23.042 15.434 61.167 15.434 114.373 0 26.057-.836 44.844-2.506 56.367-3.613 24.956-5.424 38.26-5.424 39.914 0 2.735 2.227 4.93 6.674 6.576 4.176 1.648 13.204 2.47 27.103 2.47 4.724 0 7.093-3.02 7.093-9.055 0-14.81-.282-25.92-.835-33.327-.835-7.13-3.064-21.94-6.675-44.434l-2.5-19.34h22.934c11.123 0 18.623.14 22.514.402 3.892.28 7.37.55 10.422.832 2.782 0 4.175-1.37 4.175-4.116-.282-1.91-.423-3.286-.423-4.11v-8.642c0-7.352.47-15.488 1.377-24.368l73.846 155.465H58.426l81.66-169.37c1.98 14.49 2.996 27.306 2.996 38.34v8.636c0 .825-.127 2.198-.4 4.116 0 2.744 1.35 4.123 4.048 4.123 2.966-.276 6.335-.552 10.11-.827 3.777-.276 11.066-.405 21.858-.405h22.255l-2.428 19.34c-3.507 22.498-5.662 37.31-6.47 44.445-.543 7.408-.81 18.524-.81 33.34 0 6.04 2.293 9.06 6.883 9.06 13.488 0 22.256-.822 26.302-2.47 4.32-1.646 6.474-3.843 6.474-6.588 0-1.647-1.75-14.96-5.258-39.925-1.62-11.526-2.428-30.32-2.428-56.393 0-53.232 4.992-91.367 14.978-114.418 6.747-15.642 15.506-23.467 26.3-23.467 8.09 0 12.947 3.294 14.565 9.88l8.744-.405v195.185h-46.332v25.815l273.906 1.936c10.95 0 19.942-3.438 26.984-10.325 7.038-7.316 10.555-17.643 10.555-30.977v-76.8c0-43.02-10.942-69.05-32.842-78.082-27.372-6.455-54.55-12.908-81.535-19.36-19.16-5.585-31.867-9.89-38.12-12.898-6.257-3.448-15.058-11.187-26.396-23.228V319.036zm0 176.824c8.994 11.614 18.965 21.5 29.915 29.678 5.87 4.3 18.975 12.48 39.304 24.53 11.342 6.878 18.182 12.47 20.528 16.77 2.35 3.87 3.528 10.327 3.528 19.36v69.058c0 16.348-1.77 26.888-5.285 31.622-1.57 2.15-7.236 5.586-17.01 10.32-3.13 1.286-9.576 1.937-19.35 1.937-9 0-17.995-.22-26.99-.648-8.993-.43-17.203-1.08-24.633-1.94v-200.68z" fill-rule="evenodd"/><path d="M630.032 19.073c-7.454 0-13.546 3.813-18.277 11.44-2.867 4.682-5.52 11.615-7.956 20.803-2.437 9.188-5.018 20.37-7.74 33.545-4.445 20.63-9.534 47.154-15.268 79.57L555.205 32.856h13.978V22.453h-54.83v10.402h8.385l32.467 162.52h18.492l-1.504 16.122c-.86 7.28-1.578 15.254-2.152 23.92-.572 8.843-.857 16.644-.857 23.405l19.135-1.82c.287-1.388.43-2.254.43-2.6 0-.867-.143-1.994-.43-3.38-.86-5.2-1.505-9.275-1.935-12.222-.286-2.773-.43-7.194-.43-13.26v-11.184l.86-18.98h10.75v-10.403h-10.32c1.864-8.494 3.083-14.735 3.656-18.723l3.224-17.942c2.007-11.788 4.013-23.663 6.02-35.625 3.297-17.162 6.88-30.508 10.75-40.043 5.018-12.48 10.75-18.723 17.202-18.723 1.576 0 3.082.348 4.515 1.04.43.174 1.722 1.04 3.872 2.6l3.655 2.34h3.01c0-9.014.144-15.08.43-18.2.43-3.12 1.146-5.894 2.15-8.32 1.003-3.468 1.577-5.984 1.72-7.544-1.146-2.08-3.583-3.727-7.31-4.94-3.727-1.214-7.095-1.82-10.105-1.82zm1032.66 0c-7.454 0-13.546 3.813-18.277 11.44-2.867 4.682-5.517 11.615-7.954 20.803-2.436 9.188-5.016 20.37-7.74 33.545-4.443 20.63-9.532 47.154-15.266 79.57l-25.587-131.575h13.976V22.453h-54.83v10.402h8.387l32.467 162.52h18.492l-1.507 16.122c-.86 7.28-1.577 15.254-2.15 23.92-.573 8.843-.86 16.644-.86 23.405l19.137-1.82c.286-1.388.43-2.254.43-2.6 0-.867-.144-1.994-.43-3.38-.86-5.2-1.506-9.275-1.936-12.222-.287-2.773-.43-7.194-.43-13.26v-11.184l.86-18.98h10.75v-10.403h-10.32c1.863-8.494 3.082-14.735 3.655-18.723l3.224-17.942c2.007-11.788 4.015-23.663 6.022-35.625 3.297-17.162 6.88-30.508 10.75-40.043 5.018-12.48 10.75-18.723 17.2-18.723 1.578 0 3.084.348 4.517 1.04.43.174 1.72 1.04 3.87 2.6l3.656 2.34h3.01c0-9.014.142-15.08.43-18.2.43-3.12 1.145-5.894 2.148-8.32 1.004-3.468 1.578-5.984 1.72-7.544-1.145-2.08-3.582-3.727-7.31-4.94-3.726-1.214-7.096-1.82-10.106-1.82zm1243.05 2.6c-7.882 0-14.836.26-20.856.78-6.02.347-9.46.52-10.32.52h-29.028c-14.62-.173-28.81-.346-42.572-.52v10.402h16.985v152.118h-16.984v10.402l100.41.78c4.015 0 7.31-1.388 9.89-4.162 2.582-2.947 3.872-7.107 3.872-12.48v-30.945c0-17.335-4.013-27.824-12.04-31.464-10.034-2.6-19.997-5.2-29.887-7.8-7.023-2.254-11.682-3.988-13.975-5.2-2.294-1.388-5.52-4.507-9.677-9.36v-61.89H2864.03c6.737 0 11.898 1.562 15.48 4.682 5.448 4.854 9.748 14.127 12.9 27.822 1.005 4.334 1.65 6.85 1.938 7.542.86 2.08 2.363 3.12 4.513 3.12 2.582 0 4.302-1.82 5.163-5.46.286-1.388.717-5.2 1.29-11.44.574-6.242 1.72-11.963 3.44-17.163.86-2.254 1.648-4.335 2.365-6.242.717-1.907 1.076-3.728 1.076-5.46 0-5.722-2.15-8.582-6.45-8.582zm-1941.453 13l-10.536.262h-6.88c-1.864 0-3.154.78-3.87 2.34-.718 1.388-1.077 5.548-1.077 12.482 0 7.28.287 11.702.86 13.262.574 1.56 1.936 2.338 4.086 2.338l6.88-.26 8.387.26h2.15c1.863 0 2.794-1.3 2.794-3.9l-.215-11.44.214-11.704c0-2.426-.93-3.64-2.795-3.64zm34.616 0l-10.32.262h-7.096c-1.72 0-2.867.607-3.44 1.82-1.004 1.907-1.504 6.24-1.504 13.002 0 7.28.285 11.702.86 13.262.572 1.56 1.934 2.338 4.084 2.338l7.095-.26 8.17.26h2.15c1.864 0 2.797-1.3 2.797-3.9l-.215-11.44.215-11.704c0-2.426-.933-3.64-2.796-3.64zm829.667 0l-10.535.262h-6.88c-1.864 0-3.154.78-3.87 2.34-.718 1.388-1.077 5.548-1.077 12.482 0 7.28.288 11.702.862 13.262.573 1.56 1.935 2.338 4.085 2.338l6.88-.26 8.387.26h2.15c1.863 0 2.794-1.3 2.794-3.9l-.215-11.44.215-11.704c0-2.426-.93-3.64-2.795-3.64zm1135.97 0l-10.536.262h-6.88c-1.863 0-3.153.78-3.87 2.34-.717 1.388-1.076 5.548-1.076 12.482 0 7.28.288 11.702.862 13.262.573 1.56 1.935 2.338 4.085 2.338l6.88-.26 8.385.26h2.15c1.865 0 2.796-1.3 2.796-3.9l-.215-11.44.215-11.704c0-2.426-.93-3.64-2.795-3.64zM1145.577 71.86c-5.877 0-12.757 6.934-20.64 20.802-8.315 14.735-12.472 29.123-12.472 43.165 0 13.522 4.23 28.257 12.686 44.205 8.46 15.776 15.913 23.664 22.363 23.664 4.157 0 9.532-4.16 16.125-12.48 6.594-8.322 12.114-18.292 16.558-29.906l-6.667-6.5-2.796 5.2c-1.004 1.908-2.08 3.813-3.225 5.72-1.865 3.12-3.727 5.807-5.59 8.06-7.885-3.64-14.91-11.352-21.074-23.14-6.02-11.962-9.03-23.663-9.03-35.105 0-2.08.216-5.374.646-9.882.573-4.507 1.505-8.407 2.795-11.7 6.45 1.733 11.826 4.593 16.127 8.58 2.58 2.428 5.158 5.635 7.74 9.622 2.58 3.987 4.084 5.98 4.514 5.98.43 0 1.148-1.04 2.15-3.12 1.722-3.467 4.015-7.022 6.882-10.662 3.87-5.028 5.805-8.233 5.805-9.62 0-3.987-4.802-8.755-14.406-14.302-9.462-5.72-15.626-8.58-18.493-8.58zm1044 0c-5.878 0-12.758 6.934-20.64 20.802-8.315 14.735-12.47 29.123-12.47 43.165 0 13.522 4.226 28.257 12.684 44.205 8.458 15.776 15.912 23.664 22.363 23.664 4.156 0 9.53-4.16 16.125-12.48 6.594-8.322 12.113-18.292 16.557-29.906l-6.665-6.5-2.795 5.2c-1.003 1.908-2.08 3.813-3.227 5.72-1.863 3.12-3.726 5.807-5.59 8.06-7.883-3.64-14.907-11.352-21.07-23.14-6.02-11.962-9.032-23.663-9.032-35.105 0-2.08.215-5.374.645-9.882.575-4.507 1.506-8.407 2.796-11.7 6.45 1.733 11.827 4.593 16.127 8.58 2.58 2.428 5.16 5.635 7.74 9.622s4.085 5.98 4.515 5.98c.43 0 1.148-1.04 2.15-3.12 1.72-3.467 4.014-7.022 6.88-10.662 3.87-5.028 5.806-8.233 5.806-9.62 0-3.987-4.802-8.755-14.406-14.302-9.46-5.72-15.625-8.58-18.49-8.58zm-1394.488.26c-6.595 0-14.264 6.326-23.008 18.98-10.32 15.083-15.48 32.505-15.48 52.267 0 6.588.286 13.697.86 21.325.572 7.627 1.504 19.847 2.794 36.663.43 4.507.717 8.494.86 11.96.144 3.468.215 6.588.215 9.362v26.003c0 2.774-.07 4.768-.214 5.982v1.56c.43 1.56 2.008 2.34 4.73 2.34 4.158 0 7.31-2.426 9.46-7.28 2.295-4.68 3.44-13.262 3.44-25.743 0-5.202-.284-12.57-.858-22.104-.43-9.36-.717-15.168-.86-17.422l-.86-8.32c2.58 6.066 6.38 11.18 11.396 15.34 5.16 3.987 10.32 5.98 15.48 5.98 8.315 0 15.123-4.593 20.427-13.78 5.448-9.362 8.172-21.41 8.172-36.145 0-19.244-4.587-37.358-13.76-54.347-8.17-15.082-15.77-22.623-22.793-22.623zm1305.63 0c-6.594 0-14.264 6.326-23.008 18.98-10.32 15.083-15.48 32.505-15.48 52.267 0 6.588.286 13.697.86 21.325.572 7.627 1.504 19.847 2.794 36.663.43 4.507.717 8.494.86 11.96.144 3.468.215 6.588.215 9.362v26.003c0 2.774-.07 4.768-.214 5.982v1.56c.43 1.56 2.008 2.34 4.73 2.34 4.158 0 7.31-2.426 9.46-7.28 2.295-4.68 3.44-13.262 3.44-25.743 0-5.202-.286-12.57-.86-22.104-.43-9.36-.714-15.168-.858-17.422l-.86-8.32c2.58 6.066 6.38 11.18 11.396 15.34 5.16 3.987 10.32 5.98 15.48 5.98 8.315 0 15.123-4.593 20.427-13.78 5.448-9.362 8.172-21.41 8.172-36.145 0-19.244-4.588-37.358-13.762-54.347-8.17-15.082-15.767-22.623-22.79-22.623zm926.832 0c-6.594 0-14.262 6.326-23.006 18.98-10.32 15.083-15.482 32.505-15.482 52.267 0 6.588.288 13.697.86 21.325.574 7.627 1.506 19.847 2.796 36.663.43 4.507.717 8.494.86 11.96.143 3.468.215 6.588.215 9.362v26.003c0 2.774-.07 4.768-.215 5.982v1.56c.43 1.56 2.007 2.34 4.73 2.34 4.158 0 7.31-2.426 9.46-7.28 2.295-4.68 3.44-13.262 3.44-25.743 0-5.202-.286-12.57-.86-22.104-.43-9.36-.716-15.168-.86-17.422l-.86-8.32c2.582 6.066 6.38 11.18 11.398 15.34 5.16 3.987 10.32 5.98 15.48 5.98 8.313 0 15.123-4.593 20.427-13.78 5.447-9.362 8.17-21.41 8.17-36.145 0-19.244-4.587-37.358-13.76-54.347-8.172-15.082-15.77-22.623-22.793-22.623zM2001.67 77.06c-14.048 0-25.227 7.282-33.54 21.844-6.738 11.788-10.108 24.442-10.108 37.963v8.32c0 21.67 6.307 37.62 18.922 47.847 8.887 7.107 19.494 10.662 31.822 10.662 7.883 0 14.91-1.82 21.072-5.46 6.164-3.468 11.323-7.976 15.48-13.523l-3.655-5.2c-5.447 4.853-10.25 8.234-14.406 10.14-4.157 1.735-8.17 2.6-12.04 2.6-9.03 0-16.056-4.247-21.073-12.74-4.873-8.495-7.308-18.984-7.308-31.465 1.863-1.907 3.51-3.38 4.944-4.42 2.867-1.908 5.806-2.86 8.816-2.86 2.724 0 5.66 1.04 8.815 3.12 2.15 1.386 4.3 2.947 6.45 4.68 2.15 1.734 3.657 2.86 4.517 3.38 1.003.52 2.652.78 4.946.78 1.72 0 3.225-.345 4.515-1.038 1.434-.693 3.296-2.082 5.59-4.162 2.437-2.08 4.37-3.9 5.805-5.46 1.577-1.733 3.513-4.248 5.806-7.542l-4.086-6.5c-1.29 1.214-2.58 2.167-3.87 2.86-1.29.693-2.58 1.04-3.87 1.04-1.148 0-3.01-.952-5.59-2.86-2.58-1.906-5.233-3.466-7.957-4.68-2.723-1.213-5.375-1.82-7.956-1.82-3.44 0-8.24 1.733-14.405 5.2-5.303 2.947-9.53 5.894-12.685 8.84 0-13 .86-23.75 2.58-32.243 2.437-12.31 6.808-18.46 13.115-18.46 2.007 0 4.015 1.04 6.022 3.12.717.866 2.364 3.118 4.944 6.76 2.58 3.466 5.305 6.413 8.172 8.84 3.01 2.253 6.092 3.382 9.245 3.382 2.867 0 5.878-.78 9.032-2.342 3.295-1.56 6.592-3.726 9.89-6.5l-5.16-7.542c-1.434 1.215-2.94 1.822-4.516 1.822-2.007 0-4.516-1.386-7.526-4.16-4.73-3.467-8.673-5.982-11.826-7.542-6.307-3.12-12.615-4.68-18.922-4.68zm-1268.992.78c-6.164 0-12.615 3.728-19.352 11.182-8.314 9.188-17.058 23.923-26.232 44.205h-1.72c0-9.88.216-17.77.646-23.663.573-5.894 1.146-11.268 1.72-16.122.716-5.027 1.075-8.32 1.075-9.88 0-1.908-.86-3.12-2.58-3.64-.287-.175-1.005-.175-2.15 0l-10.322.78-5.374-.52c-3.155 0-5.235 2.6-6.238 7.8-.86 5.2-1.29 19.07-1.29 41.605 0 31.204.358 50.013 1.075 56.427.717 6.24 2.868 9.36 6.452 9.36h9.674c4.874 0 7.883-.693 9.03-2.08.573-.693.717-2.34.43-4.94-.717-6.068-1.29-12.568-1.72-19.502-.286-7.108-.43-16.122-.43-27.044 7.168 2.774 13.116 8.147 17.846 16.122 4.73 7.8 7.812 17.076 9.245 27.824.574 4.334 1.148 7.194 1.72 8.58.575 1.388 1.506 2.08 2.796 2.08.43 0 1.506-.174 3.226-.52 1.864-.347 4.23-.52 7.096-.52l7.31.78h2.582c3.44 0 5.16-1.04 5.16-3.12 0-11.962-5.234-23.923-15.698-35.885-8.457-9.71-19.637-16.903-33.54-21.583l4.3-7.28c3.153-6.415 6.95-11.875 11.394-16.382 4.587-4.68 8.6-7.022 12.042-7.022 4.3 0 7.453 2.6 9.46 7.8l5.16-.26.216-5.2c0-8.493 1.434-15.168 4.3-20.022 1.147-1.906 1.72-3.727 1.72-5.46 0-1.04-.932-1.906-2.795-2.6-1.864-.867-3.942-1.3-6.235-1.3zm644.205 0c-6.163 0-12.615 3.728-19.352 11.182-8.313 9.188-17.055 23.923-26.23 44.205h-1.72c0-9.88.215-17.77.645-23.663.573-5.894 1.146-11.268 1.72-16.122.716-5.027 1.075-8.32 1.075-9.88 0-1.908-.86-3.12-2.58-3.64-.286-.175-1.003-.175-2.15 0l-10.32.78-5.376-.52c-3.153 0-5.23 2.6-6.235 7.8-.86 5.2-1.29 19.07-1.29 41.605 0 31.204.357 50.013 1.074 56.427.717 6.24 2.867 9.36 6.45 9.36h9.675c4.873 0 7.884-.693 9.03-2.08.574-.693.718-2.34.43-4.94-.716-6.068-1.29-12.568-1.72-19.502-.287-7.108-.43-16.122-.43-27.044 7.167 2.774 13.116 8.147 17.846 16.122 4.73 7.8 7.813 17.076 9.247 27.824.573 4.334 1.145 7.194 1.72 8.58.572 1.388 1.503 2.08 2.794 2.08.43 0 1.506-.174 3.226-.52 1.864-.347 4.23-.52 7.096-.52l7.31.78h2.58c3.44 0 5.158-1.04 5.158-3.12 0-11.962-5.23-23.923-15.695-35.885-8.457-9.71-19.638-16.903-33.542-21.583l4.3-7.28c3.155-6.415 6.954-11.875 11.397-16.382 4.587-4.68 8.6-7.022 12.04-7.022 4.3 0 7.455 2.6 9.462 7.8l5.158-.26.215-5.2c0-8.493 1.434-15.168 4.3-20.022 1.148-1.906 1.722-3.727 1.722-5.46 0-1.04-.933-1.906-2.797-2.6-1.863-.867-3.94-1.3-6.235-1.3zm1712.436 0c-1.434 0-2.796.347-4.086 1.04-1.147.693-1.72 1.733-1.72 3.12 1.002 3.814 2.077 7.542 3.224 11.182.86 3.987 1.29 8.755 1.29 14.302 0 1.04.144 2.254.43 3.64.287 1.214.932 1.82 1.935 1.82 1.29 0 2.58-.78 3.87-2.34 1.147-1.04 2.08-1.82 2.797-2.34.86-.52 2.08-.78 3.655-.78 3.87 0 7.74 1.646 11.61 4.94 5.877 4.853 11.038 13.002 15.48 24.443-13.043 1.734-23.937 7.975-32.68 18.723-5.16 6.24-9.676 14.388-13.546 24.442-2.295 5.548-3.442 9.448-3.442 11.7 0 2.08.358 3.297 1.074 3.643.717.52 2.007.78 3.87.78l5.807-.52 4.943-.26h4.3l4.517.26c1.863 0 3.153-1.128 3.87-3.382.717-2.426 1.505-5.026 2.365-7.8 4.013-14.215 8.887-24.79 14.62-31.724 3.728-4.51 7.742-7.282 12.042-8.322l.43 20.544c0 14.56.36 23.316 1.076 26.263.86 2.774 2.866 4.16 6.02 4.16h11.61c4.015 0 6.38-.52 7.096-1.56.86-1.214 1.145-3.035.858-5.462-1.003-9.014-1.648-16.295-1.934-21.842-.143-5.547-.215-12.914-.215-22.102 5.016 1.04 9.46 4.16 13.33 9.36 5.16 6.762 9.962 17.856 14.405 33.284.574 1.734 1.148 3.642 1.72 5.722.718 1.907 1.936 2.86 3.656 2.86l8.816-.26 4.946.26 6.02.52c1.433 0 2.58-.26 3.44-.78 1.003-.692 1.506-1.907 1.506-3.64 0-2.948-1.577-8.148-4.73-15.602-3.155-7.454-6.595-13.61-10.32-18.463-4.302-5.548-8.817-9.882-13.547-13.002-6.163-4.16-13.186-6.76-21.07-7.8 4.3-10.75 8.958-18.55 13.976-23.404 4.157-3.987 8.528-5.98 13.115-5.98 1.72 0 2.94.26 3.656.78.86.52 1.72 1.3 2.58 2.34.862.867 1.506 1.473 1.936 1.82.573.346 1.22.52 1.936.52 1.003 0 1.648-.346 1.934-1.04.287-.692.43-2.166.43-4.42 0-5.374.43-10.054 1.29-14.042 1.005-4.16 2.08-7.975 3.226-11.442 0-2.774-1.936-4.16-5.806-4.16-5.59 0-12.47 4.854-20.64 14.562-8.172 9.534-15.482 20.975-21.933 34.324l-4.3 8.84v-27.043c0-5.547.142-10.4.43-14.56.43-4.334.86-7.628 1.29-9.882 0-2.253-1.578-3.38-4.73-3.38h-14.622c-2.437 0-4.158.954-5.162 2.86-.86 1.908-1.29 6.675-1.29 14.303v20.282l-.214 17.422c-7.884-18.03-16.34-32.417-25.37-43.165-8.172-9.708-15.196-14.563-21.073-14.563zM981.06 80.18l-8.385.52-6.88-.26c-3.01 0-5.09 2.774-6.237 8.322-1.146 5.547-1.72 19.07-1.72 40.565 0 2.08.145 8.754.43 20.022.43 11.267.647 20.542.647 27.823 0 7.974.5 13 1.504 15.08 1.002 2.08 2.795 3.122 5.375 3.122h9.46c5.16 0 8.313-.434 9.46-1.3 1.147-1.04 1.506-2.948 1.076-5.722-1.29-10.574-2.15-19.416-2.58-26.523-.286-7.28-.43-18.375-.43-33.283 0-10.748.288-19.676.86-26.784.718-7.107 1.506-13.088 2.366-17.942 0-2.08-.932-3.293-2.795-3.64h-2.15zm49.034 0l-9.245.52-6.022-.26c-3.01 0-5.017 2.514-6.02 7.54-.86 4.855-1.29 18.724-1.29 41.607 0 28.95.358 47.152 1.075 54.606.86 7.454 2.938 11.182 6.235 11.182h9.46c5.018 0 8.1-.434 9.246-1.3 1.147-1.04 1.72-2.948 1.72-5.722 0-4.16-.358-8.494-1.074-13-.717-4.682-1.076-8.408-1.076-11.182 0-.52-.36-6.5-1.075-17.94-.145-2.255-.217-5.115-.217-8.582l33.328.52c0 26.523.36 42.732 1.077 48.626.86 5.72 3.153 8.58 6.88 8.58h9.46c4.157 0 6.953-.346 8.386-1.04 1.577-.693 2.366-2.687 2.366-5.98-.86-9.015-1.65-17.77-2.367-26.264-.717-8.494-1.075-19.588-1.075-33.283 0-11.788.502-22.016 1.505-30.684.287-3.294.718-6.24 1.29-8.84.574-2.6.86-4.422.86-5.462 0-2.08-.932-3.293-2.795-3.64h-2.365c-.573 0-1.504.174-2.794.52H1079.116l-6.02-.26c-3.154 0-5.16 2.167-6.02 6.5-1.29 6.24-1.936 20.024-1.936 41.347l-33.11-.78c0-6.415.357-13.002 1.074-19.762 1.29-12.135 1.936-20.11 1.936-23.924 0-2.08-.933-3.293-2.796-3.64h-2.15zm193.648 0c-.573 0-1.577.174-3.01.52H1214.497l-6.237-.26c-3.87 0-6.235 3.9-7.095 11.702-.86 7.627-1.29 27.91-1.29 60.847v32.764c0 3.293.574 5.72 1.72 7.28 1.147 1.56 2.94 2.34 5.376 2.34h52.895l4.73.26 3.44.26h3.44c3.584 0 6.093-.346 7.526-1.04 2.725-1.386 4.087-4.42 4.087-9.1 0-6.24-.932-12.222-2.795-17.943-2.724-8.146-7.168-15.167-13.332-21.06-5.447-5.2-11.826-8.93-19.137-11.183-7.167-2.427-14.69-3.64-22.575-3.64v-5.462c0-5.547.215-11.528.645-17.942.43-6.587 1.003-11.96 1.72-16.12.716-4.335 1.075-7.195 1.075-8.582 0-.866-.215-1.645-.646-2.34-.286-.692-.932-1.126-1.936-1.3h-2.364zm491.713 0l-9.245.52-6.022-.26c-3.01 0-5.016 2.514-6.02 7.54-.86 4.855-1.29 18.724-1.29 41.607 0 28.95.36 47.152 1.075 54.606.86 7.454 2.938 11.182 6.235 11.182h9.462c5.017 0 8.098-.434 9.245-1.3 1.147-1.04 1.72-2.948 1.72-5.722 0-4.16-.358-8.494-1.075-13-.716-4.682-1.075-8.408-1.075-11.182 0-.52-.358-6.5-1.074-17.94-.143-2.255-.214-5.115-.214-8.582l33.327.52c0 26.523.358 42.732 1.074 48.626.86 5.72 3.154 8.58 6.88 8.58h9.462c4.156 0 6.95-.346 8.384-1.04 1.576-.693 2.366-2.687 2.366-5.98-.86-9.015-1.65-17.77-2.366-26.264-.717-8.494-1.074-19.588-1.074-33.283 0-11.788.5-22.016 1.504-30.684.287-3.294.717-6.24 1.29-8.84.574-2.6.86-4.422.86-5.462 0-2.08-.93-3.293-2.794-3.64h-2.366c-.573 0-1.505.174-2.795.52H1764.48l-6.022-.26c-3.154 0-5.16 2.167-6.02 6.5-1.29 6.24-1.935 20.024-1.935 41.347l-33.112-.78c0-6.415.358-13.002 1.075-19.762 1.29-12.135 1.936-20.11 1.936-23.924 0-2.08-.93-3.293-2.794-3.64h-2.15zm110.97 0l-8.387.52-6.88-.26c-3.01 0-5.09 2.774-6.236 8.322-1.147 5.547-1.72 19.07-1.72 40.565 0 2.08.143 8.754.43 20.022.43 11.267.645 20.542.645 27.823 0 7.974.5 13 1.504 15.08 1.005 2.08 2.797 3.122 5.377 3.122h9.46c5.16 0 8.315-.434 9.462-1.3 1.146-1.04 1.503-2.948 1.073-5.722-1.29-10.574-2.15-19.416-2.58-26.523-.286-7.28-.43-18.375-.43-33.283 0-10.748.287-19.676.86-26.784.717-7.107 1.505-13.088 2.365-17.942 0-2.08-.93-3.293-2.795-3.64h-2.15zm639.115 0c-.574 0-1.577.174-3.01.52h-6.237l-6.235-.26c-3.87 0-6.235 3.9-7.095 11.702-.86 7.627-1.29 27.91-1.29 60.847v32.764c0 3.293.573 5.72 1.72 7.28 1.147 1.56 2.938 2.34 5.374 2.34h52.895l4.73.26 3.44.26h3.44c3.585 0 6.094-.346 7.527-1.04 2.723-1.386 4.083-4.42 4.083-9.1 0-6.24-.93-12.222-2.795-17.943-2.723-8.146-7.166-15.167-13.33-21.06-5.447-5.2-11.827-8.93-19.137-11.183-7.166-2.427-14.692-3.64-22.576-3.64v-5.462c0-5.547.215-11.528.645-17.942.43-6.587 1.003-11.96 1.72-16.12.717-4.335 1.074-7.195 1.074-8.582 0-.866-.214-1.645-.644-2.34-.286-.692-.932-1.126-1.936-1.3h-2.364zm103.258 0l-9.247.52-6.018-.26c-3.01 0-5.02 2.514-6.022 7.54-.86 4.855-1.29 18.724-1.29 41.607 0 28.95.358 47.152 1.075 54.606.86 7.454 2.94 11.182 6.237 11.182h9.46c5.017 0 8.1-.434 9.246-1.3 1.147-1.04 1.72-2.948 1.72-5.722 0-4.16-.36-8.494-1.076-13-.717-4.682-1.074-8.408-1.074-11.182 0-.52-.36-6.5-1.076-17.94-.143-2.255-.215-5.115-.215-8.582l33.328.52c0 26.523.36 42.732 1.075 48.626.86 5.72 3.154 8.58 6.88 8.58h9.46c4.158 0 6.954-.346 8.387-1.04 1.577-.693 2.365-2.687 2.365-5.98-.86-9.015-1.648-17.77-2.365-26.264-.717-8.494-1.076-19.588-1.076-33.283 0-11.788.504-22.016 1.507-30.684.287-3.294.716-6.24 1.29-8.84.573-2.6.86-4.422.86-5.462 0-2.08-.932-3.293-2.795-3.64h-2.366c-.574 0-1.505.174-2.795.52H2617.82l-6.02-.26c-3.153 0-5.16 2.167-6.02 6.5-1.29 6.24-1.935 20.024-1.935 41.347l-33.113-.78c0-6.415.36-13.002 1.076-19.762 1.29-12.135 1.934-20.11 1.934-23.924 0-2.08-.93-3.293-2.795-3.64h-2.15zm393.594 0l-8.385.52-6.88-.26c-3.01 0-5.09 2.774-6.237 8.322-1.146 5.547-1.72 19.07-1.72 40.565 0 2.08.145 8.754.432 20.022.43 11.267.645 20.542.645 27.823 0 7.974.5 13 1.504 15.08s2.797 3.122 5.377 3.122h9.46c5.16 0 8.313-.434 9.46-1.3 1.147-1.04 1.506-2.948 1.076-5.722-1.29-10.574-2.15-19.416-2.58-26.523-.287-7.28-.43-18.375-.43-33.283 0-10.748.287-19.676.86-26.784.717-7.107 1.505-13.088 2.365-17.942 0-2.08-.93-3.293-2.795-3.64h-2.15zm-2072.21.52c-2.722 0-4.084.433-4.084 1.3 0 1.56.215 3.294.645 5.2.573 1.734.932 3.295 1.076 4.68.285 1.215.427 2.34.427 3.38 0 1.735-1.147 4.076-3.44 7.023-5.16 6.76-8.098 10.66-8.815 11.7-8.17 11.27-13.403 18.897-15.696 22.884-6.594 11.27-9.89 20.976-9.89 29.123 0 7.975 1.505 14.91 4.515 20.804 3.87 7.628 9.676 11.44 17.417 11.44 8.314 0 15.337-4.16 21.07-12.48 4.445-6.414 8.172-15.69 11.182-27.824l2.58 11.182 2.365 9.62c.574 2.427 1.29 5.115 2.15 8.062.143 1.56.358 3.38.645 5.46.43 2.08 1.146 3.12 2.15 3.12h20.855c2.724 0 4.086-.693 4.086-2.08-2.436-8.148-4.873-16.38-7.31-24.702-3.727-13.522-7.883-31.378-12.47-53.567l-1.505-7.28-3.225-14.303c-.717-3.467-1.148-5.72-1.29-6.762V82c-.288-.867-1.147-1.3-2.58-1.3h-20.857zm548.037 0c-2.724 0-4.085.433-4.085 1.3 0 1.56.214 3.294.644 5.2.572 1.734.93 3.295 1.075 4.68.286 1.215.43 2.34.43 3.38 0 1.735-1.147 4.076-3.44 7.023-5.16 6.76-8.1 10.66-8.817 11.7-8.17 11.27-13.4 18.897-15.695 22.884-6.593 11.27-9.892 20.976-9.892 29.123 0 7.975 1.507 14.91 4.517 20.804 3.87 7.628 9.676 11.44 17.416 11.44 8.314 0 15.34-4.16 21.073-12.48 4.443-6.414 8.17-15.69 11.18-27.824l2.58 11.182 2.365 9.62c.574 2.427 1.29 5.115 2.15 8.062.144 1.56.36 3.38.646 5.46.43 2.08 1.148 3.12 2.15 3.12h20.857c2.724 0 4.086-.693 4.086-2.08-2.438-8.148-4.875-16.38-7.312-24.702-3.727-13.522-7.885-31.378-12.47-53.567l-1.506-7.28-3.225-14.303c-.716-3.467-1.147-5.72-1.29-6.762V82c-.287-.867-1.147-1.3-2.58-1.3h-20.858zm424.12 0c-3.87 0-6.306 3.727-7.31 11.18-.86 7.282-1.29 27.65-1.29 61.11 0 19.068.36 30.943 1.076 35.623.86 4.508 2.722 6.762 5.59 6.762h62.57c6.163 0 10.464-.78 12.9-2.34 3.584-2.255 5.375-6.936 5.375-14.043 0-13.175-6.02-24.27-18.06-33.283-7.597-5.722-17.273-10.23-29.027-13.523v-1.56c11.61-4.162 20.14-8.495 25.587-13.003 7.454-6.24 11.18-13.953 11.18-23.14 0-6.068-1.792-10.057-5.375-11.964-2.294-1.213-7.024-1.82-14.19-1.82h-49.024zm418.303 0c-2.723 0-4.085.433-4.085 1.3 0 1.56.215 3.294.645 5.2.573 1.734.932 3.295 1.076 4.68.285 1.215.427 2.34.427 3.38 0 1.735-1.146 4.076-3.44 7.023-5.16 6.76-8.098 10.66-8.815 11.7-8.17 11.27-13.403 18.897-15.696 22.884-6.594 11.27-9.89 20.976-9.89 29.123 0 7.975 1.505 14.91 4.515 20.804 3.87 7.628 9.676 11.44 17.417 11.44 8.314 0 15.338-4.16 21.07-12.48 4.445-6.414 8.172-15.69 11.182-27.824l2.58 11.182 2.365 9.62c.574 2.427 1.29 5.115 2.15 8.062.143 1.56.358 3.38.645 5.46.43 2.08 1.146 3.12 2.15 3.12h20.856c2.723 0 4.085-.693 4.085-2.08-2.436-8.148-4.873-16.38-7.31-24.702-3.726-13.522-7.883-31.378-12.47-53.567l-1.505-7.28-3.225-14.303c-.717-3.467-1.148-5.72-1.29-6.762V82c-.288-.867-1.147-1.3-2.58-1.3h-20.857zm95.823 0c-1.147 0-2.007.175-2.58.52-.573.175-1.076.693-1.506 1.56-.286.52-.286 1.475 0 2.862.717 2.6 1.076 5.026 1.076 7.28 0 4.16-1.72 9.794-5.16 16.902-2.725 5.2-5.447 10.315-8.17 15.343-5.734 10.574-9.677 18.2-11.827 22.88-7.025 15.083-10.536 28.17-10.536 39.266 0 3.813.357 6.242 1.074 7.282.86.867 2.652 1.3 5.376 1.3l9.675-.52 10.965.26c2.58 0 3.87-1.04 3.87-3.12 0-.868-.43-1.994-1.29-3.38-1.29-2.082-2.294-4.076-3.01-5.983-1.434-3.467-2.365-6.5-2.795-9.1-.43-2.6-.646-5.807-.646-9.62 0-5.895.79-12.136 2.366-18.723 1.577-6.59 4.587-15.864 9.03-27.826.717-2.253 1.792-5.2 3.225-8.84 1.004-2.774 1.865-5.895 2.582-9.362l1.504 8.323 1.507 8.58c.716 4.855 1.36 8.58 1.934 11.18 0 .348.72 3.47 2.152 9.363l2.795 12.22c4.874 22.537 8.314 36.233 10.32 41.086 1.434 3.294 3.727 4.94 6.88 4.94l8.172-.26 8.385.26c.43 0 1.146.088 2.15.26 2.293 0 3.44-1.3 3.44-3.9-2.15-6.068-4.23-12.134-6.236-18.2-2.724-8.496-6.45-21.67-11.18-39.526-1.435-5.374-3.084-12.57-4.947-21.585-2.58-12.308-3.87-20.802-3.87-25.482 0-3.12-.43-4.938-1.29-5.46-.86-.52-2.58-.78-5.16-.78h-18.277zm314.05 0c-2.724 0-4.086.433-4.086 1.3 0 1.56.216 3.294.646 5.2.573 1.734.932 3.295 1.075 4.68.288 1.215.432 2.34.432 3.38 0 1.735-1.15 4.076-3.442 7.023-5.16 6.76-8.098 10.66-8.815 11.7-8.17 11.27-13.403 18.897-15.697 22.884-6.593 11.27-9.89 20.976-9.89 29.123 0 7.975 1.506 14.91 4.516 20.804 3.87 7.628 9.675 11.44 17.416 11.44 8.314 0 15.337-4.16 21.07-12.48 4.444-6.414 8.172-15.69 11.182-27.824l2.58 11.182 2.366 9.62c.573 2.427 1.29 5.115 2.15 8.062.143 1.56.358 3.38.645 5.46.43 2.08 1.146 3.12 2.15 3.12h20.857c2.723 0 4.084-.693 4.084-2.08-2.437-8.148-4.874-16.38-7.31-24.702-3.728-13.522-7.884-31.378-12.47-53.567l-1.507-7.28-3.225-14.303c-.716-3.467-1.145-5.72-1.29-6.762V82c-.285-.867-1.147-1.3-2.58-1.3h-20.856zm579.112 0c-2.723 0-4.083.433-4.083 1.3 0 1.56.213 3.294.643 5.2.574 1.734.933 3.295 1.076 4.68.286 1.215.43 2.34.43 3.38 0 1.735-1.147 4.076-3.44 7.023-5.16 6.76-8.1 10.66-8.816 11.7-8.17 11.27-13.402 18.897-15.696 22.884-6.593 11.27-9.89 20.976-9.89 29.123 0 7.975 1.504 14.91 4.514 20.804 3.87 7.628 9.676 11.44 17.416 11.44 8.314 0 15.34-4.16 21.073-12.48 4.444-6.414 8.17-15.69 11.18-27.824l2.58 11.182 2.365 9.62c.574 2.427 1.292 5.115 2.15 8.062.145 1.56.358 3.38.645 5.46.43 2.08 1.148 3.12 2.15 3.12h20.857c2.724 0 4.086-.693 4.086-2.08-2.437-8.148-4.874-16.38-7.31-24.702-3.728-13.522-7.885-31.378-12.472-53.567l-1.504-7.28-3.225-14.303c-.717-3.467-1.148-5.72-1.29-6.762V82c-.288-.867-1.147-1.3-2.58-1.3h-20.86zm-1379.98 8.062c5.016 0 8.67.692 10.965 2.08 2.294 1.212 3.44 3.814 3.44 7.8 0 6.59-2.15 12.57-6.45 17.944-5.017 6.24-11.253 9.36-18.706 9.36 0-13.002.502-25.31 1.505-36.924h4.086c1.577-.174 3.296-.26 5.16-.26zm-1107.89 6.5c7.455 4.333 14.12 13.435 19.997 27.303 5.303 12.482 7.955 23.578 7.955 33.285v9.102c0 7.107-1.433 12.394-4.3 15.86-1.864 2.254-4.085 3.38-6.665 3.38-5.447 0-10.895-4.507-16.342-13.52-6.164-10.402-9.245-22.71-9.245-36.924 0-8.148.644-15.17 1.934-21.065 1.29-5.894 3.513-11.7 6.667-17.422zm1305.63 0c7.453 4.333 14.12 13.435 19.997 27.303 5.303 12.482 7.955 23.578 7.955 33.285v9.102c0 7.107-1.433 12.394-4.3 15.86-1.864 2.254-4.085 3.38-6.665 3.38-5.447 0-10.895-4.507-16.342-13.52-6.164-10.402-9.245-22.71-9.245-36.924 0-8.148.644-15.17 1.934-21.065 1.29-5.894 3.512-11.7 6.665-17.422zm926.833 0c7.455 4.333 14.12 13.435 19.998 27.303 5.304 12.482 7.955 23.578 7.955 33.285v9.102c0 7.107-1.432 12.394-4.3 15.86-1.863 2.254-4.086 3.38-6.666 3.38-5.447 0-10.894-4.507-16.34-13.52-6.164-10.402-9.247-22.71-9.247-36.924 0-8.148.646-15.17 1.936-21.065 1.29-5.894 3.512-11.7 6.665-17.422zm-162.662 8.84c3.297 4.68 6.952 8.67 10.966 11.963 2.15 1.734 6.952 5.026 14.406 9.88 4.157 2.774 6.666 5.03 7.526 6.762.86 1.56 1.29 4.16 1.29 7.8v27.825c0 6.587-.644 10.834-1.934 12.74-.574.868-2.653 2.255-6.237 4.16-1.147.522-3.512.782-7.095.782-3.297 0-6.594-.087-9.89-.26-3.297-.174-6.308-.434-9.032-.78v-80.87zm-1959.656.78l3.012 13.263 2.58 10.922c.573 2.254 1.29 5.114 2.15 8.58.86 3.468 1.29 6.59 1.29 9.362 0 4.507-1.434 8.754-4.3 12.74-3.44 4.855-7.812 7.28-13.116 7.28-4.157 0-7.24-1.733-9.247-5.2-1.862-3.64-2.793-7.54-2.793-11.7 0-5.548 1.934-12.482 5.804-20.803 3.872-8.494 8.745-16.643 14.622-24.444zm548.038 0l3.01 13.263 2.58 10.922c.573 2.254 1.29 5.114 2.15 8.58.86 3.468 1.29 6.59 1.29 9.362 0 4.507-1.432 8.754-4.3 12.74-3.44 4.855-7.812 7.28-13.116 7.28-4.157 0-7.238-1.733-9.245-5.2-1.864-3.64-2.796-7.54-2.796-11.7 0-5.548 1.935-12.482 5.805-20.803 3.87-8.494 8.743-16.643 14.62-24.444zm842.423 0l3.01 13.263 2.58 10.922c.574 2.254 1.29 5.114 2.15 8.58.86 3.468 1.29 6.59 1.29 9.362 0 4.507-1.433 8.754-4.3 12.74-3.44 4.855-7.81 7.28-13.115 7.28-4.157 0-7.24-1.733-9.247-5.2-1.862-3.64-2.793-7.54-2.793-11.7 0-5.548 1.934-12.482 5.804-20.803 3.872-8.494 8.745-16.643 14.623-24.444zm409.874 0l3.01 13.263 2.58 10.922c.573 2.254 1.29 5.114 2.15 8.58.86 3.468 1.29 6.59 1.29 9.362 0 4.507-1.434 8.754-4.3 12.74-3.44 4.855-7.813 7.28-13.116 7.28-4.156 0-7.24-1.733-9.246-5.2-1.863-3.64-2.795-7.54-2.795-11.7 0-5.548 1.935-12.482 5.806-20.803 3.87-8.494 8.744-16.643 14.62-24.444zm579.112 0l3.01 13.263 2.58 10.922c.572 2.254 1.29 5.114 2.15 8.58.86 3.468 1.29 6.59 1.29 9.362 0 4.507-1.433 8.754-4.3 12.74-3.44 4.855-7.813 7.28-13.117 7.28-4.157 0-7.238-1.733-9.245-5.2-1.863-3.64-2.795-7.54-2.795-11.7 0-5.548 1.935-12.482 5.805-20.803 3.87-8.494 8.744-16.643 14.62-24.444zm-1392.453 30.685c9.604 0 17.704 4.507 24.297 13.522 5.447 7.453 8.17 15.254 8.17 23.402 0 6.588-1.648 10.835-4.945 12.74-2.15 1.215-6.953 1.82-14.407 1.82l-12.9-.518-.647-30.423.43-20.543zm-653.864 7.54c10.894 1.56 18.562 6.85 23.005 15.863 2.724 5.374 4.086 12.048 4.086 20.022l-.216 7.802-3.44.258h-23.22c0-.52-.144-4.333-.43-11.44-.144-7.108-.216-13.607-.216-19.5v-8.324c.144-1.734.287-3.294.43-4.68zm1241.796 0c10.893 1.56 18.562 6.85 23.006 15.863 2.724 5.374 4.086 12.048 4.086 20.022l-.216 7.802-3.44.258h-23.222c0-.52-.144-4.333-.43-11.44-.144-7.108-.214-13.607-.214-19.5v-8.324c.144-1.734.285-3.294.43-4.68z" style="line-height:125%" font-size="251.837" font-family="sans-serif" letter-spacing="0" word-spacing="0"/><text transform="matrix(1.013 0 0 1.053 -77.44 -25.439)" y="401.324" x="1671.795" style="line-height:125%" font-size="124.55" font-family="sans-serif" letter-spacing="0" word-spacing="0"><tspan y="401.324" x="1671.795">Ukrainian Universal Exchange</tspan></text></g></svg>