<?xml version="1.0" encoding="UTF-8" standalone="no"?>
<svg
   xmlns:dc="http://purl.org/dc/elements/1.1/"
   xmlns:cc="http://creativecommons.org/ns#"
   xmlns:rdf="http://www.w3.org/1999/02/22-rdf-syntax-ns#"
   xmlns:svg="http://www.w3.org/2000/svg"
   xmlns="http://www.w3.org/2000/svg"
   xmlns:sodipodi="http://sodipodi.sourceforge.net/DTD/sodipodi-0.dtd"
   xmlns:inkscape="http://www.inkscape.org/namespaces/inkscape"
   width="1224.1262mm"
   height="220.64049mm"
   viewBox="0 0 4337.4551 781.797"
   id="svg4136"
   version="1.1"
   inkscape:version="0.91 r"
   sodipodi:docname="logo.min.svg">
  <metadata
     id="metadata4144">
    <rdf:RDF>
      <cc:Work
         rdf:about="">
        <dc:format>image/svg+xml</dc:format>
        <dc:type
           rdf:resource="http://purl.org/dc/dcmitype/StillImage" />
        <dc:title></dc:title>
      </cc:Work>
    </rdf:RDF>
  </metadata>
  <defs
     id="defs4142" />
  <sodipodi:namedview
     pagecolor="#ffffff"
     bordercolor="#666666"
     borderopacity="1"
     objecttolerance="10"
     gridtolerance="10"
     guidetolerance="10"
     inkscape:pageopacity="0"
     inkscape:pageshadow="2"
     inkscape:window-width="1366"
     inkscape:window-height="721"
     id="namedview4140"
     showgrid="false"
     inkscape:zoom="0.16"
     inkscape:cx="2509.4282"
     inkscape:cy="661.4346"
     inkscape:window-x="0"
     inkscape:window-y="23"
     inkscape:window-maximized="1"
     inkscape:current-layer="svg4136"
     showborder="false"
     fit-margin-top="0"
     fit-margin-left="0"
     fit-margin-right="0"
     fit-margin-bottom="0" />
  <g
     id="g4743"
     style="fill:#ffffff;fill-opacity:1">
    <path
       inkscape:connector-curvature="0"
       style="fill:#ffffff;fill-opacity:1;fill-rule:evenodd"
       id="path4138"
       d="M 414.727,0 168.425,464.293 c -0.45,-0.555 -0.897,-1.09 -1.3,-1.517 -2.876,-3.185 -6.32,-4.92 -10.343,-5.182 -2.877,-0.533 -8.483,-0.8 -16.82,-0.8 -6.894,0 -12.358,0.393 -16.38,1.193 -3.737,0.533 -5.613,1.733 -5.613,3.595 0,1.595 0.153,3.453 0.438,5.574 0.57,1.865 1.873,5.457 3.88,10.775 5.368,13.454 10.273,28.667 14.743,45.546 L 0,781.797 l 823.26,0 -129.33,-247.5 c 5.338,-21.278 11.332,-40.096 18.017,-56.366 2.075,-5.315 3.406,-8.9 4,-10.764 0.296,-2.125 0.445,-3.98 0.445,-5.574 0,-1.863 -1.93,-3.062 -5.78,-3.59 -4.15,-0.8 -9.778,-1.198 -16.89,-1.198 -8.59,0 -14.362,0.26 -17.324,0.793 -4.147,0.262 -7.703,1.993 -10.664,5.186 -1.47,1.506 -3.346,4.1 -5.41,7.21 L 414.731,0.003 Z m -0.47,82.01 117.586,225.027 c -13.177,0.293 -25.404,0.804 -36.43,1.592 -17.5,0.832 -27.498,1.254 -29.996,1.254 l -84.377,0 c -29.95,-0.296 -58.496,-0.59 -87.2,-0.884 L 414.258,82.013 Z m -133.48,251.616 25.89,0 0,120.48 c -2.48,-0.32 -5.27,-0.498 -8.455,-0.498 -19.55,0 -35.218,9.56 -47.003,28.697 -6.325,10.365 -11.93,25.115 -16.82,44.25 -3.45,12.754 -6.463,26.17 -9.05,40.258 -2.584,14.08 -4.89,32.16 -6.906,54.217 l -16.383,0 -0.86,-6.382 c 0,-11.96 -2.727,-34.81 -8.188,-68.565 -2.197,-13.384 -4.354,-24.9 -6.48,-34.787 l 94.255,-177.673 z m 117.76,0 36.244,0 c 19.587,0 34.587,3.752 45.005,11.248 15.832,11.67 28.333,33.965 37.5,66.883 2.917,10.415 4.797,16.455 5.63,18.124 2.49,4.994 6.87,7.497 13.123,7.497 7.5,0 12.494,-4.38 14.993,-13.128 0.83,-3.33 2.085,-12.5 3.75,-27.5 1.293,-11.625 3.595,-22.488 6.89,-32.61 l 82,156.906 c -1.52,7.535 -3.06,15.832 -4.61,25.012 -5.623,33.733 -8.435,56.577 -8.435,68.53 l -0.89,6.37 -16.883,0 c -2.078,-22.042 -4.45,-40.107 -7.12,-54.184 -2.66,-14.08 -5.772,-27.497 -9.324,-40.247 -5.037,-19.125 -10.82,-33.868 -17.335,-44.23 -12.145,-19.124 -28.283,-28.688 -48.426,-28.688 -5.926,0 -10.664,0.533 -14.216,1.602 -3.552,0.793 -5.328,2.776 -5.328,5.965 0,2.392 0.89,5.055 2.67,7.973 1.48,2.926 3.107,5.848 4.887,8.77 1.48,3.987 2.216,8.095 2.216,12.345 l 0,12.753 c 0,3.19 0.293,5.58 0.89,7.176 l 9.77,0.392 c 1.78,-6.372 7.11,-9.554 15.997,-9.554 11.846,0 21.47,7.568 28.874,22.71 10.963,22.317 16.445,59.24 16.445,110.77 0,25.235 -0.89,43.43 -2.67,54.59 -3.85,24.17 -5.78,37.054 -5.78,38.656 0,2.65 2.374,4.776 7.112,6.37 4.45,1.596 14.07,2.393 28.88,2.393 5.034,0 7.558,-2.926 7.558,-8.77 0,-14.345 -0.3,-25.105 -0.89,-32.278 -0.89,-6.906 -3.265,-21.25 -7.112,-43.034 l -2.663,-18.73 24.436,0 c 11.853,0 19.844,0.136 23.99,0.39 4.147,0.272 7.852,0.534 11.106,0.806 2.964,0 4.448,-1.328 4.448,-3.987 -0.3,-1.85 -0.45,-3.182 -0.45,-3.98 l 0,-8.37 c 0,-7.12 0.5,-15 1.467,-23.6 l 78.687,150.566 -698.717,0 87.014,-164.034 c 2.11,14.035 3.193,26.447 3.193,37.132 l 0,8.365 c 0,0.8 -0.136,2.13 -0.427,3.987 0,2.658 1.44,3.993 4.314,3.993 3.16,-0.266 6.75,-0.533 10.774,-0.8 4.023,-0.267 11.79,-0.392 23.29,-0.392 l 23.714,0 -2.588,18.73 c -3.737,21.79 -6.033,36.136 -6.894,43.045 -0.578,7.175 -0.862,17.94 -0.862,32.29 0,5.85 2.442,8.775 7.333,8.775 14.373,0 23.716,-0.797 28.027,-2.392 4.602,-1.595 6.898,-3.723 6.898,-6.382 0,-1.595 -1.865,-14.487 -5.603,-38.666 -1.726,-11.163 -2.587,-29.366 -2.587,-54.616 0,-51.555 5.32,-88.488 15.96,-110.813 7.19,-15.148 16.523,-22.726 28.024,-22.726 8.62,0 13.796,3.19 15.52,9.568 l 9.317,-0.392 0,189.034 -49.37,0 0,25.002 291.863,1.875 c 11.668,0 21.25,-3.33 28.753,-10 7.5,-7.084 11.248,-17.086 11.248,-30 l 0,-74.378 c 0,-41.666 -11.66,-66.874 -34.996,-75.623 -29.166,-6.252 -58.126,-12.502 -86.88,-18.75 -20.416,-5.41 -33.956,-9.58 -40.62,-12.492 -6.666,-3.34 -16.045,-10.835 -28.126,-22.496 l 0,-148.758 z m 0,171.252 c 9.583,11.248 20.208,20.822 31.876,28.742 6.254,4.165 20.218,12.088 41.88,23.756 12.085,6.663 19.374,12.077 21.873,16.242 2.503,3.75 3.76,10.002 3.76,18.75 l 0,66.883 c 0,15.832 -1.887,26.04 -5.632,30.625 -1.672,2.082 -7.71,5.41 -18.124,9.995 -3.335,1.245 -10.205,1.876 -20.62,1.876 -9.59,0 -19.174,-0.214 -28.76,-0.628 -9.582,-0.416 -18.33,-1.046 -26.247,-1.88 l 0,-194.356 z" />
    <path
       id="text4696"
       d="M 1006.3828 332.35938 C 997.65246 332.35938 990.51698 336.05223 984.97656 343.43945 C 981.61873 347.97252 978.51236 354.68769 975.6582 363.58594 C 972.80405 372.48419 969.78173 383.31447 966.5918 396.07422 C 961.38716 416.0533 955.4266 441.74101 948.71094 473.13672 L 918.74219 345.70703 L 935.11328 345.70703 L 935.11328 335.63281 L 870.89453 335.63281 L 870.89453 345.70703 L 880.71484 345.70703 L 918.74219 503.10547 L 940.40039 503.10547 L 938.63867 518.71875 C 937.63132 525.77019 936.79071 533.49214 936.11914 541.88672 C 935.44757 550.44918 935.11328 558.00497 935.11328 564.55273 L 957.52539 562.78906 C 957.86117 561.44593 958.0293 560.60727 958.0293 560.27148 C 958.0293 559.43203 957.86117 558.34118 957.52539 556.99805 C 956.51804 551.9613 955.76344 548.01626 955.25977 545.16211 C 954.92398 542.47585 954.75586 538.19456 954.75586 532.31836 L 954.75586 521.48828 L 955.76367 503.10547 L 968.35547 503.10547 L 968.35547 493.03125 L 956.26758 493.03125 C 958.45017 484.80457 959.87726 478.75994 960.54883 474.89844 L 964.32617 457.52148 C 966.67665 446.10486 969.02647 434.60404 971.37695 423.01953 C 975.23846 406.39827 979.43568 393.47231 983.96875 384.23828 C 989.84495 372.15009 996.56012 366.10547 1004.1152 366.10547 C 1005.962 366.10547 1007.7254 366.44172 1009.4043 367.11328 C 1009.908 367.28117 1011.4191 368.11984 1013.9375 369.63086 L 1018.2188 371.89648 L 1021.7441 371.89648 C 1021.7441 363.16613 1021.9123 357.29158 1022.248 354.26953 C 1022.7517 351.24748 1023.5904 348.56142 1024.7656 346.21094 C 1025.9409 342.85311 1026.6134 340.41727 1026.7812 338.90625 C 1025.4381 336.89155 1022.5839 335.29633 1018.2188 334.12109 C 1013.8536 332.94585 1009.9085 332.35938 1006.3828 332.35938 z M 2215.8887 332.35938 C 2207.1583 332.35938 2200.0228 336.05223 2194.4824 343.43945 C 2191.1246 347.97252 2188.0202 354.68769 2185.166 363.58594 C 2182.3119 372.48419 2179.2895 383.31447 2176.0996 396.07422 C 2170.895 416.0533 2164.9344 441.74101 2158.2188 473.13672 L 2128.25 345.70703 L 2144.6191 345.70703 L 2144.6191 335.63281 L 2080.4004 335.63281 L 2080.4004 345.70703 L 2090.2227 345.70703 L 2128.25 503.10547 L 2149.9082 503.10547 L 2148.1445 518.71875 C 2147.1372 525.77019 2146.2985 533.49214 2145.627 541.88672 C 2144.9554 550.44918 2144.6191 558.00497 2144.6191 564.55273 L 2167.0332 562.78906 C 2167.369 561.44593 2167.5371 560.60727 2167.5371 560.27148 C 2167.5371 559.43203 2167.369 558.34118 2167.0332 556.99805 C 2166.0259 551.9613 2165.2693 548.01626 2164.7656 545.16211 C 2164.4298 542.47585 2164.2637 538.19456 2164.2637 532.31836 L 2164.2637 521.48828 L 2165.2695 503.10547 L 2177.8613 503.10547 L 2177.8613 493.03125 L 2165.7734 493.03125 C 2167.956 484.80457 2169.3831 478.75994 2170.0547 474.89844 L 2173.832 457.52148 C 2176.1825 446.10486 2178.5343 434.60404 2180.8848 423.01953 C 2184.7463 406.39827 2188.9435 393.47231 2193.4766 384.23828 C 2199.3528 372.15009 2206.0679 366.10547 2213.623 366.10547 C 2215.4699 366.10547 2217.2332 366.44172 2218.9121 367.11328 C 2219.4158 367.28117 2220.9269 368.11984 2223.4453 369.63086 L 2227.7266 371.89648 L 2231.252 371.89648 C 2231.252 363.16613 2231.4201 357.29158 2231.7559 354.26953 C 2232.2595 351.24748 2233.0982 348.56142 2234.2734 346.21094 C 2235.4487 342.85311 2236.1212 340.41727 2236.2891 338.90625 C 2234.9459 336.89155 2232.0917 335.29633 2227.7266 334.12109 C 2223.3614 332.94585 2219.4144 332.35938 2215.8887 332.35938 z M 3671.8164 334.87695 C 3662.5824 334.87695 3654.4382 335.12914 3647.3867 335.63281 C 3640.3353 335.9686 3636.3062 336.13672 3635.2988 336.13672 L 3601.3008 336.13672 C 3584.1759 335.96883 3567.5551 335.8007 3551.4375 335.63281 L 3551.4375 345.70703 L 3571.332 345.70703 L 3571.332 493.03125 L 3551.4375 493.03125 L 3551.4375 503.10547 L 3669.0449 503.85938 C 3673.7459 503.85938 3677.6069 502.51634 3680.6289 499.83008 C 3683.651 496.97592 3685.1621 492.94682 3685.1621 487.74219 L 3685.1621 457.77344 C 3685.1621 440.98429 3680.4625 430.8265 3671.0605 427.30078 C 3659.3081 424.78241 3647.6392 422.26447 3636.0547 419.74609 C 3627.828 417.5635 3622.3718 415.88422 3619.6855 414.70898 C 3616.9993 413.36585 3613.2204 410.34549 3608.3516 405.64453 L 3608.3516 345.70703 L 3617.418 345.70703 L 3622.959 345.70703 C 3630.8499 345.70703 3636.8945 347.21819 3641.0918 350.24023 C 3647.4717 354.9412 3652.5076 363.92212 3656.2012 377.18555 C 3657.3764 381.38283 3658.133 383.81867 3658.4688 384.49023 C 3659.4761 386.50493 3661.2375 387.51172 3663.7559 387.51172 C 3666.7779 387.51172 3668.7934 385.74838 3669.8008 382.22266 C 3670.1366 380.87952 3670.6409 377.18667 3671.3125 371.14258 C 3671.9841 365.09848 3673.3271 359.55823 3675.3418 354.52148 C 3676.3491 352.3389 3677.2719 350.32337 3678.1113 348.47656 C 3678.9508 346.62976 3679.3711 344.86641 3679.3711 343.1875 C 3679.3711 337.64708 3676.8532 334.87695 3671.8164 334.87695 z M 1397.8828 347.46875 L 1385.543 347.7207 L 1377.4844 347.7207 C 1375.3018 347.7207 1373.7906 348.47726 1372.9512 349.98828 C 1372.1117 351.33141 1371.6914 355.36051 1371.6914 362.07617 C 1371.6914 369.12761 1372.0277 373.4089 1372.6992 374.91992 C 1373.3708 376.43095 1374.966 377.18555 1377.4844 377.18555 L 1385.543 376.93359 L 1395.3652 377.18555 L 1397.8828 377.18555 C 1400.0654 377.18555 1401.1562 375.92658 1401.1562 373.4082 L 1400.9043 362.32812 L 1401.1562 350.99414 C 1401.1562 348.64366 1400.0654 347.46875 1397.8828 347.46875 z M 1438.4277 347.46875 L 1426.3398 347.7207 L 1418.0293 347.7207 C 1416.0146 347.7207 1414.6716 348.30913 1414 349.48438 C 1412.8248 351.33118 1412.2383 355.5284 1412.2383 362.07617 C 1412.2383 369.12761 1412.5726 373.4089 1413.2441 374.91992 C 1413.9157 376.43095 1415.5109 377.18555 1418.0293 377.18555 L 1426.3398 376.93359 L 1435.9102 377.18555 L 1438.4277 377.18555 C 1440.6103 377.18555 1441.7031 375.92658 1441.7031 373.4082 L 1441.4512 362.32812 L 1441.7031 350.99414 C 1441.7031 348.64366 1440.6103 347.46875 1438.4277 347.46875 z M 2410.1777 347.46875 L 2397.8379 347.7207 L 2389.7793 347.7207 C 2387.5967 347.7207 2386.0856 348.47726 2385.2461 349.98828 C 2384.4066 351.33141 2383.9863 355.36051 2383.9863 362.07617 C 2383.9863 369.12761 2384.3226 373.4089 2384.9941 374.91992 C 2385.6657 376.43095 2387.2609 377.18555 2389.7793 377.18555 L 2397.8379 376.93359 L 2407.6602 377.18555 L 2410.1777 377.18555 C 2412.3603 377.18555 2413.4512 375.92658 2413.4512 373.4082 L 2413.1992 362.32812 L 2413.4512 350.99414 C 2413.4512 348.64366 2412.3603 347.46875 2410.1777 347.46875 z M 3740.6855 347.46875 L 3728.3457 347.7207 L 3720.2871 347.7207 C 3718.1045 347.7207 3716.5934 348.47726 3715.7539 349.98828 C 3714.9144 351.33141 3714.4941 355.36051 3714.4941 362.07617 C 3714.4941 369.12761 3714.8304 373.4089 3715.502 374.91992 C 3716.1735 376.43095 3717.7687 377.18555 3720.2871 377.18555 L 3728.3457 376.93359 L 3738.166 377.18555 L 3740.6855 377.18555 C 3742.8681 377.18555 3743.959 375.92658 3743.959 373.4082 L 3743.707 362.32812 L 3743.959 350.99414 C 3743.959 348.64366 3742.8681 347.46875 3740.6855 347.46875 z M 1610.2168 383.48242 C 1603.3332 383.48242 1595.275 390.19759 1586.041 403.62891 C 1576.3033 417.89968 1571.4336 431.83438 1571.4336 445.43359 C 1571.4336 458.52913 1576.3874 472.80008 1586.293 488.24609 C 1596.1986 503.52422 1604.9293 511.16406 1612.4844 511.16406 C 1617.3532 511.16406 1623.6481 507.13496 1631.3711 499.07617 C 1639.0941 491.01738 1645.559 481.36201 1650.7637 470.11328 L 1642.9551 463.81836 L 1639.6816 468.85547 C 1638.5064 470.70228 1637.2474 472.54772 1635.9043 474.39453 C 1633.7217 477.41658 1631.54 480.01858 1629.3574 482.20117 C 1620.1234 478.67545 1611.8951 471.20568 1604.6758 459.78906 C 1597.6243 448.20455 1594.0996 436.87185 1594.0996 425.79102 C 1594.0996 423.77632 1594.3518 420.58588 1594.8555 416.2207 C 1595.527 411.85552 1596.6179 408.07861 1598.1289 404.88867 C 1605.684 406.56759 1611.9808 409.33771 1617.0176 413.19922 C 1620.0396 415.5497 1623.06 418.65607 1626.082 422.51758 C 1629.1041 426.37908 1630.8674 428.30859 1631.3711 428.30859 C 1631.8748 428.30859 1632.7154 427.30181 1633.8906 425.28711 C 1635.9053 421.92928 1638.5914 418.48666 1641.9492 414.96094 C 1646.4823 410.09208 1648.748 406.98766 1648.748 405.64453 C 1648.748 401.78303 1643.1237 397.1655 1631.875 391.79297 C 1620.7942 386.25255 1613.5746 383.48242 1610.2168 383.48242 z M 2833.0039 383.48242 C 2826.1204 383.48242 2818.0622 390.19759 2808.8281 403.62891 C 2799.0904 417.89968 2794.2227 431.83438 2794.2227 445.43359 C 2794.2227 458.52913 2799.1745 472.80008 2809.0801 488.24609 C 2818.9857 503.52422 2827.7164 511.16406 2835.2715 511.16406 C 2840.1403 511.16406 2846.4352 507.13496 2854.1582 499.07617 C 2861.8812 491.01738 2868.3461 481.36201 2873.5508 470.11328 L 2865.7441 463.81836 L 2862.4707 468.85547 C 2861.2955 470.70228 2860.0345 472.54772 2858.6914 474.39453 C 2856.5088 477.41658 2854.3271 480.01858 2852.1445 482.20117 C 2842.9105 478.67545 2834.6842 471.20568 2827.4648 459.78906 C 2820.4134 448.20455 2816.8867 436.87185 2816.8867 425.79102 C 2816.8867 423.77632 2817.1389 420.58588 2817.6426 416.2207 C 2818.3141 411.85552 2819.405 408.07861 2820.916 404.88867 C 2828.4711 406.56759 2834.7679 409.33771 2839.8047 413.19922 C 2842.8267 415.5497 2845.849 418.65607 2848.8711 422.51758 C 2851.8931 426.37908 2853.6545 428.30859 2854.1582 428.30859 C 2854.6619 428.30859 2855.5025 427.30181 2856.6777 425.28711 C 2858.6924 421.92928 2861.3785 418.48666 2864.7363 414.96094 C 2869.2694 410.09208 2871.5352 406.98766 2871.5352 405.64453 C 2871.5352 401.78303 2865.9108 397.1655 2854.6621 391.79297 C 2843.5813 386.25255 2836.3617 383.48242 2833.0039 383.48242 z M 1199.707 383.73438 C 1191.984 383.73438 1183.0011 389.86111 1172.7598 402.11719 C 1160.6716 416.72375 1154.627 433.5967 1154.627 452.73633 C 1154.627 459.1162 1154.9632 466.00145 1155.6348 473.38867 C 1156.3063 480.7759 1157.3972 492.61101 1158.9082 508.89648 C 1159.4119 513.26166 1159.7481 517.12264 1159.916 520.48047 C 1160.0839 523.8383 1160.168 526.86061 1160.168 529.54688 L 1160.168 534.58398 L 1160.168 540.88086 L 1160.168 547.93164 L 1160.168 554.73047 C 1160.168 557.41673 1160.0839 559.3482 1159.916 560.52344 L 1159.916 562.03516 C 1160.4197 563.54618 1162.2671 564.30078 1165.457 564.30078 C 1170.3259 564.30078 1174.0187 561.95096 1176.5371 557.25 C 1179.2234 552.71693 1180.5664 544.40655 1180.5664 532.31836 C 1180.5664 527.28161 1180.2321 520.14614 1179.5605 510.91211 C 1179.0569 501.84597 1178.7206 496.22165 1178.5527 494.03906 L 1177.5449 485.98047 C 1180.567 491.85667 1185.0164 496.8085 1190.8926 500.83789 C 1196.9367 504.69939 1202.9813 506.63086 1209.0254 506.63086 C 1218.7631 506.63086 1226.7372 502.18145 1232.9492 493.2832 C 1239.3291 484.21706 1242.5195 472.54812 1242.5195 458.27734 C 1242.5195 439.64139 1237.1474 422.0979 1226.4023 405.64453 C 1216.8325 391.03797 1207.9337 383.73438 1199.707 383.73438 z M 2728.9297 383.73438 C 2721.2067 383.73438 2712.2238 389.86111 2701.9824 402.11719 C 2689.8942 416.72375 2683.8496 433.5967 2683.8496 452.73633 C 2683.8496 459.1162 2684.1859 466.00145 2684.8574 473.38867 C 2685.529 480.7759 2686.6198 492.61101 2688.1309 508.89648 C 2688.6345 513.26166 2688.9708 517.12264 2689.1387 520.48047 C 2689.3066 523.8383 2689.3906 526.86061 2689.3906 529.54688 L 2689.3906 534.58398 L 2689.3906 540.88086 L 2689.3906 547.93164 L 2689.3906 554.73047 C 2689.3906 557.41673 2689.3066 559.3482 2689.1387 560.52344 L 2689.1387 562.03516 C 2689.6423 563.54618 2691.4897 564.30078 2694.6797 564.30078 C 2699.5485 564.30078 2703.2414 561.95096 2705.7598 557.25 C 2708.446 552.71693 2709.7891 544.40655 2709.7891 532.31836 C 2709.7891 527.28161 2709.4528 520.14614 2708.7812 510.91211 C 2708.2776 501.84597 2707.9433 496.22165 2707.7754 494.03906 L 2706.7676 485.98047 C 2709.7896 491.85667 2714.239 496.8085 2720.1152 500.83789 C 2726.1593 504.69939 2732.204 506.63086 2738.248 506.63086 C 2747.9858 506.63086 2755.9599 502.18145 2762.1719 493.2832 C 2768.5518 484.21706 2771.7422 472.54812 2771.7422 458.27734 C 2771.7422 439.64139 2766.3681 422.0979 2755.623 405.64453 C 2746.0532 391.03797 2737.1564 383.73438 2728.9297 383.73438 z M 3814.4844 383.73438 C 3806.7614 383.73438 3797.7804 389.86111 3787.5391 402.11719 C 3775.4509 416.72375 3769.4062 433.5967 3769.4062 452.73633 C 3769.4063 459.1162 3769.7425 466.00145 3770.4141 473.38867 C 3771.0856 480.7759 3772.1765 492.61101 3773.6875 508.89648 C 3774.1912 513.26166 3774.5274 517.12264 3774.6953 520.48047 C 3774.8632 523.8383 3774.9473 526.86061 3774.9473 529.54688 L 3774.9473 534.58398 L 3774.9473 540.88086 L 3774.9473 547.93164 L 3774.9473 554.73047 C 3774.9473 557.41673 3774.8632 559.3482 3774.6953 560.52344 L 3774.6953 562.03516 C 3775.199 563.54618 3777.0464 564.30078 3780.2363 564.30078 C 3785.1052 564.30078 3788.798 561.95096 3791.3164 557.25 C 3794.0027 552.71693 3795.3457 544.40655 3795.3457 532.31836 C 3795.3457 527.28161 3795.0095 520.14614 3794.3379 510.91211 C 3793.8342 501.84597 3793.498 496.22165 3793.3301 494.03906 L 3792.3242 485.98047 C 3795.3463 491.85667 3799.7957 496.8085 3805.6719 500.83789 C 3811.716 504.69939 3817.7586 506.63086 3823.8027 506.63086 C 3833.5404 506.63086 3841.5165 502.18145 3847.7285 493.2832 C 3854.1084 484.21706 3857.2969 472.54812 3857.2969 458.27734 C 3857.2969 439.64139 3851.9247 422.0979 3841.1797 405.64453 C 3831.6099 391.03797 3822.7111 383.73438 3814.4844 383.73438 z M 2612.918 388.51953 C 2596.4646 388.51953 2583.3705 395.57094 2573.6328 409.67383 C 2565.7419 421.09045 2561.7949 433.34587 2561.7949 446.44141 L 2561.7949 454.5 C 2561.7949 475.48643 2569.1826 490.93229 2583.957 500.83789 C 2594.3663 507.72144 2606.7898 511.16406 2621.2285 511.16406 C 2630.4625 511.16406 2638.6908 509.40072 2645.9102 505.875 C 2653.1295 502.51717 2659.1722 498.15182 2664.041 492.7793 L 2659.7598 487.74219 C 2653.3799 492.44315 2647.7556 495.71765 2642.8867 497.56445 C 2638.0179 499.24337 2633.3182 500.08203 2628.7852 500.08203 C 2618.208 500.08203 2609.9797 495.96887 2604.1035 487.74219 C 2598.3952 479.51551 2595.543 469.35772 2595.543 457.26953 C 2597.7256 455.42272 2599.6551 453.99563 2601.334 452.98828 C 2604.6918 451.14147 2608.1344 450.21875 2611.6602 450.21875 C 2614.8501 450.21875 2618.2908 451.22554 2621.9844 453.24023 C 2624.5027 454.58337 2627.0207 456.09452 2629.5391 457.77344 C 2632.0574 459.45235 2633.8208 460.5432 2634.8281 461.04688 C 2636.0034 461.55055 2637.9348 461.80273 2640.6211 461.80273 C 2642.6358 461.80273 2644.3991 461.46844 2645.9102 460.79688 C 2647.5891 460.12531 2649.7708 458.78032 2652.457 456.76562 C 2655.3112 454.75093 2657.5769 452.98954 2659.2559 451.47852 C 2661.1027 449.7996 2663.3704 447.36377 2666.0566 444.17383 L 2661.2715 437.87891 C 2659.7605 439.05415 2658.2493 439.97687 2656.7383 440.64844 C 2655.2273 441.32 2653.7161 441.65625 2652.2051 441.65625 C 2650.8619 441.65625 2648.6802 440.73353 2645.6582 438.88672 C 2642.6362 437.03991 2639.5298 435.52876 2636.3398 434.35352 C 2633.1499 433.17828 2630.0435 432.58984 2627.0215 432.58984 C 2622.9921 432.58984 2617.3678 434.26912 2610.1484 437.62695 C 2603.9365 440.48111 2598.9846 443.3353 2595.291 446.18945 C 2595.291 433.59759 2596.2978 423.18762 2598.3125 414.96094 C 2601.1667 403.04064 2606.2866 397.08203 2613.6738 397.08203 C 2616.0243 397.08203 2618.3761 398.08882 2620.7266 400.10352 C 2621.566 400.94297 2623.4955 403.12467 2626.5176 406.65039 C 2629.5396 410.00822 2632.7301 412.86241 2636.0879 415.21289 C 2639.6136 417.39548 2643.2224 418.48828 2646.916 418.48828 C 2650.2738 418.48828 2653.8005 417.73173 2657.4941 416.2207 C 2661.3556 414.70968 2665.2166 412.61204 2669.0781 409.92578 L 2663.0352 402.62109 C 2661.3562 403.79633 2659.5929 404.38477 2657.7461 404.38477 C 2655.3956 404.38477 2652.4574 403.04173 2648.9316 400.35547 C 2643.3912 396.99764 2638.7737 394.5618 2635.0801 393.05078 C 2627.6929 390.02873 2620.3052 388.51953 2612.918 388.51953 z M 1126.6074 389.27344 C 1119.3881 389.27344 1111.8323 392.88418 1103.9414 400.10352 C 1094.2037 409.00176 1083.9619 423.27271 1073.2168 442.91602 L 1071.2031 442.91602 C 1071.2031 433.3462 1071.4553 425.70636 1071.959 419.99805 C 1072.6306 414.28974 1073.3011 409.08573 1073.9727 404.38477 C 1074.8121 399.51591 1075.2324 396.32548 1075.2324 394.81445 C 1075.2324 392.96765 1074.2256 391.79274 1072.2109 391.28906 C 1071.8752 391.12117 1071.0345 391.12117 1069.6914 391.28906 L 1057.6035 392.04492 L 1051.3086 391.54102 C 1047.615 391.54102 1045.1791 394.05896 1044.0039 399.0957 C 1042.9966 404.13245 1042.4941 417.56473 1042.4941 439.39062 C 1042.4941 469.61109 1042.9125 487.82708 1043.752 494.03906 C 1044.5914 500.08316 1047.1113 503.10547 1051.3086 503.10547 L 1062.6406 503.10547 C 1068.3489 503.10547 1071.8737 502.43298 1073.2168 501.08984 C 1073.8884 500.41828 1074.0565 498.82306 1073.7207 496.30469 C 1072.8812 490.42849 1072.2107 484.13363 1071.707 477.41797 C 1071.3712 470.53442 1071.2031 461.80373 1071.2031 451.22656 C 1079.5977 453.91283 1086.565 459.11684 1092.1055 466.83984 C 1097.6459 474.39496 1101.2547 483.37784 1102.9336 493.78711 C 1103.6052 497.9844 1104.2777 500.75452 1104.9492 502.09766 C 1105.6208 503.44079 1106.7116 504.11133 1108.2227 504.11133 C 1108.7263 504.11133 1109.9853 503.9432 1112 503.60742 C 1114.1826 503.27164 1116.9527 503.10547 1120.3105 503.10547 L 1128.873 503.85938 L 1131.8965 503.85938 C 1135.9259 503.85938 1137.9395 502.85259 1137.9395 500.83789 C 1137.9395 489.25338 1131.8108 477.6685 1119.5547 466.08398 C 1109.6491 456.68206 1096.555 449.71471 1080.2695 445.18164 L 1085.3066 438.13086 C 1089.0003 431.91887 1093.4477 426.6308 1098.6523 422.26562 C 1104.0249 417.73256 1108.7265 415.46484 1112.7559 415.46484 C 1117.7926 415.46484 1121.4855 417.98279 1123.8359 423.01953 L 1129.8809 422.76758 L 1130.1328 417.73242 C 1130.1328 409.50574 1131.8121 403.04081 1135.1699 398.33984 C 1136.5131 396.49304 1137.1836 394.7297 1137.1836 393.05078 C 1137.1836 392.04343 1136.0927 391.20477 1133.9102 390.5332 C 1131.7276 389.69375 1129.2937 389.27344 1126.6074 389.27344 z M 1881.1348 389.27344 C 1873.9154 389.27344 1866.3596 392.88418 1858.4688 400.10352 C 1848.731 409.00176 1838.4911 423.27271 1827.7461 442.91602 L 1825.7305 442.91602 C 1825.7305 433.3462 1825.9827 425.70636 1826.4863 419.99805 C 1827.1579 414.28974 1827.8284 409.08573 1828.5 404.38477 C 1829.3395 399.51591 1829.7598 396.32548 1829.7598 394.81445 C 1829.7598 392.96765 1828.753 391.79274 1826.7383 391.28906 C 1826.4025 391.12117 1825.5638 391.12117 1824.2207 391.28906 L 1812.1309 392.04492 L 1805.8359 391.54102 C 1802.1423 391.54102 1799.7084 394.05896 1798.5332 399.0957 C 1797.5259 404.13245 1797.0215 417.56473 1797.0215 439.39062 C 1797.0215 469.61109 1797.4418 487.82708 1798.2812 494.03906 C 1799.1207 500.08316 1801.6387 503.10547 1805.8359 503.10547 L 1817.168 503.10547 C 1822.8763 503.10547 1826.403 502.43298 1827.7461 501.08984 C 1828.4177 500.41828 1828.5858 498.82306 1828.25 496.30469 C 1827.4105 490.42849 1826.738 484.13363 1826.2344 477.41797 C 1825.8986 470.53442 1825.7305 461.80373 1825.7305 451.22656 C 1834.125 453.91283 1841.0924 459.11684 1846.6328 466.83984 C 1852.1732 474.39496 1855.784 483.37784 1857.4629 493.78711 C 1858.1345 497.9844 1858.805 500.75452 1859.4766 502.09766 C 1860.1481 503.44079 1861.239 504.11133 1862.75 504.11133 C 1863.2537 504.11133 1864.5146 503.9432 1866.5293 503.60742 C 1868.7119 503.27164 1871.482 503.10547 1874.8398 503.10547 L 1883.4023 503.85938 L 1886.4238 503.85938 C 1890.4532 503.85938 1892.4668 502.85259 1892.4668 500.83789 C 1892.4668 489.25338 1886.3401 477.6685 1874.084 466.08398 C 1864.1784 456.68206 1851.0823 449.71471 1834.7969 445.18164 L 1839.834 438.13086 C 1843.5276 431.91887 1847.977 426.6308 1853.1816 422.26562 C 1858.5542 417.73256 1863.2538 415.46484 1867.2832 415.46484 C 1872.3199 415.46484 1876.0148 417.98279 1878.3652 423.01953 L 1884.4082 422.76758 L 1884.6602 417.73242 C 1884.6602 409.50574 1886.3394 403.04081 1889.6973 398.33984 C 1891.0404 396.49304 1891.7129 394.7297 1891.7129 393.05078 C 1891.7129 392.04343 1890.6201 391.20477 1888.4375 390.5332 C 1886.2549 389.69375 1883.821 389.27344 1881.1348 389.27344 z M 3886.8301 389.27344 C 3885.1512 389.27344 3883.5559 389.60968 3882.0449 390.28125 C 3880.7018 390.95282 3880.0293 391.9596 3880.0293 393.30273 C 3881.2045 396.99635 3882.4635 400.60709 3883.8066 404.13281 C 3884.814 407.99432 3885.3184 412.61185 3885.3184 417.98438 C 3885.3184 418.99172 3885.4865 420.16663 3885.8223 421.50977 C 3886.158 422.68501 3886.9127 423.27148 3888.0879 423.27148 C 3889.5989 423.27148 3891.1101 422.51688 3892.6211 421.00586 C 3893.9642 419.99851 3895.057 419.24196 3895.8965 418.73828 C 3896.9038 418.23461 3898.3309 417.98438 3900.1777 417.98438 C 3904.7108 417.98438 3909.2423 419.57764 3913.7754 422.76758 C 3920.6589 427.46854 3926.7036 435.36057 3931.9082 446.44141 C 3916.6301 448.12032 3903.8703 454.16495 3893.6289 464.57422 C 3887.5848 470.61831 3882.2967 478.50839 3877.7637 488.24609 C 3875.0774 493.61862 3873.7344 497.39554 3873.7344 499.57812 C 3873.7344 501.59282 3874.1527 502.76969 3874.9922 503.10547 C 3875.8316 503.60914 3877.3428 503.85938 3879.5254 503.85938 L 3886.3262 503.35742 L 3892.1172 503.10547 L 3897.1543 503.10547 L 3902.4434 503.35742 C 3904.6259 503.35742 3906.1371 502.26462 3906.9766 500.08203 C 3907.816 497.73155 3908.7387 495.21361 3909.7461 492.52734 C 3914.4471 478.76024 3920.1554 468.51839 3926.8711 461.80273 C 3931.2363 457.43756 3935.9379 454.75149 3940.9746 453.74414 L 3941.4785 473.64062 C 3941.4785 487.74351 3941.8988 496.22202 3942.7383 499.07617 C 3943.7456 501.76244 3946.0954 503.10547 3949.7891 503.10547 L 3963.3887 503.10547 C 3968.0896 503.10547 3970.8598 502.6011 3971.6992 501.59375 C 3972.7066 500.41851 3973.0409 498.65517 3972.7051 496.30469 C 3971.5298 487.57433 3970.7752 480.52292 3970.4395 475.15039 C 3970.2716 469.77786 3970.1875 462.64239 3970.1875 453.74414 C 3976.0637 454.75149 3981.2677 457.7738 3985.8008 462.81055 C 3991.8449 469.35831 3997.4692 480.10258 4002.6738 495.04492 C 4003.3454 496.72384 4004.0179 498.57124 4004.6895 500.58594 C 4005.5289 502.43274 4006.956 503.35742 4008.9707 503.35742 L 4019.2949 503.10547 L 4025.0879 503.35742 L 4032.1387 503.85938 C 4033.8176 503.85938 4035.1606 503.60914 4036.168 503.10547 C 4037.3432 502.4339 4037.9316 501.25704 4037.9316 499.57812 C 4037.9316 496.72397 4036.0842 491.68808 4032.3906 484.46875 C 4028.697 477.24942 4024.6679 471.28885 4020.3027 466.58789 C 4015.266 461.21536 4009.9779 457.01814 4004.4375 453.99609 C 3997.2182 449.9667 3988.9918 447.44876 3979.7578 446.44141 C 3984.7946 436.03213 3990.2508 428.47635 3996.127 423.77539 C 4000.9958 419.91389 4006.1158 417.98438 4011.4883 417.98438 C 4013.503 417.98438 4014.9301 418.23461 4015.7695 418.73828 C 4016.7769 419.24196 4017.7856 419.99851 4018.793 421.00586 C 4019.8003 421.84532 4020.5549 422.4318 4021.0586 422.76758 C 4021.7302 423.10336 4022.4867 423.27148 4023.3262 423.27148 C 4024.5014 423.27148 4025.256 422.93719 4025.5918 422.26562 C 4025.9276 421.59406 4026.0957 420.16696 4026.0957 417.98438 C 4026.0957 412.77974 4026.6001 408.24627 4027.6074 404.38477 C 4028.7827 400.35537 4030.0416 396.66056 4031.3848 393.30273 C 4031.3848 390.61647 4029.1171 389.27344 4024.584 389.27344 C 4018.0362 389.27344 4009.978 393.97503 4000.4082 403.37695 C 3990.8384 412.61098 3982.2758 423.6915 3974.7207 436.61914 L 3969.6836 445.18164 L 3969.6836 435.86328 L 3969.6836 428.56055 L 3969.6836 418.99023 C 3969.6836 413.61771 3969.8517 408.91807 3970.1875 404.88867 C 3970.6912 400.69138 3971.1955 397.50095 3971.6992 395.31836 C 3971.6992 393.13577 3969.8518 392.04492 3966.1582 392.04492 L 3949.0332 392.04492 C 3946.179 392.04492 3944.1635 392.96765 3942.9883 394.81445 C 3941.9809 396.66126 3941.4785 401.27879 3941.4785 408.66602 L 3941.4785 417.73242 L 3941.4785 428.30859 L 3941.2266 445.18164 C 3931.9925 427.72093 3922.0869 413.78622 3911.5098 403.37695 C 3901.94 393.97503 3893.7136 389.27344 3886.8301 389.27344 z M 1417.5254 391.54102 L 1407.7051 392.04492 L 1399.6465 391.79297 C 1396.1208 391.79297 1393.6849 394.47904 1392.3418 399.85156 C 1390.9987 405.22409 1390.3281 418.32013 1390.3281 439.13867 C 1390.3281 441.15337 1390.4962 447.61635 1390.832 458.5293 C 1391.3357 469.44224 1391.5879 478.42512 1391.5879 485.47656 C 1391.5879 493.19957 1392.1744 498.06733 1393.3496 500.08203 C 1394.5248 502.09673 1396.6244 503.10547 1399.6465 503.10547 L 1410.7266 503.10547 C 1416.7707 503.10547 1420.4635 502.68516 1421.8066 501.8457 C 1423.1498 500.83835 1423.5701 498.99095 1423.0664 496.30469 C 1421.5554 486.06331 1420.5486 477.50074 1420.0449 470.61719 C 1419.7091 463.56575 1419.541 452.82148 1419.541 438.38281 C 1419.541 427.97354 1419.8773 419.32691 1420.5488 412.44336 C 1421.3883 405.55981 1422.311 399.76737 1423.3184 395.06641 C 1423.3184 393.05171 1422.2275 391.8768 1420.0449 391.54102 L 1417.5254 391.54102 z M 1474.957 391.54102 L 1464.1289 392.04492 L 1457.0762 391.79297 C 1453.5505 391.79297 1451.2006 394.22685 1450.0254 399.0957 C 1449.018 403.79666 1448.5137 417.22895 1448.5137 439.39062 C 1448.5137 467.4285 1448.934 485.05606 1449.7734 492.27539 C 1450.7808 499.49472 1453.2147 503.10547 1457.0762 503.10547 L 1468.1582 503.10547 C 1474.0344 503.10547 1477.6432 502.68516 1478.9863 501.8457 C 1480.3295 500.83835 1481.002 498.99095 1481.002 496.30469 C 1481.002 492.27529 1480.5816 488.07807 1479.7422 483.71289 C 1478.9027 479.17982 1478.4824 475.57103 1478.4824 472.88477 C 1478.4824 472.38109 1478.0621 466.58865 1477.2227 455.50781 C 1477.0548 453.32522 1476.9707 450.5551 1476.9707 447.19727 L 1516.0059 447.70117 C 1516.0059 473.38857 1516.4262 489.08661 1517.2656 494.79492 C 1518.273 500.33534 1520.959 503.10547 1525.3242 503.10547 L 1536.4043 503.10547 C 1541.2731 503.10547 1544.5476 502.76922 1546.2266 502.09766 C 1548.0734 501.42609 1548.998 499.49463 1548.998 496.30469 C 1547.9907 487.57433 1547.066 479.09582 1546.2266 470.86914 C 1545.3871 462.64246 1544.9668 451.89819 1544.9668 438.63477 C 1544.9668 427.21815 1545.5552 417.31254 1546.7305 408.91797 C 1547.0663 405.72803 1547.5706 402.87384 1548.2422 400.35547 C 1548.9138 397.8371 1549.248 396.07376 1549.248 395.06641 C 1549.248 393.05171 1548.1572 391.8768 1545.9746 391.54102 L 1543.2051 391.54102 C 1542.5335 391.54102 1541.4427 391.70914 1539.9316 392.04492 L 1536.4043 392.04492 L 1532.375 392.04492 L 1525.3242 391.79297 C 1521.6306 391.79297 1519.2808 393.8906 1518.2734 398.08789 C 1516.7624 404.13198 1516.0059 417.48021 1516.0059 438.13086 L 1477.2227 437.375 C 1477.2227 431.16302 1477.643 424.7841 1478.4824 418.23633 C 1479.9934 406.48392 1480.75 398.76002 1480.75 395.06641 C 1480.75 393.05171 1479.6572 391.8768 1477.4746 391.54102 L 1474.957 391.54102 z M 1701.7676 391.54102 C 1701.096 391.54102 1699.9211 391.70914 1698.2422 392.04492 L 1694.9688 392.04492 L 1690.9395 392.04492 L 1683.6348 391.79297 C 1679.1017 391.79297 1676.3316 395.56988 1675.3242 403.125 C 1674.3169 410.51223 1673.8145 430.15531 1673.8145 462.05469 L 1673.8145 493.78711 C 1673.8145 496.97705 1674.485 499.32687 1675.8281 500.83789 C 1677.1713 502.34891 1679.2708 503.10547 1682.125 503.10547 L 1744.0762 503.10547 L 1749.6172 503.35742 L 1753.6465 503.60742 L 1757.6758 503.60742 C 1761.8731 503.60742 1764.8113 503.27313 1766.4902 502.60156 C 1769.6802 501.25843 1771.2754 498.32018 1771.2754 493.78711 C 1771.2754 487.74302 1770.1845 481.95058 1768.002 476.41016 C 1764.812 468.51926 1759.6061 461.72003 1752.3867 456.01172 C 1746.0068 450.97497 1738.5351 447.36423 1729.9727 445.18164 C 1721.5781 442.83116 1712.7653 441.65625 1703.5312 441.65625 L 1703.5312 436.36719 C 1703.5313 430.99466 1703.7834 425.20222 1704.2871 418.99023 C 1704.7908 412.61036 1705.4613 407.40635 1706.3008 403.37695 C 1707.1402 399.17967 1707.5605 396.40954 1707.5605 395.06641 C 1707.5605 394.22695 1707.3084 393.47235 1706.8047 392.80078 C 1706.4689 392.12922 1705.7123 391.70891 1704.5371 391.54102 L 1701.7676 391.54102 z M 2277.6875 391.54102 L 2266.8594 392.04492 L 2259.8066 391.79297 C 2256.2809 391.79297 2253.9311 394.22685 2252.7559 399.0957 C 2251.7485 403.79666 2251.2441 417.22895 2251.2441 439.39062 C 2251.2441 467.4285 2251.6644 485.05606 2252.5039 492.27539 C 2253.5113 499.49472 2255.9451 503.10547 2259.8066 503.10547 L 2270.8887 503.10547 C 2276.7649 503.10547 2280.3737 502.68516 2281.7168 501.8457 C 2283.0599 500.83835 2283.7324 498.99095 2283.7324 496.30469 C 2283.7324 492.27529 2283.3121 488.07807 2282.4727 483.71289 C 2281.6332 479.17982 2281.2129 475.57103 2281.2129 472.88477 C 2281.2129 472.38109 2280.7945 466.58865 2279.9551 455.50781 C 2279.7872 453.32522 2279.7031 450.5551 2279.7031 447.19727 L 2318.7383 447.70117 C 2318.7383 473.38857 2319.1566 489.08661 2319.9961 494.79492 C 2321.0034 500.33534 2323.6895 503.10547 2328.0547 503.10547 L 2339.1367 503.10547 C 2344.0056 503.10547 2347.2781 502.76922 2348.957 502.09766 C 2350.8038 501.42609 2351.7285 499.49463 2351.7285 496.30469 C 2350.7212 487.57433 2349.7965 479.09582 2348.957 470.86914 C 2348.1176 462.64246 2347.6992 451.89819 2347.6992 438.63477 C 2347.6992 427.21815 2348.2857 417.31254 2349.4609 408.91797 C 2349.7967 405.72803 2350.3011 402.87384 2350.9727 400.35547 C 2351.6442 397.8371 2351.9805 396.07376 2351.9805 395.06641 C 2351.9805 393.05171 2350.8896 391.8768 2348.707 391.54102 L 2345.9355 391.54102 C 2345.264 391.54102 2344.1731 391.70914 2342.6621 392.04492 L 2339.1367 392.04492 L 2335.1074 392.04492 L 2328.0547 391.79297 C 2324.3611 391.79297 2322.0113 393.8906 2321.0039 398.08789 C 2319.4929 404.13198 2318.7383 417.48021 2318.7383 438.13086 L 2279.9551 437.375 C 2279.9551 431.16302 2280.3734 424.7841 2281.2129 418.23633 C 2282.7239 406.48392 2283.4805 398.76002 2283.4805 395.06641 C 2283.4805 393.05171 2282.3896 391.8768 2280.207 391.54102 L 2277.6875 391.54102 z M 2407.6602 391.54102 L 2397.8379 392.04492 L 2389.7793 391.79297 C 2386.2536 391.79297 2383.8197 394.47904 2382.4766 399.85156 C 2381.1334 405.22409 2380.4609 418.32013 2380.4609 439.13867 C 2380.4609 441.15337 2380.6291 447.61635 2380.9648 458.5293 C 2381.4685 469.44224 2381.7207 478.42512 2381.7207 485.47656 C 2381.7207 493.19957 2382.3072 498.06733 2383.4824 500.08203 C 2384.6577 502.09673 2386.7573 503.10547 2389.7793 503.10547 L 2400.8594 503.10547 C 2406.9035 503.10547 2410.5983 502.68516 2411.9414 501.8457 C 2413.2845 500.83835 2413.7029 498.99095 2413.1992 496.30469 C 2411.6882 486.06331 2410.6814 477.50074 2410.1777 470.61719 C 2409.842 463.56575 2409.6738 452.82148 2409.6738 438.38281 C 2409.6738 427.97354 2410.0101 419.32691 2410.6816 412.44336 C 2411.5211 405.55981 2412.4438 399.76737 2413.4512 395.06641 C 2413.4512 393.05171 2412.3603 391.8768 2410.1777 391.54102 L 2407.6602 391.54102 z M 3156.2266 391.54102 C 3155.555 391.54102 3154.3801 391.70914 3152.7012 392.04492 L 3149.4258 392.04492 L 3145.3965 392.04492 L 3138.0938 391.79297 C 3133.5607 391.79297 3130.7906 395.56988 3129.7832 403.125 C 3128.7759 410.51223 3128.2715 430.15531 3128.2715 462.05469 L 3128.2715 493.78711 C 3128.2715 496.97705 3128.944 499.32687 3130.2871 500.83789 C 3131.6302 502.34891 3133.7279 503.10547 3136.582 503.10547 L 3198.5352 503.10547 L 3204.0762 503.35742 L 3208.1055 503.60742 L 3212.1348 503.60742 C 3216.3321 503.60742 3219.2703 503.27313 3220.9492 502.60156 C 3224.1392 501.25843 3225.7324 498.32018 3225.7324 493.78711 C 3225.7324 487.74302 3224.6416 481.95058 3222.459 476.41016 C 3219.269 468.51926 3214.065 461.72003 3206.8457 456.01172 C 3200.4658 450.97497 3192.9941 447.36423 3184.4316 445.18164 C 3176.0371 442.83116 3167.2223 441.65625 3157.9883 441.65625 L 3157.9883 436.36719 C 3157.9883 430.99466 3158.2405 425.20222 3158.7441 418.99023 C 3159.2478 412.61036 3159.9203 407.40635 3160.7598 403.37695 C 3161.5992 399.17967 3162.0176 396.40954 3162.0176 395.06641 C 3162.0176 394.22695 3161.7673 393.47235 3161.2637 392.80078 C 3160.9279 392.12922 3160.1713 391.70891 3158.9961 391.54102 L 3156.2266 391.54102 z M 3277.168 391.54102 L 3266.3379 392.04492 L 3259.2871 391.79297 C 3255.7614 391.79297 3253.4096 394.22685 3252.2344 399.0957 C 3251.227 403.79666 3250.7246 417.22895 3250.7246 439.39062 C 3250.7246 467.4285 3251.143 485.05606 3251.9824 492.27539 C 3252.9898 499.49472 3255.4256 503.10547 3259.2871 503.10547 L 3270.3672 503.10547 C 3276.2434 503.10547 3279.8541 502.68516 3281.1973 501.8457 C 3282.5404 500.83835 3283.2109 498.99095 3283.2109 496.30469 C 3283.2109 492.27529 3282.7906 488.07807 3281.9512 483.71289 C 3281.1117 479.17982 3280.6934 475.57103 3280.6934 472.88477 C 3280.6934 472.38109 3280.2731 466.58865 3279.4336 455.50781 C 3279.2657 453.32522 3279.1816 450.5551 3279.1816 447.19727 L 3318.2168 447.70117 C 3318.2168 473.38857 3318.6371 489.08661 3319.4766 494.79492 C 3320.4839 500.33534 3323.17 503.10547 3327.5352 503.10547 L 3338.6152 503.10547 C 3343.4841 503.10547 3346.7586 502.76922 3348.4375 502.09766 C 3350.2843 501.42609 3351.207 499.49463 3351.207 496.30469 C 3350.1997 487.57433 3349.277 479.09582 3348.4375 470.86914 C 3347.598 462.64246 3347.1777 451.89819 3347.1777 438.63477 C 3347.1777 427.21815 3347.7662 417.31254 3348.9414 408.91797 C 3349.2772 405.72803 3349.7796 402.87384 3350.4512 400.35547 C 3351.1227 397.8371 3351.459 396.07376 3351.459 395.06641 C 3351.459 393.05171 3350.3681 391.8768 3348.1855 391.54102 L 3345.4141 391.54102 C 3344.7425 391.54102 3343.6516 391.70914 3342.1406 392.04492 L 3338.6152 392.04492 L 3334.5859 392.04492 L 3327.5352 391.79297 C 3323.8415 391.79297 3321.4898 393.8906 3320.4824 398.08789 C 3318.9714 404.13198 3318.2168 417.48021 3318.2168 438.13086 L 3279.4336 437.375 C 3279.4336 431.16302 3279.8539 424.7841 3280.6934 418.23633 C 3282.2044 406.48392 3282.959 398.76002 3282.959 395.06641 C 3282.959 393.05171 3281.8681 391.8768 3279.6855 391.54102 L 3277.168 391.54102 z M 3738.166 391.54102 L 3728.3457 392.04492 L 3720.2871 391.79297 C 3716.7614 391.79297 3714.3256 394.47904 3712.9824 399.85156 C 3711.6393 405.22409 3710.9688 418.32013 3710.9688 439.13867 C 3710.9688 441.15337 3711.1369 447.61635 3711.4727 458.5293 C 3711.9763 469.44224 3712.2285 478.42512 3712.2285 485.47656 C 3712.2285 493.19957 3712.815 498.06733 3713.9902 500.08203 C 3715.1655 502.09673 3717.2651 503.10547 3720.2871 503.10547 L 3731.3672 503.10547 C 3737.4113 503.10547 3741.1041 502.68516 3742.4473 501.8457 C 3743.7904 500.83835 3744.2107 498.99095 3743.707 496.30469 C 3742.196 486.06331 3741.1892 477.50074 3740.6855 470.61719 C 3740.3498 463.56575 3740.1816 452.82148 3740.1816 438.38281 C 3740.1816 427.97354 3740.5179 419.32691 3741.1895 412.44336 C 3742.0289 405.55981 3742.9516 399.76737 3743.959 395.06641 C 3743.959 393.05171 3742.8681 391.8768 3740.6855 391.54102 L 3738.166 391.54102 z M 1311.0859 392.04492 C 1307.896 392.04492 1306.3008 392.46328 1306.3008 393.30273 C 1306.3008 394.81376 1306.553 396.49304 1307.0566 398.33984 C 1307.7282 400.01876 1308.1485 401.52992 1308.3164 402.87305 C 1308.6522 404.04829 1308.8184 405.13914 1308.8184 406.14648 C 1308.8184 407.8254 1307.4753 410.09311 1304.7891 412.94727 C 1298.745 419.49503 1295.3043 423.27195 1294.4648 424.2793 C 1284.895 435.19224 1278.7663 442.5799 1276.0801 446.44141 C 1268.3571 457.35435 1264.4961 466.75558 1264.4961 474.64648 C 1264.4961 482.36949 1266.2594 489.08661 1269.7852 494.79492 C 1274.3182 502.18215 1281.1175 505.875 1290.1836 505.875 C 1299.9213 505.875 1308.1476 501.8459 1314.8633 493.78711 C 1320.0679 487.57512 1324.4333 478.59225 1327.959 466.83984 L 1330.9805 477.66992 L 1333.752 486.98633 C 1334.4235 489.33681 1335.2622 491.94077 1336.2695 494.79492 C 1336.4374 496.30595 1336.6896 498.06733 1337.0254 500.08203 C 1337.5291 502.09673 1338.3677 503.10547 1339.543 503.10547 L 1363.9707 503.10547 C 1367.1606 503.10547 1368.7559 502.43298 1368.7559 501.08984 C 1365.9017 493.19894 1363.0475 485.22481 1360.1934 477.16602 C 1355.8282 464.07048 1350.9604 446.77722 1345.5879 425.28711 L 1343.8242 418.23633 L 1340.0469 404.38477 C 1339.2074 401.02694 1338.703 398.84329 1338.5352 397.83594 L 1338.5352 393.30273 C 1338.1994 392.46328 1337.1926 392.04492 1335.5137 392.04492 L 1311.0859 392.04492 z M 1952.9746 392.04492 C 1949.7847 392.04492 1948.1914 392.46328 1948.1914 393.30273 C 1948.1914 394.81376 1948.4416 396.49304 1948.9453 398.33984 C 1949.6169 400.01876 1950.0372 401.52992 1950.2051 402.87305 C 1950.5409 404.04829 1950.709 405.13914 1950.709 406.14648 C 1950.709 407.8254 1949.366 410.09311 1946.6797 412.94727 C 1940.6356 419.49503 1937.193 423.27195 1936.3535 424.2793 C 1926.7837 435.19224 1920.657 442.5799 1917.9707 446.44141 C 1910.2477 457.35435 1906.3848 466.75558 1906.3848 474.64648 C 1906.3848 482.36949 1908.1481 489.08661 1911.6738 494.79492 C 1916.2069 502.18215 1923.0061 505.875 1932.0723 505.875 C 1941.81 505.875 1950.0382 501.8459 1956.7539 493.78711 C 1961.9585 487.57512 1966.3219 478.59225 1969.8477 466.83984 L 1972.8711 477.66992 L 1975.6406 486.98633 C 1976.3122 489.33681 1977.1509 491.94077 1978.1582 494.79492 C 1978.3261 496.30595 1978.5783 498.06733 1978.9141 500.08203 C 1979.4177 502.09673 1980.2584 503.10547 1981.4336 503.10547 L 2005.8613 503.10547 C 2009.0513 503.10547 2010.6465 502.43298 2010.6465 501.08984 C 2007.7923 493.19894 2004.9381 485.22481 2002.084 477.16602 C 1997.7188 464.07048 1992.8491 446.77722 1987.4766 425.28711 L 1985.7148 418.23633 L 1981.9375 404.38477 C 1981.098 401.02694 1980.5937 398.84329 1980.4258 397.83594 L 1980.4258 393.30273 C 1980.09 392.46328 1979.0832 392.04492 1977.4043 392.04492 L 1952.9746 392.04492 z M 2449.7285 392.04492 C 2445.1954 392.04492 2442.3413 395.65371 2441.166 402.87305 C 2440.1587 409.92449 2439.6543 429.65163 2439.6543 462.05469 C 2439.6543 480.52275 2440.0746 492.02357 2440.9141 496.55664 C 2441.9214 500.92182 2444.1031 503.10547 2447.4609 503.10547 L 2520.7461 503.10547 C 2527.9654 503.10547 2533.0033 502.34891 2535.8574 500.83789 C 2540.0547 498.6553 2542.1523 494.12183 2542.1523 487.23828 C 2542.1523 474.47853 2535.1009 463.73426 2520.998 455.00391 C 2512.0998 449.46349 2500.7671 445.09814 2487 441.9082 L 2487 440.39648 C 2500.5992 436.36709 2510.5889 432.16987 2516.9688 427.80469 C 2525.6991 421.76059 2530.0645 414.29083 2530.0645 405.39258 C 2530.0645 399.51638 2527.9649 395.65345 2523.7676 393.80664 C 2521.0813 392.6314 2515.5411 392.04492 2507.1465 392.04492 L 2449.7285 392.04492 z M 2939.666 392.04492 C 2936.4761 392.04492 2934.8809 392.46328 2934.8809 393.30273 C 2934.8809 394.81376 2935.133 396.49304 2935.6367 398.33984 C 2936.3083 400.01876 2936.7286 401.52992 2936.8965 402.87305 C 2937.2323 404.04829 2937.3984 405.13914 2937.3984 406.14648 C 2937.3984 407.8254 2936.0554 410.09311 2933.3691 412.94727 C 2927.325 419.49503 2923.8844 423.27195 2923.0449 424.2793 C 2913.4751 435.19224 2907.3464 442.5799 2904.6602 446.44141 C 2896.9371 457.35435 2893.0762 466.75558 2893.0762 474.64648 C 2893.0762 482.36949 2894.8395 489.08661 2898.3652 494.79492 C 2902.8983 502.18215 2909.6975 505.875 2918.7637 505.875 C 2928.5014 505.875 2936.7277 501.8459 2943.4434 493.78711 C 2948.648 487.57512 2953.0133 478.59225 2956.5391 466.83984 L 2959.5605 477.66992 L 2962.332 486.98633 C 2963.0036 489.33681 2963.8423 491.94077 2964.8496 494.79492 C 2965.0175 496.30595 2965.2697 498.06733 2965.6055 500.08203 C 2966.1091 502.09673 2966.9478 503.10547 2968.123 503.10547 L 2992.5508 503.10547 C 2995.7407 503.10547 2997.3359 502.43298 2997.3359 501.08984 C 2994.4818 493.19894 2991.6276 485.22481 2988.7734 477.16602 C 2984.4083 464.07048 2979.5405 446.77722 2974.168 425.28711 L 2972.4043 418.23633 L 2968.627 404.38477 C 2967.7875 401.02694 2967.2831 398.84329 2967.1152 397.83594 L 2967.1152 393.30273 C 2966.7795 392.46328 2965.7727 392.04492 2964.0938 392.04492 L 2939.666 392.04492 z M 3051.8984 392.04492 C 3050.5553 392.04492 3049.5485 392.21305 3048.877 392.54883 C 3048.2054 392.71672 3047.617 393.21914 3047.1133 394.05859 C 3046.7775 394.56227 3046.7775 395.48695 3047.1133 396.83008 C 3047.9527 399.34845 3048.373 401.69827 3048.373 403.88086 C 3048.373 407.91025 3046.3575 413.36645 3042.3281 420.25 C 3039.1382 425.28674 3035.9497 430.24052 3032.7598 435.10938 C 3026.0441 445.35076 3021.4266 452.73646 3018.9082 457.26953 C 3010.6815 471.87609 3006.5684 484.55182 3006.5684 495.29688 C 3006.5684 498.99049 3006.9867 501.34226 3007.8262 502.34961 C 3008.8335 503.18907 3010.9331 503.60742 3014.123 503.60742 L 3025.4551 503.10547 L 3038.2988 503.35742 C 3041.3209 503.35742 3042.832 502.34868 3042.832 500.33398 C 3042.832 499.49453 3042.3296 498.40368 3041.3223 497.06055 C 3039.8112 495.04585 3038.6344 493.11438 3037.7949 491.26758 C 3036.116 487.90975 3035.0252 484.9715 3034.5215 482.45312 C 3034.0178 479.93475 3033.7656 476.83033 3033.7656 473.13672 C 3033.7656 467.42841 3034.6903 461.38378 3036.5371 455.00391 C 3038.3839 448.62403 3041.9086 439.64115 3047.1133 428.05664 C 3047.9527 425.87405 3049.2117 423.01986 3050.8906 419.49414 C 3052.0659 416.80788 3053.0746 413.78556 3053.9141 410.42773 L 3055.6758 418.48828 L 3057.4395 426.79883 C 3058.2789 431.49979 3059.0335 435.10858 3059.7051 437.62695 C 3059.7051 437.96274 3060.5457 440.98505 3062.2246 446.69336 L 3065.498 458.5293 C 3071.2064 480.35519 3075.2355 493.61935 3077.5859 498.32031 C 3079.2649 501.51025 3081.9509 503.10547 3085.6445 503.10547 L 3095.2148 502.85352 L 3105.0371 503.10547 C 3105.5408 503.10547 3106.3794 503.18953 3107.5547 503.35742 C 3110.241 503.35742 3111.584 502.0965 3111.584 499.57812 C 3109.0656 493.70192 3106.6317 487.82737 3104.2812 481.95117 C 3101.0913 473.72449 3096.726 460.9647 3091.1855 443.67188 C 3089.5066 438.46724 3087.5752 431.49794 3085.3926 422.76758 C 3082.3705 410.84728 3080.8594 402.62096 3080.8594 398.08789 C 3080.8594 395.06584 3080.357 393.30446 3079.3496 392.80078 C 3078.3423 392.29711 3076.3267 392.04492 3073.3047 392.04492 L 3051.8984 392.04492 z M 3419.7305 392.04492 C 3416.5405 392.04492 3414.9453 392.46328 3414.9453 393.30273 C 3414.9453 394.81376 3415.1975 396.49304 3415.7012 398.33984 C 3416.3727 400.01876 3416.793 401.52992 3416.9609 402.87305 C 3417.2967 404.04829 3417.4648 405.13914 3417.4648 406.14648 C 3417.4648 407.8254 3416.1199 410.09311 3413.4336 412.94727 C 3407.3895 419.49503 3403.9488 423.27195 3403.1094 424.2793 C 3393.5396 435.19224 3387.4109 442.5799 3384.7246 446.44141 C 3377.0016 457.35435 3373.1406 466.75558 3373.1406 474.64648 C 3373.1406 482.36949 3374.904 489.08661 3378.4297 494.79492 C 3382.9628 502.18215 3389.762 505.875 3398.8281 505.875 C 3408.5658 505.875 3416.7922 501.8459 3423.5078 493.78711 C 3428.7124 487.57512 3433.0778 478.59225 3436.6035 466.83984 L 3439.625 477.66992 L 3442.3965 486.98633 C 3443.0681 489.33681 3443.9067 491.94077 3444.9141 494.79492 C 3445.082 496.30595 3445.3341 498.06733 3445.6699 500.08203 C 3446.1736 502.09673 3447.0123 503.10547 3448.1875 503.10547 L 3472.6172 503.10547 C 3475.8071 503.10547 3477.4004 502.43298 3477.4004 501.08984 C 3474.5462 493.19894 3471.692 485.22481 3468.8379 477.16602 C 3464.4727 464.07048 3459.6049 446.77722 3454.2324 425.28711 L 3452.4688 418.23633 L 3448.6914 404.38477 C 3447.8519 401.02694 3447.3495 398.84329 3447.1816 397.83594 L 3447.1816 393.30273 C 3446.8459 392.46328 3445.8371 392.04492 3444.1582 392.04492 L 3419.7305 392.04492 z M 4098.0176 392.04492 C 4094.8276 392.04492 4093.2344 392.46328 4093.2344 393.30273 C 4093.2344 394.81376 4093.4846 396.49304 4093.9883 398.33984 C 4094.6598 400.01876 4095.0802 401.52992 4095.248 402.87305 C 4095.5838 404.04829 4095.752 405.13914 4095.752 406.14648 C 4095.752 407.8254 4094.4089 410.09311 4091.7227 412.94727 C 4085.6786 419.49503 4082.2359 423.27195 4081.3965 424.2793 C 4071.8267 435.19224 4065.6999 442.5799 4063.0137 446.44141 C 4055.2907 457.35435 4051.4277 466.75558 4051.4277 474.64648 C 4051.4277 482.36949 4053.1911 489.08661 4056.7168 494.79492 C 4061.2499 502.18215 4068.0491 505.875 4077.1152 505.875 C 4086.8529 505.875 4095.0812 501.8459 4101.7969 493.78711 C 4107.0015 487.57512 4111.3669 478.59225 4114.8926 466.83984 L 4117.9141 477.66992 L 4120.6836 486.98633 C 4121.3552 489.33681 4122.1958 491.94077 4123.2031 494.79492 C 4123.371 496.30595 4123.6212 498.06733 4123.957 500.08203 C 4124.4607 502.09673 4125.3013 503.10547 4126.4766 503.10547 L 4150.9043 503.10547 C 4154.0942 503.10547 4155.6895 502.43298 4155.6895 501.08984 C 4152.8353 493.19894 4149.9811 485.22481 4147.127 477.16602 C 4142.7618 464.07048 4137.8921 446.77722 4132.5195 425.28711 L 4130.7578 418.23633 L 4126.9805 404.38477 C 4126.141 401.02694 4125.6366 398.84329 4125.4688 397.83594 L 4125.4688 393.30273 C 4125.133 392.46328 4124.1262 392.04492 4122.4473 392.04492 L 4098.0176 392.04492 z M 2481.7109 399.85156 C 2487.5871 399.85156 2491.8684 400.5221 2494.5547 401.86523 C 2497.241 403.04047 2498.584 405.56037 2498.584 409.42188 C 2498.584 415.80175 2496.066 421.59419 2491.0293 426.79883 C 2485.1531 432.84292 2477.8495 435.86328 2469.1191 435.86328 C 2469.1191 423.27142 2469.7076 411.35224 2470.8828 400.10352 L 2475.668 400.10352 C 2477.5148 399.93562 2479.5283 399.85156 2481.7109 399.85156 z M 1184.0938 406.14648 C 1192.8241 410.34377 1200.6301 419.15853 1207.5137 432.58984 C 1213.7257 444.67803 1216.832 455.42425 1216.832 464.82617 L 1216.832 473.64062 C 1216.832 480.52418 1215.1528 485.64412 1211.7949 489.00195 C 1209.6123 491.18454 1207.0103 492.27539 1203.9883 492.27539 C 1197.6084 492.27539 1191.2275 487.91004 1184.8477 479.17969 C 1177.6283 469.1062 1174.0195 457.18702 1174.0195 443.41992 C 1174.0195 435.52902 1174.7741 428.72784 1176.2852 423.01953 C 1177.7962 417.31122 1180.4001 411.6869 1184.0938 406.14648 z M 2713.3145 406.14648 C 2722.0448 410.34377 2729.8528 419.15853 2736.7363 432.58984 C 2742.9483 444.67803 2746.0547 455.42425 2746.0547 464.82617 L 2746.0547 473.64062 C 2746.0547 480.52418 2744.3754 485.64412 2741.0176 489.00195 C 2738.835 491.18454 2736.233 492.27539 2733.2109 492.27539 C 2726.8311 492.27539 2720.4502 487.91004 2714.0703 479.17969 C 2706.851 469.1062 2703.2422 457.18702 2703.2422 443.41992 C 2703.2422 435.52902 2703.9968 428.72784 2705.5078 423.01953 C 2707.0188 417.31122 2709.6208 411.6869 2713.3145 406.14648 z M 3798.8711 406.14648 C 3807.6015 410.34377 3815.4094 419.15853 3822.293 432.58984 C 3828.505 444.67803 3831.6094 455.42425 3831.6094 464.82617 L 3831.6094 473.64062 C 3831.6094 480.52418 3829.932 485.64412 3826.5742 489.00195 C 3824.3916 491.18454 3821.7877 492.27539 3818.7656 492.27539 C 3812.3857 492.27539 3806.0068 487.91004 3799.627 479.17969 C 3792.4076 469.1062 3788.7969 457.18702 3788.7969 443.41992 C 3788.7969 435.52902 3789.5534 428.72784 3791.0645 423.01953 C 3792.5755 417.31122 3795.1775 411.6869 3798.8711 406.14648 z M 3608.3516 414.70898 C 3612.2131 419.24205 3616.4944 423.10498 3621.1953 426.29492 C 3623.7137 427.97384 3629.338 431.16232 3638.0684 435.86328 C 3642.9372 438.54954 3645.8755 440.73319 3646.8828 442.41211 C 3647.8902 443.92313 3648.3945 446.44108 3648.3945 449.9668 L 3648.3945 476.91406 C 3648.3945 483.29394 3647.6399 487.4071 3646.1289 489.25391 C 3645.4573 490.09336 3643.0215 491.4364 3638.8242 493.2832 C 3637.4811 493.78688 3634.711 494.03906 3630.5137 494.03906 C 3626.6522 494.03906 3622.7912 493.955 3618.9297 493.78711 C 3615.0682 493.61922 3611.5415 493.36703 3608.3516 493.03125 L 3608.3516 414.70898 z M 1313.0996 415.46484 L 1316.627 428.30859 L 1319.6484 438.88672 C 1320.32 441.06931 1321.1587 443.83944 1322.166 447.19727 C 1323.1734 450.5551 1323.6777 453.57741 1323.6777 456.26367 C 1323.6777 460.62885 1321.9985 464.74201 1318.6406 468.60352 C 1314.6112 473.30448 1309.4913 475.6543 1303.2793 475.6543 C 1298.4104 475.6543 1294.7997 473.97502 1292.4492 470.61719 C 1290.2666 467.09147 1289.1758 463.31455 1289.1758 459.28516 C 1289.1758 453.91263 1291.4415 447.19746 1295.9746 439.13867 C 1300.5077 430.91199 1306.2161 423.01996 1313.0996 415.46484 z M 1954.9902 415.46484 L 1958.5156 428.30859 L 1961.5371 438.88672 C 1962.2087 441.06931 1963.0493 443.83944 1964.0566 447.19727 C 1965.064 450.5551 1965.5664 453.57741 1965.5664 456.26367 C 1965.5664 460.62885 1963.8891 464.74201 1960.5312 468.60352 C 1956.5019 473.30448 1951.38 475.6543 1945.168 475.6543 C 1940.2991 475.6543 1936.6903 473.97502 1934.3398 470.61719 C 1932.1573 467.09147 1931.0664 463.31455 1931.0664 459.28516 C 1931.0664 453.91263 1933.3322 447.19746 1937.8652 439.13867 C 1942.3983 430.91199 1948.1067 423.01996 1954.9902 415.46484 z M 2941.6797 415.46484 L 2945.207 428.30859 L 2948.2285 438.88672 C 2948.9001 441.06931 2949.7387 443.83944 2950.7461 447.19727 C 2951.7534 450.5551 2952.2578 453.57741 2952.2578 456.26367 C 2952.2578 460.62885 2950.5785 464.74201 2947.2207 468.60352 C 2943.1913 473.30448 2938.0714 475.6543 2931.8594 475.6543 C 2926.9905 475.6543 2923.3798 473.97502 2921.0293 470.61719 C 2918.8467 467.09147 2917.7559 463.31455 2917.7559 459.28516 C 2917.7559 453.91263 2920.0216 447.19746 2924.5547 439.13867 C 2929.0878 430.91199 2934.7961 423.01996 2941.6797 415.46484 z M 3421.7461 415.46484 L 3425.2715 428.30859 L 3428.293 438.88672 C 3428.9645 441.06931 3429.8032 443.83944 3430.8105 447.19727 C 3431.8179 450.5551 3432.3223 453.57741 3432.3223 456.26367 C 3432.3223 460.62885 3430.643 464.74201 3427.2852 468.60352 C 3423.2558 473.30448 3418.1358 475.6543 3411.9238 475.6543 C 3407.055 475.6543 3403.4442 473.97502 3401.0938 470.61719 C 3398.9112 467.09147 3397.8203 463.31455 3397.8203 459.28516 C 3397.8203 453.91263 3400.088 447.19746 3404.6211 439.13867 C 3409.1542 430.91199 3414.8625 423.01996 3421.7461 415.46484 z M 4100.0332 415.46484 L 4103.5586 428.30859 L 4106.5801 438.88672 C 4107.2516 441.06931 4108.0923 443.83944 4109.0996 447.19727 C 4110.107 450.5551 4110.6113 453.57741 4110.6113 456.26367 C 4110.6113 460.62885 4108.932 464.74201 4105.5742 468.60352 C 4101.5448 473.30448 4096.4229 475.6543 4090.2109 475.6543 C 4085.3421 475.6543 4081.7333 473.97502 4079.3828 470.61719 C 4077.2002 467.09147 4076.1094 463.31455 4076.1094 459.28516 C 4076.1094 453.91263 4078.3751 447.19746 4082.9082 439.13867 C 4087.4413 430.91199 4093.1497 423.01996 4100.0332 415.46484 z M 2469.1191 445.18164 C 2480.3679 445.18164 2489.8551 449.54699 2497.5781 458.27734 C 2503.958 465.49668 2507.1465 473.05246 2507.1465 480.94336 C 2507.1465 487.32324 2505.217 491.4364 2501.3555 493.2832 C 2498.8371 494.45844 2493.2128 495.04492 2484.4824 495.04492 L 2469.3711 494.54297 L 2468.6152 465.07812 L 2469.1191 445.18164 z M 1703.2793 452.48438 C 1716.039 453.9954 1725.02 459.1173 1730.2246 467.84766 C 1733.4145 473.05229 1735.0098 479.51527 1735.0098 487.23828 L 1734.7578 494.79492 L 1730.7285 495.04492 L 1703.5312 495.04492 C 1703.5312 494.54125 1703.3631 490.84839 1703.0273 483.96484 C 1702.8595 477.08129 1702.7754 470.78644 1702.7754 465.07812 L 1702.7754 461.04688 L 1702.7754 457.01758 C 1702.9433 455.33866 1703.1114 453.82751 1703.2793 452.48438 z M 3157.7363 452.48438 C 3170.4961 453.9954 3179.479 459.1173 3184.6836 467.84766 C 3187.8735 473.05229 3189.4688 479.51527 3189.4688 487.23828 L 3189.2168 494.79492 L 3185.1875 495.04492 L 3157.9883 495.04492 C 3157.9883 494.54125 3157.8202 490.84839 3157.4844 483.96484 C 3157.3165 477.08129 3157.2344 470.78644 3157.2344 465.07812 L 3157.2344 461.04688 L 3157.2344 457.01758 C 3157.4023 455.33866 3157.5684 453.82751 3157.7363 452.48438 z "
       style="font-style:normal;font-weight:normal;font-size:251.83721924px;line-height:125%;font-family:sans-serif;letter-spacing:0px;word-spacing:0px;fill:#ffffff;fill-opacity:1;stroke:none;stroke-width:1px;stroke-linecap:butt;stroke-linejoin:miter;stroke-opacity:1" />
    <text
       sodipodi:linespacing="125%"
       id="text4700"
       y="698.22443"
       x="2261.8264"
       style="font-style:normal;font-weight:normal;font-size:126.92404175px;line-height:125%;font-family:sans-serif;letter-spacing:0px;word-spacing:0px;fill:#ffffff;fill-opacity:1;stroke:none;stroke-width:1px;stroke-linecap:butt;stroke-linejoin:miter;stroke-opacity:1"
       xml:space="preserve"><tspan
         y="698.22443"
         x="2261.8264"
         id="tspan4702"
         sodipodi:role="line">Ukrainian Universal Exchange</tspan></text>
  </g>
</svg>
