<?xml version="1.0" encoding="UTF-8" standalone="no"?>
<!-- Created with Inkscape (http://www.inkscape.org/) -->

<svg
   xmlns:dc="http://purl.org/dc/elements/1.1/"
   xmlns:cc="http://creativecommons.org/ns#"
   xmlns:rdf="http://www.w3.org/1999/02/22-rdf-syntax-ns#"
   xmlns:svg="http://www.w3.org/2000/svg"
   xmlns="http://www.w3.org/2000/svg"
   xmlns:sodipodi="http://sodipodi.sourceforge.net/DTD/sodipodi-0.dtd"
   xmlns:inkscape="http://www.inkscape.org/namespaces/inkscape"
   width="210mm"
   height="297mm"
   viewBox="0 0 744.09448819 1052.3622047"
   id="svg12427"
   version="1.1"
   inkscape:version="0.91 r"
   sodipodi:docname="logo.svg">
  <defs
     id="defs12429" />
  <sodipodi:namedview
     id="base"
     pagecolor="#ffffff"
     bordercolor="#666666"
     borderopacity="1.0"
     inkscape:pageopacity="0.0"
     inkscape:pageshadow="2"
     inkscape:zoom="0.35"
     inkscape:cx="-323.57143"
     inkscape:cy="520"
     inkscape:document-units="px"
     inkscape:current-layer="layer1"
     showgrid="false"
     inkscape:window-width="1440"
     inkscape:window-height="876"
     inkscape:window-x="1366"
     inkscape:window-y="0"
     inkscape:window-maximized="1" />
  <metadata
     id="metadata12432">
    <rdf:RDF>
      <cc:Work
         rdf:about="">
        <dc:format>image/svg+xml</dc:format>
        <dc:type
           rdf:resource="http://purl.org/dc/dcmitype/StillImage" />
        <dc:title></dc:title>
      </cc:Work>
    </rdf:RDF>
  </metadata>
  <g
     inkscape:label="Layer 1"
     inkscape:groupmode="layer"
     id="layer1">
    <path
       style="fill:#ffffff;fill-opacity:1;fill-rule:evenodd;stroke:none;stroke-width:2.30695128;stroke-linecap:butt;stroke-linejoin:round;stroke-miterlimit:4;stroke-dasharray:none;stroke-opacity:1"
       d="m 369.44448,108.25709 -69.19727,130.43945 c -0.12639,-0.15569 -0.25189,-0.30603 -0.36523,-0.42578 -0.80762,-0.89595 -1.77557,-1.38237 -2.90625,-1.45703 -0.80762,-0.14933 -2.38249,-0.22461 -4.72461,-0.22461 -1.9383,0 -3.47284,0.11195 -4.60351,0.33594 -1.04992,0.14932 -1.57618,0.48713 -1.57618,1.00976 0,0.44798 0.0403,0.96911 0.1211,1.56641 0.16152,0.52263 0.52646,1.53215 1.09179,3.02539 1.50701,3.78147 2.88485,8.05418 4.14063,12.79688 l -38.49805,72.57226 231.28907,0 -36.33399,-69.5332 c 1.49981,-5.97747 3.18445,-11.2644 5.0625,-15.83594 0.58252,-1.4926 0.95661,-2.50103 1.12305,-3.02344 0.0832,-0.59704 0.125,-1.11862 0.125,-1.5664 0,-0.52241 -0.54123,-0.85856 -1.62305,-1.00782 -1.16504,-0.22389 -2.74693,-0.33593 -4.74414,-0.33593 -2.4133,0 -4.03502,0.0734 -4.86719,0.22265 -1.16504,0.0746 -2.16392,0.56147 -2.99609,1.45703 -0.41297,0.42326 -0.9395,1.15253 -1.51953,2.02539 L 369.44448,108.25709 Z m -0.13281,23.04101 33.03515,63.21875 c -3.70146,0.082 -7.13674,0.22601 -10.23437,0.44727 -4.91648,0.23412 -7.72538,0.35156 -8.42774,0.35156 l -23.70507,0 c -8.4137,-0.0825 -16.43338,-0.16545 -24.49805,-0.24804 l 33.83008,-63.76954 z m -37.5,70.68946 7.27344,0 0,33.84765 c -0.69583,-0.0914 -1.48145,-0.14062 -2.375,-0.14062 -5.49186,0 -9.89382,2.68682 -13.20508,8.0625 -1.77678,2.91182 -3.35165,7.05596 -4.72461,12.43164 -0.96915,3.58379 -1.81611,7.35345 -2.54297,11.31055 -0.72686,3.95709 -1.37412,9.03545 -1.93945,15.23242 l -4.60352,0 -0.24219,-1.79297 c 0,-3.3598 -0.76629,-9.77962 -2.30078,-19.26172 -0.61696,-3.75923 -1.22284,-6.99537 -1.82031,-9.77344 l 26.48047,-49.91601 z m 33.08398,0 6.32227,0 3.86133,0 c 5.50177,0 9.7161,1.05309 12.64257,3.16015 4.44825,3.27766 7.95986,9.5414 10.53516,18.78907 0.81941,2.92647 1.34791,4.62356 1.58203,5.09179 0.70236,1.40471 1.93162,2.10742 3.6875,2.10743 2.10707,0 3.51054,-1.22926 4.21289,-3.6875 0.23412,-0.93648 0.58645,-3.51244 1.05469,-7.72657 0.3629,-3.26603 1.01038,-6.3182 1.93555,-9.16211 l 23.03711,44.08203 c -0.42697,2.11699 -0.85863,4.44853 -1.29493,7.02735 -1.58112,9.478 -2.37109,15.89556 -2.37109,19.2539 l -0.25,1.79102 -4.74219,0 c -0.58252,-6.19428 -1.24909,-11.26922 -1.99804,-15.22461 -0.74896,-3.95538 -1.62249,-7.7244 -2.6211,-11.30664 -1.41469,-5.37335 -3.03836,-9.51522 -4.86914,-12.42578 -3.4119,-5.37335 -7.9467,-8.06055 -13.60547,-8.06055 -1.66434,0 -2.99553,0.1507 -3.99414,0.44922 -0.9986,0.22389 -1.49804,0.78217 -1.49804,1.67774 0,0.67166 0.25069,1.4193 0.75,2.24023 0.41608,0.82093 0.87374,1.64196 1.37304,2.46289 0.41609,1.11945 0.62305,2.27467 0.62305,3.46875 l 0,1.34375 0,2.23828 c 0,0.89556 0.0836,1.56785 0.25,2.01563 l 2.74609,0.11132 c 0.49931,-1.79111 1.99763,-2.68554 4.49414,-2.68554 3.32869,0 6.03287,2.12695 8.11328,6.38086 3.07904,6.26891 4.61915,16.64289 4.61915,31.12109 0,7.08984 -0.2507,12.20148 -0.75,15.33594 -1.08183,6.79132 -1.62305,10.41159 -1.62305,10.85937 0,0.7463 0.66657,1.34324 1.99805,1.79102 1.24825,0.44778 3.95242,0.67187 8.11328,0.67187 1.41469,0 2.12304,-0.82103 2.12304,-2.46289 0,-4.03001 -0.0836,-7.05335 -0.25,-9.06836 -0.24965,-1.94037 -0.91622,-5.97019 -1.99804,-12.08984 l -0.74805,-5.26172 6.86523,0 c 3.32869,0 5.5752,0.0367 6.74024,0.11133 1.16504,0.0746 2.2057,0.14998 3.12109,0.22461 0.83217,0 1.24805,-0.37284 1.24805,-1.11914 -0.0832,-0.52241 -0.125,-0.89525 -0.125,-1.11914 l 0,-2.35157 c 0,-1.99926 0.14093,-4.21473 0.41211,-6.63085 l 22.10547,42.30078 -196.30469,0 24.44727,-46.08399 c 0.59295,3.94314 0.89648,7.42893 0.89648,10.43164 l 0,2.35157 c 0,0.22398 -0.0403,0.5965 -0.12109,1.11914 0,0.74662 0.40526,1.12109 1.21289,1.12109 0.88838,-0.0747 1.89666,-0.14995 3.02734,-0.22461 1.13068,-0.0747 3.31247,-0.11133 6.54297,-0.11133 l 6.66211,0 -0.72656,5.26367 c -1.04992,6.12231 -1.69522,10.15254 -1.9375,12.09375 -0.16153,2.01588 -0.24219,5.04051 -0.24219,9.07227 0,1.64257 0.68563,2.46484 2.05859,2.46484 4.03813,0 6.66356,-0.2239 7.875,-0.67187 1.2922,-0.44797 1.9375,-1.04635 1.9375,-1.79297 0,-0.44797 -0.5243,-4.06902 -1.57422,-10.86328 -0.48457,-3.13581 -0.72656,-8.25084 -0.72656,-15.34375 0,-14.48447 1.49421,-24.86119 4.48242,-31.13281 2.01907,-4.25575 4.64255,-6.38477 7.87305,-6.38477 2.42288,0 3.87675,0.89561 4.36133,2.6875 l 2.61719,-0.10937 0,53.10742 -13.8711,0 0,7.02343 81.99805,0.52735 c 3.27765,0 5.97106,-0.93565 8.07812,-2.80859 2.10707,-1.99001 3.16016,-4.80086 3.16016,-8.42969 l 0,-20.89453 c 0,-11.70591 -3.27672,-18.78786 -9.83203,-21.2461 -8.19414,-1.75588 -16.33113,-3.51169 -24.4082,-5.26758 -5.7359,-1.52176 -9.53917,-2.6923 -11.41211,-3.51171 -1.87295,-0.93648 -4.50763,-3.04266 -7.90235,-6.32032 l 0,-41.79101 z m 0,48.11133 c 2.69236,3.16059 5.67743,5.85204 8.95508,8.07617 1.75589,1.17059 5.67855,3.39617 11.76563,6.67383 3.39471,1.87294 5.44217,3.39386 6.14453,4.56445 0.70235,1.05353 1.05468,2.80934 1.05468,5.26758 l 0,18.78906 c 0,4.44824 -0.5285,7.31586 -1.58203,8.60352 -0.46823,0.58528 -2.16532,1.52094 -5.09179,2.80859 -0.93648,0.35118 -2.8665,0.52734 -5.79297,0.52734 -2.69236,0 -5.38577,-0.0587 -8.07813,-0.17578 -2.69236,-0.11706 -5.15087,-0.29322 -7.375,-0.52734 l 0,-54.60742 z"
       id="path19683-2-4"
       inkscape:connector-curvature="0" />
  </g>
</svg>
